<svg xmlns="http://www.w3.org/2000/svg">
<defs>
<font id="HelveticaNeueLTCom-MdCn" horiz-adv-x="222" >
  <font-face 
    font-family="HelveticaNeueLT Com 67 MdCn"
    font-weight="500"
    font-stretch="normal"
    units-per-em="1000"
    panose-1="2 11 6 6 3 5 2 3 2 4"
    ascent="714"
    descent="-286"
    x-height="538"
    cap-height="714"
    bbox="-164 -223.005 1031 950"
    underline-thickness="50"
    underline-position="-50"
    unicode-range="U+0020-U+FB02"
  />
<missing-glyph horiz-adv-x="512" 
d="M222 117v67h56v-67h-56zM225 234l-2.00098 16.999c0 37.333 4.33301 64.333 13 81c4.66699 8.66699 10.667 17.834 18 27.501s16.666 20.167 27.999 31.5c10.667 10 19.334 18.833 26.001 26.5s11.667 14.667 15 21s5.66602 12.333 6.99902 18s2 11.5 2 17.5
c0 24 -7.5 44.167 -22.5 60.5s-32.833 24.5 -53.5 24.5s-38.5 -7.33301 -53.5 -22s-24.5 -39 -28.5 -73l-50 8c4.66699 48 19.334 82.833 44.001 104.5s55 32.5 91 32.5s65.667 -11.833 89 -35.5s35 -55.5 35 -95.5c0 -21.333 -4.16699 -40.833 -12.5 -58.5
s-25.166 -38.167 -50.499 -61.5c-24.667 -22 -39 -39.333 -43 -52c-4 -13.333 -6 -37.333 -6 -72h-46zM461.999 49.999v617h-412v-617h412zM511.999 717.999v-718h-512v718h512z" />
    <glyph glyph-name="IJ" unicode="IJ" horiz-adv-x="671" 
d="M54 714h114v-714h-114v714zM351 215l-0.00195312 -35c0 -14.667 1 -28.5 3 -41.5s5.66699 -24.5 11 -34.5s13 -17.833 23 -23.5s23 -8.5 39 -8.5c18.667 0 33.167 4 43.5 12s18 18.667 23 32s7.83301 28.5 8.5 45.5s1 34.5 1 52.5v500h114v-517
c0 -39.333 -4.66699 -72.5 -14 -99.5s-22.5 -48.833 -39.5 -65.5s-37.167 -28.5 -60.5 -35.5s-49.333 -10.5 -78 -10.5c-36.667 0 -66.667 5.16699 -90 15.5s-41.666 24 -54.999 41s-22.666 36.5 -27.999 58.5s-8.33301 44.667 -9 68v46h108z" />
    <glyph glyph-name="ij" unicode="ij" horiz-adv-x="446" 
d="M57 722h108v-108h-108v108zM57 538h108v-538h-108v538zM389 722v-108h-108v108h108zM389 538v-573c0 -56 -11.833 -94.833 -35.5 -116.5s-59.167 -32.5 -106.5 -32.5c-15.333 0 -31 1 -47 3v83h25c20.667 0 35.167 5 43.5 15s12.5 29.333 12.5 58v563h108z" />
    <glyph glyph-name="napostrophe" unicode="&#x22;n" horiz-adv-x="501" 
d="M72 538h102.001v-63h3c13.333 24 32.166 42.833 56.499 56.5s51.5 20.5 81.5 20.5c20.667 0 39.167 -2.5 55.5 -7.5s30.333 -13.167 42 -24.5s20.667 -26.333 27 -45s9.5 -41.667 9.5 -69v-406h-108v369c0 36 -5.5 61.167 -16.5 75.5s-30.5 21.5 -58.5 21.5
c-22 0 -41.833 -8.5 -59.5 -25.5s-26.5 -43.5 -26.5 -79.5v-361h-108v538zM28.001 813l96 -0.00195312v-86c0 -30 -7.66699 -51.167 -23 -63.5s-36.333 -20.166 -63 -23.499v33c10 2.66699 18 6.83398 24 12.501s9.66699 15.167 11 28.5h-45v99z" />
    <glyph glyph-name="fi" unicode="fi" horiz-adv-x="500" 
d="M85 458h-75v80h75v50c0 50.667 11.833 85.667 35.5 105s57.5 29 101.5 29c23.333 0 43 -1 59 -3v-83h-30c-20 0 -34.667 -4 -44 -12s-14 -21 -14 -39v-47h88v-80h-88v-458h-108v458zM335 722h108v-108h-108v108zM335 538h108v-538h-108v538z" />
    <glyph glyph-name="fl" unicode="fl" horiz-adv-x="500" 
d="M85 458h-75v80h75v50c0 50.667 11.833 85.667 35.5 105s57.5 29 101.5 29c23.333 0 43 -1 59 -3v-83h-30c-20 0 -34.667 -4 -44 -12s-14 -21 -14 -39v-47h88v-80h-88v-458h-108v458zM335 714h108v-714h-108v714z" />
    <glyph glyph-name=".notdef" horiz-adv-x="512" 
d="M222 117v67h56v-67h-56zM225 234l-2.00098 16.999c0 37.333 4.33301 64.333 13 81c4.66699 8.66699 10.667 17.834 18 27.501s16.666 20.167 27.999 31.5c10.667 10 19.334 18.833 26.001 26.5s11.667 14.667 15 21s5.66602 12.333 6.99902 18s2 11.5 2 17.5
c0 24 -7.5 44.167 -22.5 60.5s-32.833 24.5 -53.5 24.5s-38.5 -7.33301 -53.5 -22s-24.5 -39 -28.5 -73l-50 8c4.66699 48 19.334 82.833 44.001 104.5s55 32.5 91 32.5s65.667 -11.833 89 -35.5s35 -55.5 35 -95.5c0 -21.333 -4.16699 -40.833 -12.5 -58.5
s-25.166 -38.167 -50.499 -61.5c-24.667 -22 -39 -39.333 -43 -52c-4 -13.333 -6 -37.333 -6 -72h-46zM461.999 49.999v617h-412v-617h412zM511.999 717.999v-718h-512v718h512z" />
    <glyph glyph-name="space" unicode=" " horiz-adv-x="240" 
 />
    <glyph glyph-name="exclam" unicode="!" horiz-adv-x="278" 
d="M82 114h114v-114h-114v114zM82 488v226h114v-226l-17 -296h-80z" />
    <glyph glyph-name="quotedbl" unicode="&#x22;" horiz-adv-x="426" 
d="M76 714h86v-286h-86v286zM264 714h86v-286h-86v286z" />
    <glyph glyph-name="numbersign" unicode="#" horiz-adv-x="480" 
d="M-3 274h97l20 146h-88v74h98l28 200h83l-28 -200h106l28 200h83l-28 -200h87v-74h-97l-20 -146h88v-74h-98l-28 -200h-83l28 200h-106l-28 -200h-83l28 200h-87v74zM283 274l20 146h-106l-20 -146h106z" />
    <glyph glyph-name="dollar" unicode="$" horiz-adv-x="480" 
d="M216 -14c-42.667 2 -77.001 9.8291 -103.001 23.4961s-46.167 30.5 -60.5 50.5s-24 42.167 -29 66.5s-7.5 48.166 -7.5 71.499v16h114v-16c0 -38 6.33301 -67.167 19 -87.5s35 -33.166 67 -38.499v232l-41 15c-52.667 18.667 -90.667 42.834 -114 72.501
s-35 69.834 -35 120.501c0 28.667 4.83301 55 14.5 79s23 44.667 40 62s37 30.833 60 40.5s48.167 14.5 75.5 14.5v70h44v-70c38 0 69.333 -6.33301 94 -19s44 -28.167 58 -46.5s23.833 -38.166 29.5 -59.499s8.5 -41 8.5 -59v-14h-114v14
c0 26.667 -5.33301 48.834 -16 66.501s-30.667 28.167 -60 31.5v-221l63 -22c48.667 -17.333 84.334 -40.333 107.001 -69s34 -67 34 -115c0 -69.333 -18.5 -120.5 -55.5 -153.5s-86.5 -51.5 -148.5 -55.5v-86h-44v86zM215.999 621.996
c-21.333 -2 -39.333 -11.167 -54 -27.5s-22 -40.5 -22 -72.5c0 -23.333 5.66699 -43.5 17 -60.5s31 -31.5 59 -43.5v204zM259.999 71.9961c30 4.66699 52.501 16.832 67.501 36.499s22.5 40.834 22.5 63.501c0 33.333 -7.33301 58.5 -22 75.5s-37.334 30.167 -68.001 39.5
v-215z" />
    <glyph glyph-name="percent" unicode="%" horiz-adv-x="759" 
d="M586 370c20 0 38.333 -3 55 -9s31 -16.333 43 -31s21.5 -34.334 28.5 -59.001s10.5 -55.667 10.5 -93s-3.5 -68.333 -10.5 -93s-16.5 -44.334 -28.5 -59.001s-26.333 -25 -43 -31s-35 -9 -55 -9s-38.333 3 -55 9s-31 16.333 -43 31s-21.5 34.334 -28.5 59.001
s-10.5 55.667 -10.5 93s3.5 68.333 10.5 93s16.5 44.334 28.5 59.001s26.333 25 43 31s35 9 55 9zM173 708c20 0 38.333 -3 55 -9s31 -16.333 43 -31s21.5 -34.334 28.5 -59.001s10.5 -55.667 10.5 -93s-3.5 -68.333 -10.5 -93s-16.5 -44.334 -28.5 -59.001
s-26.333 -25 -43 -31s-35 -9 -55 -9s-38.333 3 -55 9s-31 16.333 -43 31s-21.5 34.334 -28.5 59.001s-10.5 55.667 -10.5 93s3.5 68.333 10.5 93s16.5 44.334 28.5 59.001s26.333 25 43 31s35 9 55 9zM586 308c-20.667 0 -34.334 -10 -41.001 -30s-10 -53.333 -10 -100
s3.33301 -80 10 -100s20.334 -30 41.001 -30s34.334 10 41.001 30s10 53.333 10 100s-3.33301 80 -10 100s-20.334 30 -41.001 30zM574 708l-319 -722h-75l317 722h77zM173 646c-20.667 0 -34.334 -10 -41.001 -30s-10 -53.333 -10 -100s3.33301 -80 10 -100
s20.334 -30 41.001 -30s34.334 10 41.001 30s10 53.333 10 100s-3.33301 80 -10 100s-20.334 30 -41.001 30z" />
    <glyph glyph-name="ampersand" unicode="&#x26;" horiz-adv-x="574" 
d="M195 318c-20.667 -16.667 -36.833 -35.332 -48.5 -55.999s-17.5 -44.334 -17.5 -71.001c0 -16 3.16699 -31 9.5 -45s15 -26 26 -36s23.833 -18 38.5 -24s30.334 -9 47.001 -9c24 0 45.167 5.5 63.5 16.5s34.166 23.833 47.499 38.5l-145 204zM272.001 481.002
c12.667 12 24.499 25.499 35.499 40.499s16.5 32.167 16.5 51.5c0 21.333 -6 37.833 -18 49.5s-28.667 17.5 -50 17.5c-7.33301 0 -15 -1 -23 -3s-15.167 -5.5 -21.5 -10.5s-11.666 -11.333 -15.999 -19s-6.5 -17.5 -6.5 -29.5c0 -18 4.5 -35.667 13.5 -53
s18.5 -32.666 28.5 -45.999l16 -21zM421 216.001c8.66699 14 15.5 30.833 20.5 50.5s7.5 39.167 7.5 58.5v14h90v-9c0 -10 -1 -22.5 -3 -37.5s-5.16699 -31.167 -9.5 -48.5s-10.5 -35.333 -18.5 -54s-18 -36.667 -30 -54l97 -136h-121l-43 61
c-23.333 -21.333 -49 -39.166 -77 -53.499s-62.333 -21.5 -103 -21.5c-41.333 0 -75.5 6.66699 -102.5 20s-48.5 30 -64.5 50s-27.167 41.333 -33.5 64s-9.5 43.667 -9.5 63c0 40 9 75.333 27 106s42.333 57.667 73 81l45 34l-27 40c-12.667 19.333 -23.5 38.833 -32.5 58.5
s-13.5 39.167 -13.5 58.5c0 25.333 4.33301 47.666 13 66.999s20.667 35.333 36 48s33.333 22.167 54 28.5s43 9.5 67 9.5c13.333 0 29 -2 47 -6s35.167 -11.333 51.5 -22s30.166 -25.334 41.499 -44.001s17 -43 17 -73c0 -34 -8.16699 -62.667 -24.5 -86
s-37.166 -44.666 -62.499 -63.999l-37 -27z" />
    <glyph glyph-name="quotesingle" unicode="'" horiz-adv-x="240" 
d="M77 714h86v-286h-86v286z" />
    <glyph glyph-name="parenleft" unicode="(" horiz-adv-x="259" 
d="M259 714c-40 -68.667 -69 -139 -87 -211s-27 -151.333 -27 -238c0 -37.333 2.16699 -75.833 6.5 -115.5s11.166 -79 20.499 -118s21.166 -76.833 35.499 -113.5s31.5 -70.667 51.5 -102h-77c-20 26 -38.833 55.5 -56.5 88.5s-33 68.5 -46 106.5s-23.333 78.333 -31 121
s-11.5 87 -11.5 133s3.83301 90.333 11.5 133s18.334 83 32.001 121s29.334 73.5 47.001 106.5s36.5 62.5 56.5 88.5h75z" />
    <glyph glyph-name="parenright" unicode=")" horiz-adv-x="259" 
d="M0 -184c40 68.667 69 139 87 211s27 151.333 27 238c0 37.333 -2.16699 75.833 -6.5 115.5s-11.166 79 -20.499 118s-21.166 76.833 -35.499 113.5s-31.5 70.667 -51.5 102h77c20 -26 38.833 -55.5 56.5 -88.5s33 -68.5 46 -106.5s23.333 -78.333 31 -121
s11.5 -87 11.5 -133s-3.83301 -90.333 -11.5 -133s-18.334 -83 -32.001 -121s-29.334 -73.5 -47.001 -106.5s-36.5 -62.5 -56.5 -88.5h-75z" />
    <glyph glyph-name="asterisk" unicode="*" horiz-adv-x="370" 
d="M220 714v-124l111 43l23 -66l-114 -33l78 -103l-56 -43l-76 105l-74 -105l-56 43l76 103l-116 33l23 66l113 -44v125h68z" />
    <glyph glyph-name="plus" unicode="+" horiz-adv-x="600" 
d="M257 506h86v-210h210v-86h-210v-210h-86v210h-210v86h210v210z" />
    <glyph glyph-name="comma" unicode="," horiz-adv-x="240" 
d="M63 132h114v-132c0 -40 -8 -73.5 -24 -100.5s-46 -44.833 -90 -53.5v58c15.333 4 27.5 13 36.5 27s13.5 32 13.5 54v15h-50v132z" />
    <glyph glyph-name="hyphen" unicode="-" horiz-adv-x="352" 
d="M45 340h262v-102h-262v102z" />
    <glyph glyph-name="period" unicode="." horiz-adv-x="240" 
d="M63 132h114v-132h-114v132z" />
    <glyph glyph-name="slash" unicode="/" horiz-adv-x="296" 
d="M217 728h89l-227 -742h-89z" />
    <glyph glyph-name="zero" unicode="0" horiz-adv-x="480" 
d="M28 347c0 68.667 4.66699 126.167 14 172.5s23 83.5 41 111.5s40.167 47.833 66.5 59.5s56.5 17.5 90.5 17.5s64.167 -5.83301 90.5 -17.5s48.5 -31.5 66.5 -59.5s31.667 -65.167 41 -111.5s14 -103.833 14 -172.5c0 -69.333 -4.66699 -127 -14 -173s-23 -83 -41 -111
s-40.167 -47.833 -66.5 -59.5s-56.5 -17.5 -90.5 -17.5s-64.167 5.83301 -90.5 17.5s-48.5 31.5 -66.5 59.5s-31.667 65 -41 111s-14 103.667 -14 173zM142 347c0 -51.333 1.5 -94.833 4.5 -130.5s8.16699 -64.667 15.5 -87s17.333 -38.5 30 -48.5s28.667 -15 48 -15
s35.333 5 48 15s22.667 26.167 30 48.5s12.5 51.333 15.5 87s4.5 79.167 4.5 130.5s-1.5 94.833 -4.5 130.5s-8.16699 64.667 -15.5 87s-17.333 38.5 -30 48.5s-28.667 15 -48 15s-35.333 -5 -48 -15s-22.667 -26.167 -30 -48.5s-12.5 -51.333 -15.5 -87
s-4.5 -79.167 -4.5 -130.5z" />
    <glyph glyph-name="one" unicode="1" horiz-adv-x="480" 
d="M207 0l-0.000976562 513.999h-147v74h11c16.667 0 33.834 1.33301 51.501 4s34.167 7.83398 49.5 15.501s28.833 18.5 40.5 32.5s20.167 32 25.5 54v14h83v-708h-114z" />
    <glyph glyph-name="two" unicode="2" horiz-adv-x="480" 
d="M447 0l-414 -0.00292969c0 51.333 7.33301 94.833 22 130.5s33 66.667 55 93s45.833 49.833 71.5 70.5s49.5 41.667 71.5 63s40.333 44.833 55 70.5s22 56.834 22 93.501c0 14.667 -1.66699 28.5 -5 41.5s-8.5 24.333 -15.5 34s-16 17.334 -27 23.001
s-24.5 8.5 -40.5 8.5c-21.333 0 -38.5 -4.33301 -51.5 -13s-23 -20 -30 -34s-11.667 -29.833 -14 -47.5s-3.5 -35.5 -3.5 -53.5h-108c0 34.667 3.83301 66.167 11.5 94.5s19.834 52.333 36.501 72s38.167 34.834 64.5 45.501s58.5 16 96.5 16c36 0 66.667 -5 92 -15
s46 -23.667 62 -41s27.667 -37.333 35 -60s11 -47 11 -73c0 -39.333 -5.83301 -73 -17.5 -101s-26.5 -52.833 -44.5 -74.5s-38 -41.334 -60 -59.001l-64.5 -54c-21 -18.333 -40.333 -38.166 -58 -59.499s-30.834 -46.333 -39.501 -75h287v-96z" />
    <glyph glyph-name="three" unicode="3" horiz-adv-x="480" 
d="M139 197c0 -15.333 1.50098 -30.8291 4.50098 -46.4961s8.16699 -29.834 15.5 -42.501s17.166 -22.834 29.499 -30.501s28.166 -11.5 47.499 -11.5c18 0 33.167 3.33301 45.5 10s22.5 15.667 30.5 27s13.833 24.833 17.5 40.5s5.5 32.167 5.5 49.5
c0 44 -8.33301 77 -25 99s-46.667 33 -90 33h-44v80h41c38 0 64.5 11.5 79.5 34.5s22.5 51.833 22.5 86.5c0 12.667 -1.5 25.167 -4.5 37.5s-7.83301 23.166 -14.5 32.499s-15.167 17 -25.5 23s-22.833 9 -37.5 9c-17.333 0 -31.833 -3.5 -43.5 -10.5s-21 -16.167 -28 -27.5
s-11.833 -24.5 -14.5 -39.5s-4 -30.5 -4 -46.5h-108c0 66.667 16.833 117.334 50.5 152.001s84.834 52 153.501 52c21.333 0 43.166 -2.83301 65.499 -8.5s42.833 -15.334 61.5 -29.001s33.834 -32.167 45.501 -55.5s17.5 -52.666 17.5 -87.999
c0 -18 -2.66699 -35.833 -8 -53.5s-12.833 -33.5 -22.5 -47.5s-21.5 -25.833 -35.5 -35.5s-29.667 -15.834 -47 -18.501v-3c36.667 -3.33301 67.334 -19 92.001 -47s37 -67 37 -117c0 -70.667 -17.333 -124.834 -52 -162.501s-89.334 -56.5 -164.001 -56.5
c-64 0 -113.667 16.667 -149 50s-53 87 -53 161h108z" />
    <glyph glyph-name="four" unicode="4" horiz-adv-x="480" 
d="M274 542h-2l-159 -292h161v292zM21 257l245 451h116v-458h77v-91h-77v-159h-108v159h-253v98z" />
    <glyph glyph-name="five" unicode="5" horiz-adv-x="480" 
d="M32 191l108.002 0.000976562v-19c0 -26.667 7.5 -50 22.5 -70s38.5 -30 70.5 -30c20 0 36.5 4.5 49.5 13.5s23.333 21 31 36s13 32.167 16 51.5s4.5 39.333 4.5 60s-1.5 40.167 -4.5 58.5s-8.16699 34.333 -15.5 48s-17.166 24.5 -29.499 32.5s-27.5 12 -45.5 12
c-24 0 -44.167 -6 -60.5 -18s-27.166 -27.667 -32.499 -47l-101 4l35 371h341v-91h-256l-23 -186l2 -2c15.333 17.333 33.166 30.833 53.499 40.5s42.166 14.5 65.499 14.5c36.667 0 67 -7 91 -21s43 -32.333 57 -55s23.667 -47.834 29 -75.501s8 -55.167 8 -82.5
c0 -35.333 -4.16699 -68.333 -12.5 -99s-21.333 -57.167 -39 -79.5s-40.334 -39.833 -68.001 -52.5s-60.5 -19 -98.5 -19c-64.667 0 -113.834 16 -147.501 48s-50.5 79.333 -50.5 142v15z" />
    <glyph glyph-name="six" unicode="6" horiz-adv-x="480" 
d="M149 213c0 -20.667 2.00098 -39.833 6.00098 -57.5s10 -33.167 18 -46.5s18.167 -23.833 30.5 -31.5s26.833 -11.5 43.5 -11.5c17.333 0 32 4 44 12s21.667 19 29 33s12.666 30.167 15.999 48.5s5 37.833 5 58.5c0 50 -7.5 88 -22.5 114s-38.833 39 -71.5 39
c-21.333 0 -38.333 -4.16699 -51 -12.5s-22.5 -19.833 -29.5 -34.5s-11.667 -31.5 -14 -50.5s-3.5 -39.167 -3.5 -60.5zM328.001 536.001c0 10 -1.33008 20.4961 -3.99707 31.4961s-7 21 -13 30s-13.833 16.333 -23.5 22s-21.5 8.5 -35.5 8.5
c-26.667 0 -47.5 -7.83301 -62.5 -23.5s-26.333 -35.5 -34 -59.5s-12.334 -50.333 -14.001 -79s-2.5 -56 -2.5 -82l3 -2c26.667 50 72.667 75 138 75c24 0 46.667 -4.33301 68 -13s40 -21.834 56 -39.501s28.5 -39.667 37.5 -66s13.5 -57.166 13.5 -92.499
c0 -82.667 -17.5 -146.667 -52.5 -192s-89.833 -68 -164.5 -68c-44.667 0 -80.834 8.16699 -108.501 24.5s-49.334 39.333 -65.001 69s-26.167 65.334 -31.5 107.001s-8 87.834 -8 138.501c0 52.667 3 102.334 9 149.001s17.333 87.334 34 122.001s39.667 62 69 82
s67.333 30 114 30c62.667 0 110.167 -14 142.5 -42s48.5 -71.333 48.5 -130h-114z" />
    <glyph glyph-name="seven" unicode="7" horiz-adv-x="480" 
d="M30 694l420 -0.000976562v-90c-28 -36 -54.667 -77.833 -80 -125.5s-47.833 -98 -67.5 -151s-36.167 -107.667 -49.5 -164s-22 -110.833 -26 -163.5h-120c4 52.667 13.167 106.334 27.5 161.001s32 108 53 160s44.667 101.167 71 147.5s53.5 87.5 81.5 123.5h-310v102z
" />
    <glyph glyph-name="eight" unicode="8" horiz-adv-x="480" 
d="M240 -14c-72.667 0 -126.5 17.667 -161.5 53s-52.5 88.333 -52.5 159c0 52.667 11.167 93.5 33.5 122.5s51.5 47.167 87.5 54.5v2c-30.667 10.667 -54.667 28.167 -72 52.5s-26 57.833 -26 100.5c0 56.667 16.667 100.5 50 131.5s80.333 46.5 141 46.5
s107.667 -15.5 141 -46.5s50 -74.833 50 -131.5c0 -42.667 -8.66699 -76.167 -26 -100.5s-41.333 -41.833 -72 -52.5v-2c36 -7.33301 65.167 -25.5 87.5 -54.5s33.5 -69.833 33.5 -122.5c0 -70.667 -17.5 -123.667 -52.5 -159s-88.833 -53 -161.5 -53zM140 200
c0 -18.667 1.5 -36.167 4.5 -52.5s8.16699 -30.5 15.5 -42.5s17.5 -21.5 30.5 -28.5s29.5 -10.5 49.5 -10.5s36.5 3.5 49.5 10.5s23.167 16.5 30.5 28.5s12.5 26.167 15.5 42.5s4.5 33.833 4.5 52.5s-1.5 36.167 -4.5 52.5s-8.16699 30.5 -15.5 42.5s-17.5 21.5 -30.5 28.5
s-29.5 10.5 -49.5 10.5s-36.5 -3.5 -49.5 -10.5s-23.167 -16.5 -30.5 -28.5s-12.5 -26.167 -15.5 -42.5s-4.5 -33.833 -4.5 -52.5zM151 522c0 -14 1.33301 -27.5 4 -40.5s7.33398 -24.5 14.001 -34.5s15.667 -18 27 -24s26 -9 44 -9s32.667 3 44 9s20.333 14 27 24
s11.334 21.5 14.001 34.5s4 26.5 4 40.5s-1.33301 27.333 -4 40s-7.33398 24 -14.001 34s-15.667 17.833 -27 23.5s-26 8.5 -44 8.5s-32.667 -2.83301 -44 -8.5s-20.333 -13.5 -27 -23.5s-11.334 -21.333 -14.001 -34s-4 -26 -4 -40z" />
    <glyph glyph-name="nine" unicode="9" horiz-adv-x="480" 
d="M331 481c0 20.667 -2.00098 39.833 -6.00098 57.5s-10 33.167 -18 46.5s-18.167 23.833 -30.5 31.5s-26.833 11.5 -43.5 11.5c-17.333 0 -32 -4 -44 -12s-21.667 -19 -29 -33s-12.666 -30.167 -15.999 -48.5s-5 -37.833 -5 -58.5c0 -50 7.5 -88 22.5 -114
s38.833 -39 71.5 -39c20.667 0 37.5 4.16699 50.5 12.5s23 19.833 30 34.5s11.667 31.5 14 50.5s3.5 39.167 3.5 60.5zM151.999 157.999c0 -10 1.33008 -20.499 3.99707 -31.499s7 -21 13 -30s13.833 -16.333 23.5 -22s21.5 -8.5 35.5 -8.5c26.667 0 47.5 7.83301 62.5 23.5
s26.333 35.5 34 59.5s12.334 50.333 14.001 79s2.5 56 2.5 82l-3 2c-27.333 -50 -73.333 -75 -138 -75c-24 0 -46.667 4.33301 -68 13s-40 21.834 -56 39.501s-28.5 39.667 -37.5 66s-13.5 57.166 -13.5 92.499c0 81.333 17.333 145 52 191s89.667 69 165 69
c44.667 0 80.834 -8.16699 108.501 -24.5s49.334 -39.333 65.001 -69s26.167 -65.334 31.5 -107.001s8 -87.834 8 -138.501c0 -53.333 -3 -103.166 -9 -149.499s-17.333 -86.833 -34 -121.5s-39.667 -62 -69 -82s-67.333 -30 -114 -30c-62.667 0 -110.167 14 -142.5 42
s-48.5 71.333 -48.5 130h114z" />
    <glyph glyph-name="colon" unicode=":" horiz-adv-x="240" 
d="M63 132h114v-132h-114v132zM63 512h114v-132h-114v132z" />
    <glyph glyph-name="semicolon" unicode=";" horiz-adv-x="240" 
d="M63 512h114v-132h-114v132zM63 132h114v-132c0 -40 -8 -73.5 -24 -100.5s-46 -44.833 -90 -53.5v58c15.333 4 27.5 13 36.5 27s13.5 32 13.5 54v15h-50v132z" />
    <glyph glyph-name="less" unicode="&#x3c;" horiz-adv-x="600" 
d="M47 290l506 226v-86l-404 -177l404 -177v-86l-506 226v74z" />
    <glyph glyph-name="equal" unicode="=" horiz-adv-x="600" 
d="M47 192h506v-86h-506v86zM47 400h506v-86h-506v86z" />
    <glyph glyph-name="greater" unicode="&#x3e;" horiz-adv-x="600" 
d="M553 216l-506 -226v86l404 177l-404 177v86l506 -226v-74z" />
    <glyph glyph-name="question" unicode="?" horiz-adv-x="463" 
d="M162 114h114v-114h-114v114zM169 252c0 24 3.50195 44.334 10.502 61.001s16 31.5 27 44.5s22.667 25.167 35 36.5s24 23.5 35 36.5s20 27.833 27 44.5s10.5 37 10.5 61c0 14 -1.33301 27.333 -4 40s-7.16699 24 -13.5 34s-14.666 17.833 -24.999 23.5
s-23.166 8.5 -38.499 8.5c-34 0 -57.5 -13 -70.5 -39s-19.5 -60 -19.5 -102h-108c0 31.333 3.5 60.833 10.5 88.5s18.333 51.667 34 72s36 36.5 61 48.5s55.5 18 91.5 18c62.667 0 111 -16.333 145 -49s51 -80.334 51 -143.001c0 -28.667 -3.83301 -53.5 -11.5 -74.5
s-17.334 -39.833 -29.001 -56.5s-24.334 -31.667 -38.001 -45s-26.334 -26.5 -38.001 -39.5s-21.334 -26.333 -29.001 -40s-11.5 -29.167 -11.5 -46.5v-42h-102v60z" />
    <glyph glyph-name="at" unicode="@" horiz-adv-x="800" 
d="M610 549l-75.0029 -269.998c-2 -8 -4.33301 -16.333 -7 -25s-4 -16.667 -4 -24s2.16699 -12.833 6.5 -16.5s13.166 -5.5 26.499 -5.5c14 0 28.333 5.33301 43 16s27.834 25.167 39.501 43.5s21.334 39.666 29.001 63.999s11.5 50.5 11.5 78.5
c0 35.333 -7.16699 67.666 -21.5 96.999s-33.666 54.5 -57.999 75.5s-52.5 37.167 -84.5 48.5s-65.333 17 -100 17c-43.333 0 -83.166 -8 -119.499 -24s-67.5 -37.5 -93.5 -64.5s-46.333 -58.333 -61 -94s-22 -72.834 -22 -111.501c0 -44 7.83301 -83.667 23.5 -119
s36.667 -65.5 63 -90.5s57 -44.333 92 -58s71.5 -20.5 109.5 -20.5c54 0 101.667 7.66699 143 23s76 37 104 65h84c-13.333 -24 -30.5 -46.333 -51.5 -67s-45.333 -38.5 -73 -53.5s-58.834 -26.667 -93.501 -35s-72.334 -12.5 -113.001 -12.5
c-53.333 0 -103 8.33301 -149 25s-86 41 -120 73s-60.833 71 -80.5 117s-29.5 98.333 -29.5 157c0 52 9.33301 100.5 28 145.5s44.834 84.167 78.501 117.5s74.334 59.5 122.001 78.5s100.5 28.5 158.5 28.5c50.667 0 97.667 -7.33301 141 -22s80.833 -35.5 112.5 -62.5
s56.5 -59.167 74.5 -96.5s27 -78.666 27 -123.999c0 -50 -8.66699 -93 -26 -129s-38.833 -65.667 -64.5 -89s-53.334 -40.5 -83.001 -51.5s-56.5 -16.5 -80.5 -16.5c-25.333 0 -43.5 5.5 -54.5 16.5s-16.167 25.167 -15.5 42.5h-2c-14 -15.333 -31.5 -29 -52.5 -41
s-44.833 -18 -71.5 -18c-19.333 0 -37.5 3.83301 -54.5 11.5s-31.667 18.5 -44 32.5s-22.166 31 -29.499 51s-11 42.333 -11 67c0 35.333 6.16699 69.166 18.5 101.499s28.833 60.833 49.5 85.5s44.334 44.334 71.001 59.001s54.667 22 84 22
c24.667 0 46.667 -6.16699 66 -18.5s35.666 -31.833 48.999 -58.5l19 59h71zM489.997 397.002c0 34 -7.16992 58.498 -21.5029 73.498s-34.166 22.5 -59.499 22.5c-20.667 0 -39.667 -5.66699 -57 -17s-32.166 -25.833 -44.499 -43.5s-22 -37.167 -29 -58.5
s-10.5 -42 -10.5 -62c0 -30.667 7.5 -55.167 22.5 -73.5s38.5 -27.5 70.5 -27.5c17.333 0 33.833 6.33301 49.5 19s29.334 28.334 41.001 47.001s21 38.834 28 60.501s10.5 41.5 10.5 59.5z" />
    <glyph glyph-name="A" unicode="A" horiz-adv-x="519" 
d="M194 714h146l188 -714h-119l-44 175h-209l-46 -175h-119zM346 266l-82 352h-2l-85 -352h169z" />
    <glyph glyph-name="B" unicode="B" horiz-adv-x="537" 
d="M59 714h231c26.667 0 51.667 -3.16699 75 -9.5s43.666 -16.333 60.999 -30s31 -31.5 41 -53.5s15 -48.667 15 -80c0 -86 -35 -140 -105 -162v-2c19.333 -3.33301 37 -9 53 -17s29.5 -19.167 40.5 -33.5s19.5 -32.333 25.5 -54s9 -47.5 9 -77.5s-5.16699 -57 -15.5 -81
s-25 -44.5 -44 -61.5s-42.167 -30 -69.5 -39s-57.666 -13.5 -90.999 -13.5h-226v714zM286 86c34 0 60 10.5 78 31.5s27 52.5 27 94.5c0 38.667 -10.167 68.5 -30.5 89.5s-47.5 31.5 -81.5 31.5h-106v-247h113zM263 413c34.667 0 60.833 10.335 78.5 31.002s26.5 48 26.5 82
c0 21.333 -3 38.666 -9 51.999s-14.167 23.666 -24.5 30.999s-22.5 12.333 -36.5 15s-29 4 -45 4h-80v-215h90z" />
    <glyph glyph-name="C" unicode="C" horiz-adv-x="519" 
d="M498 256l0.00195312 -15.0029c0 -32 -3.66699 -63.333 -11 -94s-19.5 -58 -36.5 -82s-39.5 -43.167 -67.5 -57.5s-63 -21.5 -105 -21.5c-45.333 0 -83 7.33301 -113 22s-54.167 37.334 -72.5 68.001s-31.333 69.167 -39 115.5s-11.5 101.5 -11.5 165.5
s3.83301 119.167 11.5 165.5s20.667 84.833 39 115.5s42.666 53.334 72.999 68.001s68.166 22 113.499 22c50.667 0 90.334 -8.16699 119.001 -24.5s50.167 -36.166 64.5 -59.499s23.166 -47.833 26.499 -73.5s5 -47.834 5 -66.501v-13h-114v12
c0 16.667 -1.5 33.5 -4.5 50.5s-8.33301 32.167 -16 45.5s-18 24 -31 32s-29.833 11.667 -50.5 11c-21.333 0 -39.666 -3.83301 -54.999 -11.5s-28 -22 -38 -43s-17.333 -49.833 -22 -86.5s-7 -83.667 -7 -141s2.33301 -104.666 7 -141.999s12 -66.833 22 -88.5
s22.667 -36.667 38 -45s33.666 -12.5 54.999 -12.5c24 0 43 5.83301 57 17.5s24.667 26.167 32 43.5s12 36 14 56s3 38.333 3 55v12h114z" />
    <glyph glyph-name="D" unicode="D" horiz-adv-x="556" 
d="M59 714l203 0.00390625c56 0 100.667 -8.66699 134 -26s58.666 -41.833 75.999 -73.5s28.666 -69.334 33.999 -113.001s8 -91.834 8 -144.501s-2.66699 -100.834 -8 -144.501s-16.666 -81.334 -33.999 -113.001s-42.666 -56.167 -75.999 -73.5s-78 -26 -134 -26h-203v714
zM173 86.0039h94c23.333 0 43.5 4.33301 60.5 13s30.833 23.334 41.5 44.001s18.5 48.5 23.5 83.5s7.5 78.5 7.5 130.5c0 50 -2.33301 92.333 -7 127s-12.167 62.667 -22.5 84s-24 36.666 -41 45.999s-37.833 14 -62.5 14h-94v-542z" />
    <glyph glyph-name="E" unicode="E" horiz-adv-x="481" 
d="M59 714h386v-96h-272v-198h256v-96h-256v-228h280v-96h-394v714z" />
    <glyph glyph-name="F" unicode="F" horiz-adv-x="463" 
d="M59 714h381v-96h-267v-198h251v-96h-251v-324h-114v714z" />
    <glyph glyph-name="G" unicode="G" horiz-adv-x="537" 
d="M412 83h-2.00293c-15.333 -34 -34.666 -58.667 -57.999 -74s-56 -23 -98 -23c-39.333 0 -72.333 7.33301 -99 22s-48.5 37.334 -65.5 68.001s-29.167 69.167 -36.5 115.5s-11 101.5 -11 165.5c0 127.333 18.833 221 56.5 281s97.834 90 180.501 90
c44.667 0 80.667 -7.66699 108 -23s48.5 -33.833 63.5 -55.5s25 -44.334 30 -68.001s7.5 -43.5 7.5 -59.5v-13h-108v17c0 13.333 -1.5 26.833 -4.5 40.5s-8.33301 26.167 -16 37.5s-18 20.5 -31 27.5s-29.167 10.5 -48.5 10.5c-20 0 -37.833 -4 -53.5 -12
s-28.667 -22.5 -39 -43.5s-18.166 -49.833 -23.499 -86.5s-8 -83.334 -8 -140.001c0 -57.333 2.33301 -104.666 7 -141.999s11.834 -66.833 21.501 -88.5s21.667 -36.667 36 -45s31.166 -12.5 50.499 -12.5c43.333 -0.666992 74 16 92 50s27 90 27 168h-120v86h228v-376h-86
v83z" />
    <glyph glyph-name="H" unicode="H" horiz-adv-x="556" 
d="M59 714h114v-286h210v286h114v-714h-114v332h-210v-332h-114v714z" />
    <glyph glyph-name="I" unicode="I" 
d="M54 714h114v-714h-114v714z" />
    <glyph glyph-name="J" unicode="J" horiz-adv-x="444" 
d="M124 215l-0.00195312 -35c0 -14.667 1 -28.5 3 -41.5s5.66699 -24.5 11 -34.5s13 -17.833 23 -23.5s23 -8.5 39 -8.5c18.667 0 33.167 4 43.5 12s18 18.667 23 32s7.83301 28.5 8.5 45.5s1 34.5 1 52.5v500h114v-517c0 -39.333 -4.66699 -72.5 -14 -99.5
s-22.5 -48.833 -39.5 -65.5s-37.167 -28.5 -60.5 -35.5s-49.333 -10.5 -78 -10.5c-36.667 0 -66.667 5.16699 -90 15.5s-41.666 24 -54.999 41s-22.666 36.5 -27.999 58.5s-8.33301 44.667 -9 68v46h108z" />
    <glyph glyph-name="K" unicode="K" horiz-adv-x="519" 
d="M59 714h114v-311h2l216 311h125l-206 -301l228 -413h-129l-173 321l-63 -90v-231h-114v714z" />
    <glyph glyph-name="L" unicode="L" horiz-adv-x="444" 
d="M46 714h114v-618h276v-96h-390v714z" />
    <glyph glyph-name="M" unicode="M" horiz-adv-x="722" 
d="M59 714h178l126 -529h2l124 529h174v-714h-108v594h-2l-144 -594h-96l-144 594h-2v-594h-108v714z" />
    <glyph glyph-name="N" unicode="N" horiz-adv-x="574" 
d="M59 714h139l207 -532h2v532h108v-714h-139l-207 546h-2v-546h-108v714z" />
    <glyph glyph-name="O" unicode="O" horiz-adv-x="556" 
d="M278 72c16.667 0 32.5 3.5 47.5 10.5s28 20.833 39 41.5s19.667 49.834 26 87.501s9.5 87.167 9.5 148.5c0 60 -3.16699 108.5 -9.5 145.5s-15 65.5 -26 85.5s-24 33.5 -39 40.5s-30.833 10.5 -47.5 10.5c-17.333 0 -33.333 -3.5 -48 -10.5s-27.5 -20.5 -38.5 -40.5
s-19.667 -48.5 -26 -85.5s-9.5 -85.5 -9.5 -145.5c0 -61.333 3.16699 -110.833 9.5 -148.5s15 -66.834 26 -87.501s23.833 -34.5 38.5 -41.5s30.667 -10.5 48 -10.5zM278 -14c-82 0 -141.833 30 -179.5 90s-56.5 153.667 -56.5 281s18.833 221 56.5 281s97.5 90 179.5 90
s141.833 -30 179.5 -90s56.5 -153.667 56.5 -281s-18.833 -221 -56.5 -281s-97.5 -90 -179.5 -90z" />
    <glyph glyph-name="P" unicode="P" horiz-adv-x="500" 
d="M59 714l226 -0.00195312c34 0 63.5 -5.16699 88.5 -15.5s45.5 -24.666 61.5 -42.999s27.833 -40.166 35.5 -65.499s11.5 -53.333 11.5 -84c0 -64 -18.167 -115.167 -54.5 -153.5s-87.833 -57.5 -154.5 -57.5h-100v-295h-114v714zM173 380.998l80.999 -0.00195312
c15.333 0 29.833 2.16699 43.5 6.5s25.834 11.333 36.501 21s19 22.334 25 38.001s9 34.834 9 57.501c0 38.667 -9 69 -27 91s-49.667 33 -95 33h-73v-247z" />
    <glyph glyph-name="Q" unicode="Q" horiz-adv-x="556" 
d="M330 197l46.999 -46.999c15.333 49.333 23 119.333 23 210c0 60 -3.16699 108.5 -9.5 145.5s-15 65.5 -26 85.5s-24 33.5 -39 40.5s-30.833 10.5 -47.5 10.5c-17.333 0 -33.333 -3.5 -48 -10.5s-27.5 -20.5 -38.5 -40.5s-19.667 -48.5 -26 -85.5s-9.5 -85.5 -9.5 -145.5
c0 -61.333 3.16699 -110.833 9.5 -148.5s15 -66.834 26 -87.501s23.833 -34.5 38.5 -41.5s30.667 -10.5 48 -10.5c18.667 0 32.334 2.33301 41.001 7l-54 53zM389.999 10.001c-14.667 -8.66699 -31.332 -14.833 -49.999 -18.5s-39.334 -5.5 -62.001 -5.5
c-82 0 -141.833 30 -179.5 90s-56.5 153.667 -56.5 281s18.833 221 56.5 281s97.5 90 179.5 90s141.833 -30 179.5 -90s56.5 -153.667 56.5 -281c0 -66.667 -5.33301 -124 -16 -172s-24 -85 -40 -111l73 -77l-68 -61z" />
    <glyph glyph-name="R" unicode="R" horiz-adv-x="537" 
d="M264 396c36.667 0 64.833 10.333 84.5 31s29.5 49 29.5 85c0 38 -8.5 66.833 -25.5 86.5s-44.5 29.5 -82.5 29.5h-97v-232h91zM58.999 714l252.002 -0.00390625c24.667 0 48 -3.33301 70 -10s41.333 -17.334 58 -32.001s29.667 -33.667 39 -57s14 -51.666 14 -84.999
c0 -46 -9.83301 -85.167 -29.5 -117.5s-49.5 -51.5 -89.5 -57.5v-2c36 -3.33301 63.167 -16 81.5 -38s28.5 -58 30.5 -108c0.666992 -23.333 1.16699 -48 1.5 -74s1.16602 -49.667 2.49902 -71c1.33301 -17.333 5.5 -30.666 12.5 -39.999s14.167 -16.666 21.5 -21.999h-129
c-5.33301 6.66699 -9.5 15.334 -12.5 26.001s-5.16699 23 -6.5 37c-2 20.667 -3 42 -3 64c0 10.667 -0.166992 21.834 -0.5 33.501s-0.833008 24.167 -1.5 37.5c-1.33301 40 -9.33301 68.667 -24 86s-41.334 26 -80.001 26h-93v-310h-114v714z" />
    <glyph glyph-name="S" unicode="S" horiz-adv-x="519" 
d="M147 221l0.000976562 -17.9971c0 -87.333 39 -131 117 -131c18 0 33.667 3 47 9s24.5 13.833 33.5 23.5s15.833 20.667 20.5 33s7 25.166 7 38.499c0 37.333 -9 65.5 -27 84.5s-43 33.167 -75 42.5l-78 27c-26 10 -48.333 21 -67 33s-34.167 25.833 -46.5 41.5
s-21.333 33.5 -27 53.5s-8.5 42.667 -8.5 68c0 32.667 5.33301 61.5 16 86.5s25.667 46 45 63s42.666 30 69.999 39s57.666 13.5 90.999 13.5c46 0 82.333 -6.33301 109 -19s46.834 -28.5 60.501 -47.5s22.5 -39.333 26.5 -61s6 -41.834 6 -60.501v-16h-114v15
c0 32.667 -7.66699 58 -23 76s-41 27 -77 27c-12 0 -23.833 -1.83301 -35.5 -5.5s-22 -9.5 -31 -17.5s-16.167 -18.667 -21.5 -32s-8 -29.333 -8 -48c0 -30.667 8.33301 -54.834 25 -72.501s44 -33.834 82 -48.501l77 -28c50.667 -18 87.5 -41.667 110.5 -71
s34.5 -68.666 34.5 -117.999c0 -38 -5.5 -70.5 -16.5 -97.5s-26.833 -49.333 -47.5 -67s-45.5 -30.5 -74.5 -38.5s-61.5 -12 -97.5 -12c-44 0 -80.167 6.66699 -108.5 20s-50.5 30.5 -66.5 51.5s-27 44.333 -33 70s-9 51.167 -9 76.5v17h114z" />
    <glyph glyph-name="T" unicode="T" horiz-adv-x="463" 
d="M176 618h-170v96h451v-96h-167v-618h-114v618z" />
    <glyph glyph-name="U" unicode="U" horiz-adv-x="537" 
d="M164 714l-0.000976562 -512c0 -46 8.83301 -79.167 26.5 -99.5s43.834 -30.5 78.501 -30.5c34 0 59.833 10.167 77.5 30.5s26.5 53.5 26.5 99.5v512h114v-503c0 -41.333 -5 -76.333 -15 -105s-24.333 -51.834 -43 -69.501s-41.5 -30.5 -68.5 -38.5s-57.5 -12 -91.5 -12
s-64.667 4 -92 12s-50.333 20.833 -69 38.5s-33 40.834 -43 69.501s-15 63.667 -15 105v503h114z" />
    <glyph glyph-name="V" unicode="V" horiz-adv-x="481" 
d="M-6 714h121l121 -570h2l128 570h121l-180 -714h-145z" />
    <glyph glyph-name="W" unicode="W" horiz-adv-x="741" 
d="M6 714h115l94 -555h2l94 555h120l96 -558h2l93 558h113l-142 -714h-132l-92 538h-2l-91 -538h-132z" />
    <glyph glyph-name="X" unicode="X" horiz-adv-x="500" 
d="M188 363l-172 351h126l114 -237l112 237h123l-173 -351l182 -363h-126l-124 258l-127 -258h-123z" />
    <glyph glyph-name="Y" unicode="Y" horiz-adv-x="481" 
d="M180 279l-184 435h127l120 -308l123 308h119l-191 -435v-279h-114v279z" />
    <glyph glyph-name="Z" unicode="Z" horiz-adv-x="463" 
d="M18 90l299 528h-281v96h406v-96l-299 -522h302v-96h-427v90z" />
    <glyph glyph-name="bracketleft" unicode="[" horiz-adv-x="278" 
d="M77 714h203v-80h-101v-738h101v-80h-203v898z" />
    <glyph glyph-name="backslash" unicode="\" horiz-adv-x="296" 
d="M-10 728h89l227 -742h-89z" />
    <glyph glyph-name="bracketright" unicode="]" horiz-adv-x="278" 
d="M-2 -104h101v738h-101v80h203v-898h-203v80z" />
    <glyph glyph-name="asciicircum" unicode="^" horiz-adv-x="600" 
d="M300 608l-157 -328h-86l204 414h76l206 -414h-86z" />
    <glyph glyph-name="underscore" unicode="_" horiz-adv-x="500" 
d="M0 -75h500v-50h-500v50z" />
    <glyph glyph-name="grave" unicode="`" 
d="M-14 752h120l60 -144h-74z" />
    <glyph glyph-name="a" unicode="a" horiz-adv-x="463" 
d="M303 284c-7.33301 -5.33301 -16.167 -10.167 -26.5 -14.5s-21 -8.5 -32 -12.5l-33 -11.5c-11 -3.66699 -20.5 -7.5 -28.5 -11.5c-15.333 -7.33301 -26.5 -18.666 -33.5 -33.999s-10.5 -33 -10.5 -53c0 -22.667 5.5 -41.834 16.5 -57.501s27.833 -23.5 50.5 -23.5
c32.667 0 57 11.333 73 34s24 54 24 94v90zM404.999 111.999c0 -10 2.66895 -18.832 8.00195 -26.499s12 -11.5 20 -11.5s14 1 18 3v-70c-6.66699 -3.33301 -14.5 -6.33301 -23.5 -9s-18.833 -4 -29.5 -4c-24 0 -44.833 5.33301 -62.5 16s-27.167 29 -28.5 55h-2
c-14.667 -26.667 -32.667 -46.5 -54 -59.5s-48 -19.5 -80 -19.5c-44 0 -78.333 12.167 -103 36.5s-37 62.5 -37 114.5c0 30 3.16699 54.5 9.5 73.5s15 34.667 26 47s24.167 22 39.5 29s32 13.5 50 19.5l84 23c19.333 5.33301 34.666 12.333 45.999 21s17 24.667 17 48
c0 24.667 -5.16699 44.167 -15.5 58.5s-29.833 21.5 -58.5 21.5c-18 0 -32.333 -3 -43 -9s-19 -13.667 -25 -23s-9.83301 -20.333 -11.5 -33s-2.5 -25.334 -2.5 -38.001h-102c0 28.667 3.16699 54 9.5 76s16.833 40.5 31.5 55.5s34.167 26.333 58.5 34
s54.166 11.5 89.499 11.5c24 0 46.333 -2.5 67 -7.5s38.667 -12.667 54 -23s27.5 -23.833 36.5 -40.5s13.5 -37 13.5 -61v-308z" />
    <glyph glyph-name="b" unicode="b" horiz-adv-x="481" 
d="M154 263c0 -29.333 1.33105 -55.666 3.99805 -78.999s7.33398 -43.333 14.001 -60s15.834 -29.5 27.501 -38.5s26.834 -13.5 45.501 -13.5s34 4.66699 46 14s21.333 22.666 28 39.999s11.167 38.166 13.5 62.499s3.5 51.833 3.5 82.5c0 36 -1.5 66.5 -4.5 91.5
s-7.83301 45.167 -14.5 60.5s-15.334 26.333 -26.001 33s-23.667 10 -39 10c-21.333 0 -38.333 -4.5 -51 -13.5s-22.5 -22.167 -29.5 -39.5s-11.667 -38.666 -14 -63.999s-3.5 -54 -3.5 -86zM51.998 714h107.996v-239h2c10 24 25.333 42.833 46 56.5s46 20.5 76 20.5
c20.667 0 40.834 -3.16699 60.501 -9.5s37.334 -19.333 53.001 -39s28.334 -47.5 38.001 -83.5s14.5 -84 14.5 -144c0 -92.667 -13.667 -164.167 -41 -214.5s-72.333 -75.5 -135 -75.5c-19.333 0 -35.666 2.5 -48.999 7.5s-24.5 11.5 -33.5 19.5s-16.333 16.667 -22 26
s-10.167 18.333 -13.5 27h-2v-66h-102v714z" />
    <glyph glyph-name="c" unicode="c" horiz-adv-x="444" 
d="M415 196c-2 -32 -6.5 -60.999 -13.5 -86.999s-17.5 -48.167 -31.5 -66.5s-32.333 -32.333 -55 -42s-50.667 -14.5 -84 -14.5c-39.333 0 -71.833 6.83301 -97.5 20.5s-46 33 -61 58s-25.667 54.833 -32 89.5s-9.5 73 -9.5 115s3.16699 80.333 9.5 115s17 64.5 32 89.5
s35.333 44.333 61 58s58.167 20.5 97.5 20.5c40 0.666992 72.167 -5.83301 96.5 -19.5s43 -30.5 56 -50.5s21.667 -41.333 26 -64s6.5 -42.334 6.5 -59.001h-108c0 12.667 -1 25.834 -3 39.501s-5.83301 26 -11.5 37s-13.5 20 -23.5 27s-23 10.167 -39 9.5
c-19.333 0 -35 -5 -47 -15s-21.333 -24 -28 -42s-11.167 -39.333 -13.5 -64s-3.5 -52 -3.5 -82s1.16699 -57.333 3.5 -82s6.83301 -46 13.5 -64s16 -32 28 -42s27.667 -15 47 -15c30 -0.666992 51.167 10.666 63.5 33.999s18.5 55.333 18.5 96h102z" />
    <glyph glyph-name="d" unicode="d" horiz-adv-x="481" 
d="M327 263c0 32 -1.16992 60.667 -3.50293 86s-7 46.666 -14 63.999s-17 30.5 -30 39.5s-29.833 13.5 -50.5 13.5c-15.333 0 -28.333 -3.33301 -39 -10s-19.334 -17.667 -26.001 -33s-11.5 -35.5 -14.5 -60.5s-4.5 -55.5 -4.5 -91.5c0 -30.667 1.16699 -58.167 3.5 -82.5
s6.83301 -45.166 13.5 -62.499s15.834 -30.666 27.501 -39.999s27.167 -14 46.5 -14c18.667 0 33.834 4.5 45.501 13.5s20.834 21.833 27.501 38.5s11.334 36.667 14.001 60s4 49.666 4 78.999zM326.997 66h-2.00195c-3.33301 -8.66699 -7.83301 -17.667 -13.5 -27
s-13 -18 -22 -26s-20.333 -14.5 -34 -19.5s-29.834 -7.5 -48.501 -7.5c-62.667 0 -107.667 25.333 -135 76s-41 122 -41 214c0 60 4.83301 108 14.5 144s22.334 63.833 38.001 83.5s33.334 32.667 53.001 39s39.834 9.5 60.501 9.5c30 0 55.333 -6.83301 76 -20.5
s36 -32.5 46 -56.5h2v239h108v-714h-102v66z" />
    <glyph glyph-name="e" unicode="e" horiz-adv-x="463" 
d="M318 329l-0.000976562 29c0 34 -6.16699 62.5 -18.5 85.5s-33.833 34.5 -64.5 34.5c-17.333 0 -31.666 -3.83301 -42.999 -11.5s-20.5 -18 -27.5 -31s-12 -27.833 -15 -44.5s-4.5 -33.667 -4.5 -51v-11h173zM144.999 255l0.00195312 -31.001
c0 -18 0.833008 -36.667 2.5 -56s5.66699 -37 12 -53s15.5 -29.167 27.5 -39.5s28 -15.5 48 -15.5c19.333 0 34.666 4.66699 45.999 14s20 20.5 26 33.5s9.83301 26.333 11.5 40s2.5 24.5 2.5 32.5h102c0 -60.667 -16.833 -108.167 -50.5 -142.5
s-79.834 -51.5 -138.501 -51.5c-22 0 -44.667 2.66699 -68 8s-44.5 17.333 -63.5 36s-34.667 46.334 -47 83.001s-18.5 86 -18.5 148c0 35.333 2.5 70.333 7.5 105s14.667 65.834 29 93.501s34.5 50 60.5 67s60 25.5 102 25.5c37.333 0 68.333 -5.5 93 -16.5
s44.167 -26.833 58.5 -47.5s24.333 -45.834 30 -75.501s8.5 -63.167 8.5 -100.5v-57h-281z" />
    <glyph glyph-name="f" unicode="f" horiz-adv-x="278" 
d="M85 458h-75v80h75v50c0 50.667 11.833 85.667 35.5 105s57.5 29 101.5 29c23.333 0 43 -1 59 -3v-83h-30c-20 0 -34.667 -4 -44 -12s-14 -21 -14 -39v-47h88v-80h-88v-458h-108v458z" />
    <glyph glyph-name="g" unicode="g" horiz-adv-x="481" 
d="M152 286c0 -23.333 0.667969 -46.501 2.00098 -69.501s4.66602 -44 9.99902 -63s13.666 -34.333 24.999 -46s27 -17.5 47 -17.5c20.667 0 37.167 6 49.5 18s21.833 27.167 28.5 45.5s10.834 38.833 12.501 61.5s2.5 44.667 2.5 66c0 22 -1 44 -3 66s-6 41.833 -12 59.5
s-14.667 32 -26 43s-26.333 16.5 -45 16.5c-19.333 0 -35 -4.66699 -47 -14s-21.333 -22.166 -28 -38.499s-11 -35.5 -13 -57.5s-3 -45.333 -3 -70zM160.001 -46.001c0 -16.667 6.99902 -31.499 20.999 -44.499s33 -19.5 57 -19.5c28 0 50.167 8.83301 66.5 26.5
s24.5 42.5 24.5 74.5v87h-2c-10 -23.333 -26.333 -41.5 -49 -54.5s-47 -19.5 -73 -19.5c-31.333 0 -57.333 7.16699 -78 21.5s-37.167 33.833 -49.5 58.5s-21 53.334 -26 86.001s-7.5 67.667 -7.5 105c0 29.333 1.66699 60.333 5 93s11 62.667 23 90s29.333 49.833 52 67.5
s53 26.5 91 26.5c16 0 30.667 -2.33301 44 -7s25 -10.834 35 -18.501s18.333 -16.167 25 -25.5s11.334 -19 14.001 -29h2v66h102v-512c0 -32.667 -3.66699 -62 -11 -88s-19 -48 -35 -66s-36.833 -31.833 -62.5 -41.5s-56.5 -14.5 -92.5 -14.5
c-40 0 -71.833 5.16699 -95.5 15.5s-41.5 22.666 -53.5 36.999s-19.833 29.333 -23.5 45s-5.5 29.167 -5.5 40.5h102z" />
    <glyph glyph-name="h" unicode="h" horiz-adv-x="481" 
d="M52 714h108.001v-234l3 -2c15.333 23.333 34.166 41.5 56.499 54.5s47.5 19.5 75.5 19.5c20.667 0 39.167 -2.5 55.5 -7.5s30.333 -13.167 42 -24.5s20.667 -26.333 27 -45s9.5 -41.667 9.5 -69v-406h-108v369c0 36 -5.5 61.167 -16.5 75.5s-30.5 21.5 -58.5 21.5
c-22 0 -41.833 -8.5 -59.5 -25.5s-26.5 -43.5 -26.5 -79.5v-361h-108v714z" />
    <glyph glyph-name="i" unicode="i" 
d="M57 722h108v-108h-108v108zM57 538h108v-538h-108v538z" />
    <glyph glyph-name="j" unicode="j" 
d="M165 722v-108h-108v108h108zM165 538v-573c0 -56 -11.833 -94.833 -35.5 -116.5s-59.167 -32.5 -106.5 -32.5c-15.333 0 -31 1 -47 3v83h25c20.667 0 35.167 5 43.5 15s12.5 29.333 12.5 58v563h108z" />
    <glyph glyph-name="k" unicode="k" horiz-adv-x="463" 
d="M52 714h108v-401h2l163 225l125 1l-162 -208l183 -331h-118l-132 245l-61 -74v-171h-108v714z" />
    <glyph glyph-name="l" unicode="l" 
d="M57 714h108v-714h-108v714z" />
    <glyph glyph-name="m" unicode="m" horiz-adv-x="740" 
d="M57 538l102.002 -0.000976562v-63h3c13.333 24 31.833 42.833 55.5 56.5s48.167 20.5 73.5 20.5c19.333 0 36 -2.16699 50 -6.5s25.833 -10.166 35.5 -17.499s17.667 -16 24 -26s11.5 -20.667 15.5 -32c15.333 26 33.666 46.167 54.999 60.5s48.333 21.5 81 21.5
c38 0 69.333 -10.833 94 -32.5s37 -58.5 37 -110.5v-409h-108v369c0 36 -5.33301 61.167 -16 75.5s-27 21.5 -49 21.5s-41.833 -8.5 -59.5 -25.5s-26.5 -43.5 -26.5 -79.5v-361h-108v369c0 36 -5.33301 61.167 -16 75.5s-27.334 21.5 -50.001 21.5
c-22 0 -41.667 -8.5 -59 -25.5s-26 -43.5 -26 -79.5v-361h-108v538z" />
    <glyph glyph-name="n" unicode="n" horiz-adv-x="481" 
d="M52 538h102.001v-63h3c13.333 24 32.166 42.833 56.499 56.5s51.5 20.5 81.5 20.5c20.667 0 39.167 -2.5 55.5 -7.5s30.333 -13.167 42 -24.5s20.667 -26.333 27 -45s9.5 -41.667 9.5 -69v-406h-108v369c0 36 -5.5 61.167 -16.5 75.5s-30.5 21.5 -58.5 21.5
c-22 0 -41.833 -8.5 -59.5 -25.5s-26.5 -43.5 -26.5 -79.5v-361h-108v538z" />
    <glyph glyph-name="o" unicode="o" horiz-adv-x="463" 
d="M139 269c0 -34 1.16699 -63.833 3.5 -89.5s6.83301 -46.834 13.5 -63.501s16 -29.167 28 -37.5s27.667 -12.5 47 -12.5c20 0 36 4.16699 48 12.5s21.333 20.833 28 37.5s11.167 37.834 13.5 63.501s3.5 55.5 3.5 89.5c0 30 -1.16699 57.333 -3.5 82s-6.83301 46 -13.5 64
s-16 32 -28 42s-28 15 -48 15c-19.333 0 -35 -5 -47 -15s-21.333 -24 -28 -42s-11.167 -39.333 -13.5 -64s-3.5 -52 -3.5 -82zM231 -14c-37.333 0 -68.665 6.83301 -93.998 20.5s-45.833 33 -61.5 58s-27 54.833 -34 89.5s-10.5 73 -10.5 115s3.16699 80.333 9.5 115
s17 64.5 32 89.5s35.333 44.333 61 58s58.167 20.5 97.5 20.5c38.667 0 71 -6.83301 97 -20.5s46.667 -33 62 -58s26.166 -54.833 32.499 -89.5s9.5 -73 9.5 -115s-3.5 -80.333 -10.5 -115s-18.333 -64.5 -34 -89.5s-36.334 -44.333 -62.001 -58s-57.167 -20.5 -94.5 -20.5z
" />
    <glyph glyph-name="p" unicode="p" horiz-adv-x="481" 
d="M336 267c0 30.667 -1.16211 58.1699 -3.49512 82.5029s-6.83301 45.166 -13.5 62.499s-16 30.666 -28 39.999s-27.333 14 -46 14s-33.834 -4.5 -45.501 -13.5s-20.834 -21.833 -27.501 -38.5s-11.334 -36.834 -14.001 -60.501s-4 -49.834 -4 -78.501
c0 -32 1.16699 -60.667 3.5 -86s7 -46.666 14 -63.999s16.333 -30.5 28 -39.5s27.167 -13.5 46.5 -13.5c15.333 0 28.666 3.16699 39.999 9.5s20.666 17 27.999 32s12.833 35 16.5 60s5.5 56.167 5.5 93.5zM450.005 262.003c0 -56.667 -5.16602 -102.833 -15.499 -138.5
s-23.5 -63.667 -39.5 -84s-33.833 -34.333 -53.5 -42s-38.834 -11.5 -57.501 -11.5c-30 0 -55.333 6.83301 -76 20.5s-36 32.5 -46 56.5h-2v-239h-108v714h102v-66h2c11.333 24 26.833 43.333 46.5 58s44.5 22 74.5 22c61.333 0 105.5 -25.167 132.5 -75.5
s40.5 -121.833 40.5 -214.5z" />
    <glyph glyph-name="q" unicode="q" horiz-adv-x="481" 
d="M327 275c0 28.667 -1.3291 54.8311 -3.99609 78.498s-7.33398 43.834 -14.001 60.501s-15.834 29.5 -27.501 38.5s-26.834 13.5 -45.501 13.5c-19.333 0 -34.833 -4.66699 -46.5 -14s-20.834 -22.666 -27.501 -39.999s-11.167 -38.166 -13.5 -62.499
s-3.5 -51.833 -3.5 -82.5c0 -36 1.83301 -66.5 5.5 -91.5s9 -45.167 16 -60.5s15.667 -26.333 26 -33s22.5 -10 36.5 -10c20.667 0 37.5 4.5 50.5 13.5s23 22.167 30 39.5s11.667 38.666 14 63.999s3.5 54 3.5 86zM321.004 62.9971h-2.00195
c-10 -24 -25.5 -42.833 -46.5 -56.5s-46.5 -20.5 -76.5 -20.5c-21.333 0 -41.833 4.16699 -61.5 12.5s-37.167 23 -52.5 44s-27.666 49.167 -36.999 84.5s-14 80.333 -14 135c0 92 13.667 163.333 41 214s72.333 76 135 76c18.667 0 34.834 -2.5 48.501 -7.5
s25 -11.5 34 -19.5s16.333 -16.667 22 -26s10.167 -18.333 13.5 -27h2v66h102v-714h-108v239z" />
    <glyph glyph-name="r" unicode="r" horiz-adv-x="315" 
d="M52 538l107.998 0.000976562v-84h2c12 30 28.167 53.833 48.5 71.5s45.833 26.5 76.5 26.5c12.667 0 21.334 -1.33301 26.001 -4v-110c-4 1.33301 -10.167 2.66602 -18.5 3.99902s-17.166 2 -26.499 2c-12 0 -24.5 -1.66699 -37.5 -5s-24.667 -9.5 -35 -18.5
s-18.833 -21.5 -25.5 -37.5s-10 -36.333 -10 -61v-322h-108v538z" />
    <glyph glyph-name="s" unicode="s" horiz-adv-x="426" 
d="M284 381l0.00292969 14.002c0 10.667 -1 21 -3 31s-5.83301 18.833 -11.5 26.5s-13 13.834 -22 18.501s-20.5 7 -34.5 7c-21.333 0 -39.5 -5.33301 -54.5 -16s-22.5 -28.667 -22.5 -54c0 -21.333 5.5 -37.333 16.5 -48s30.833 -21 59.5 -31l69 -24
c40 -13.333 69.5 -31.833 88.5 -55.5s28.5 -56.834 28.5 -99.501c0 -28.667 -5 -53.334 -15 -74.001s-23.667 -37.667 -41 -51s-37.833 -23.166 -61.5 -29.499s-48.834 -9.5 -75.501 -9.5c-34 0 -62.333 3.83301 -85 11.5s-40.834 18.667 -54.501 33
s-23.334 31.833 -29.001 52.5s-8.5 44 -8.5 70v20h96v-17c0 -32 6 -56 18 -72s34 -24 66 -24c30 0 52.167 7 66.5 21s21.5 33.333 21.5 58c0 39.333 -19.667 65.666 -59 78.999l-88 31c-40.667 13.333 -70 31.666 -88 54.999s-27 56.666 -27 99.999
c0 50.667 16.5 88 49.5 112s77.833 36 134.5 36c34 0 62 -4.5 84 -13.5s39.167 -20.667 51.5 -35s20.833 -30.166 25.5 -47.499s7 -34.333 7 -51v-24h-102z" />
    <glyph glyph-name="t" unicode="t" horiz-adv-x="278" 
d="M4 538h74v153h108v-153h88v-80h-88v-321c0 -21.333 3.5 -36.166 10.5 -44.499s19.833 -12.5 38.5 -12.5c16 0 29 1 39 3v-80c-23.333 -6 -52.333 -9 -87 -9c-18 0 -33.833 1.66699 -47.5 5s-25 9.66602 -34 18.999s-15.833 22.5 -20.5 39.5s-7 39.167 -7 66.5v334h-74v80
z" />
    <glyph glyph-name="u" unicode="u" horiz-adv-x="481" 
d="M327 63h-3.00098c-13.333 -24 -32.166 -42.833 -56.499 -56.5s-51.5 -20.5 -81.5 -20.5c-20 0 -38.167 2.66699 -54.5 8s-30.5 14.666 -42.5 27.999s-21.167 31.333 -27.5 54s-9.5 51.334 -9.5 86.001v376h108v-386c0 -30 6.33301 -50.833 19 -62.5
s30.667 -17.5 54 -17.5s43.833 7.5 61.5 22.5s26.5 37.5 26.5 67.5v376h108v-538h-102v63z" />
    <glyph glyph-name="v" unicode="v" horiz-adv-x="426" 
d="M7 538h116l94 -424h2l85 424h115l-142 -538h-126z" />
    <glyph glyph-name="w" unicode="w" horiz-adv-x="685" 
d="M15 538h112l75 -424h2l80 424h122l80 -424h2l74 424h108l-123 -538h-121l-84 418h-2l-77 -418h-126z" />
    <glyph glyph-name="x" unicode="x" horiz-adv-x="426" 
d="M150 279l-139 259h118l84 -178l88 178h116l-140 -259l146 -279h-117l-94 199l-94 -199h-115z" />
    <glyph glyph-name="y" unicode="y" horiz-adv-x="426" 
d="M124 538l92.999 -403.999h2l86 404h113l-148 -558c-10.667 -36.667 -21.167 -66 -31.5 -88s-22.5 -38.833 -36.5 -50.5s-30.5 -19 -49.5 -22s-42.5 -4.16699 -70.5 -3.5c-7.33301 0 -14.666 0.333008 -21.999 1s-14.333 1.66699 -21 3v86c10 -2.66699 21.667 -4 35 -4
c18.667 0 34 2.66699 46 8s21 16.666 27 33.999l14 44l-153 550h116z" />
    <glyph glyph-name="z" unicode="z" horiz-adv-x="407" 
d="M25 84l235 363h-221v91h343v-89l-226 -358h226v-91h-357v84z" />
    <glyph glyph-name="braceleft" unicode="{" horiz-adv-x="278" 
d="M7 298c10.667 0.666992 20.834 3.83203 30.501 9.49902s18.334 13.167 26.001 22.5s13.667 20 18 32s6.5 24.667 6.5 38v183c0 21.333 3.16699 40.166 9.5 56.499s14.666 30 24.999 41s22.166 19.333 35.499 25s27 8.5 41 8.5h72v-62h-33
c-19.333 0 -32.166 -6.33301 -38.499 -19s-9.5 -29.334 -9.5 -50.001v-183c0 -23.333 -3.66699 -43.166 -11 -59.499s-16 -29.833 -26 -40.5s-20.167 -18.667 -30.5 -24s-18.5 -8.66602 -24.5 -9.99902v-2c6 -1.33301 14.167 -4.66602 24.5 -9.99902s20.5 -13.333 30.5 -24
s18.667 -24.167 26 -40.5s11 -36.166 11 -59.499v-183c0 -20.667 3.16699 -37.334 9.5 -50.001s19.166 -19 38.499 -19h33v-62h-72c-14 0 -27.667 2.83301 -41 8.5s-25.166 14 -35.499 25s-18.666 24.667 -24.999 41s-9.5 35.166 -9.5 56.499v183
c0 13.333 -2.16699 26 -6.5 38s-10.333 22.667 -18 32s-16.334 16.833 -26.001 22.5s-19.834 8.83398 -30.501 9.50098v66z" />
    <glyph glyph-name="bar" unicode="|" 
d="M68 728h86v-742h-86v742z" />
    <glyph glyph-name="braceright" unicode="}" horiz-adv-x="278" 
d="M271 232c-10.667 -0.666992 -20.834 -3.83203 -30.501 -9.49902s-18.334 -13.167 -26.001 -22.5s-13.667 -20 -18 -32s-6.5 -24.667 -6.5 -38v-183c0 -21.333 -3.16699 -40.166 -9.5 -56.499s-14.666 -30 -24.999 -41s-22.166 -19.333 -35.499 -25s-27 -8.5 -41 -8.5h-72
v62h33c19.333 0 32.166 6.33301 38.499 19s9.5 29.334 9.5 50.001v183c0 23.333 3.66699 43.166 11 59.499s16 29.833 26 40.5s20.167 18.667 30.5 24s18.5 8.66602 24.5 9.99902v2c-6 1.33301 -14.167 4.66602 -24.5 9.99902s-20.5 13.333 -30.5 24
s-18.667 24.167 -26 40.5s-11 36.166 -11 59.499v183c0 20.667 -3.16699 37.334 -9.5 50.001s-19.166 19 -38.499 19h-33v62h72c14 0 27.667 -2.83301 41 -8.5s25.166 -14 35.499 -25s18.666 -24.667 24.999 -41s9.5 -35.166 9.5 -56.499v-183
c0 -13.333 2.16699 -26 6.5 -38s10.333 -22.667 18 -32s16.334 -16.833 26.001 -22.5s19.834 -8.83398 30.501 -9.50098v-66z" />
    <glyph glyph-name="asciitilde" unicode="~" horiz-adv-x="600" 
d="M69 245c14.667 28.667 33.167 50.334 55.5 65.001s45.5 22 69.5 22c19.333 0 38.833 -3.83301 58.5 -11.5s38.834 -16.167 57.501 -25.5c19.333 -9.33301 37.333 -17.5 54 -24.5s31 -10.5 43 -10.5c29.333 0 58.666 25.667 87.999 77l36 -76
c-15.333 -26.667 -34 -47.834 -56 -63.501s-45 -23.5 -69 -23.5c-19.333 0 -38.833 3.83301 -58.5 11.5s-38.834 16.167 -57.501 25.5c-19.333 9.33301 -37.333 17.5 -54 24.5s-31 10.5 -43 10.5c-29.333 0 -58.666 -25.667 -87.999 -77z" />
    <glyph glyph-name="uni00A0" unicode="&#xa0;" horiz-adv-x="240" 
 />
    <glyph glyph-name="exclamdown" unicode="&#xa1;" horiz-adv-x="278" 
d="M196 424h-114v114h114v-114zM196 50v-226h-114v226l17 296h80z" />
    <glyph glyph-name="cent" unicode="&#xa2;" horiz-adv-x="480" 
d="M224 -14c-34 2.66699 -62.3359 11.502 -85.0029 26.502s-40.834 35 -54.501 60s-23.167 54.167 -28.5 87.5s-8 69.666 -8 108.999s2.66699 75.666 8 108.999s14.833 62.5 28.5 87.5s31.834 45 54.501 60s51 23.833 85 26.5v75h44v-75c36 -2 64.667 -10.167 86 -24.5
s37.833 -31.333 49.5 -51s19.334 -40.167 23.001 -61.5s5.5 -40 5.5 -56h-108c0 10.667 -0.833008 22.167 -2.5 34.5s-4.5 23.833 -8.5 34.5s-9.66699 20 -17 28s-16.666 13.333 -27.999 16v-406c23.333 6.66699 39.5 21 48.5 43s13.5 51 13.5 87h102
c-2 -30 -6.16699 -57.5 -12.5 -82.5s-15.666 -46.667 -27.999 -65s-28.5 -32.833 -48.5 -43.5s-45 -17 -75 -19v-88h-44v88zM223.997 472.002c-14 -4 -25.5 -11.999 -34.5 -23.999s-16 -26.833 -21 -44.5s-8.33301 -38 -10 -61s-2.5 -47.5 -2.5 -73.5
s0.833008 -50.333 2.5 -73s5 -42.834 10 -60.501s12 -32.5 21 -44.5s20.5 -20.333 34.5 -25v406z" />
    <glyph glyph-name="sterling" unicode="&#xa3;" horiz-adv-x="480" 
d="M18 383l69.0059 0.00195312l-17 35c-22 40.667 -33 77.667 -33 111c0 22 4.16699 43.667 12.5 65s21.166 40.5 38.499 57.5s38.833 30.667 64.5 41s56.167 15.5 91.5 15.5c39.333 0 72.5 -5.5 99.5 -16.5s48.833 -25.5 65.5 -43.5s28.667 -38.667 36 -62
s11 -47.333 11 -72v-12h-108v11c0 10.667 -1.33301 22.667 -4 36s-7.66699 25.833 -15 37.5s-17.333 21.5 -30 29.5s-29.334 12 -50.001 12c-30 0 -53.833 -8 -71.5 -24s-26.5 -36.667 -26.5 -62c0 -18.667 2.83301 -37.334 8.5 -56.001s13.5 -37.667 23.5 -57l23 -46h166
v-68h-140c6.66699 -15.333 10 -35 10 -59c0 -20 -3.33301 -38 -10 -54s-15.5 -31 -26.5 -45s-23.5 -27 -37.5 -39s-28.333 -23.667 -43 -35l2 -4c23.333 15.333 47.666 23 72.999 23c10 0 20.5 -1.5 31.5 -4.5s21.833 -6.5 32.5 -10.5s21.167 -7.5 31.5 -10.5
s20.166 -4.5 29.499 -4.5c12.667 0 25.667 2.83301 39 8.5s25.333 11.5 36 17.5l30 16l38 -79l-20 -12c-20 -12 -39.833 -21.333 -59.5 -28s-42.167 -9.66699 -67.5 -9c-16.667 0 -32.5 2 -47.5 6s-29.5 8.5 -43.5 13.5s-27.833 9.5 -41.5 13.5s-27.5 6 -41.5 6
c-16 0 -32 -3.16699 -48 -9.5s-31.667 -13.5 -47 -21.5l-40 77l18 13c10.667 8 22.167 17.5 34.5 28.5s23.666 23.5 33.999 37.5s18.833 29.167 25.5 45.5s10 34.166 10 53.499c0 13.333 -1.83301 25.333 -5.5 36s-7.83398 20.667 -12.501 30h-98v68z" />
    <glyph glyph-name="currency" unicode="&#xa4;" horiz-adv-x="480" 
d="M240 191c20.667 0 40.167 4 58.5 12s34.333 19 48 33s24.334 30.5 32.001 49.5s11.5 39.5 11.5 61.5s-3.83301 42.5 -11.5 61.5s-18.334 35.5 -32.001 49.5s-29.667 25 -48 33s-37.833 12 -58.5 12c-21.333 0 -41 -4 -59 -12s-33.833 -19 -47.5 -33
s-24.334 -30.5 -32.001 -49.5s-11.5 -39.5 -11.5 -61.5s3.83301 -42.5 11.5 -61.5s18.334 -35.5 32.001 -49.5s29.5 -25 47.5 -33s37.667 -12 59 -12zM57 208c-14.667 19.333 -26.166 40.8291 -34.499 64.4961s-12.5 48.5 -12.5 74.5c0 26.667 4.16699 51.834 12.5 75.501
s19.833 44.834 34.5 63.501l-51 51l45 45l51 -51c19.333 14 40.666 25.167 63.999 33.5s48 12.5 74 12.5s50.667 -4.16699 74 -12.5s44.666 -19.5 63.999 -33.5l51 51l45 -45l-51 -52c14.667 -19.333 26.167 -40.666 34.5 -63.999s12.5 -48 12.5 -74
s-4.16699 -50.667 -12.5 -74s-19.833 -44.666 -34.5 -63.999l51 -52l-45 -45l-52 52c-39.333 -31.333 -85 -47 -137 -47c-26 0 -50.667 4.16699 -74 12.5s-44.666 19.833 -63.999 34.5l-51 -52l-45 45z" />
    <glyph glyph-name="yen" unicode="&#xa5;" horiz-adv-x="480" 
d="M182 162h-141v68h141v47l-10 23h-131v68h101l-140 326h124l114 -284l119 284h119l-147 -326h100v-68h-130l-11 -23v-47h141v-68h-141v-162h-108v162z" />
    <glyph glyph-name="brokenbar" unicode="&#xa6;" 
d="M68 728h86v-277h-86v277zM68 263h86v-277h-86v277z" />
    <glyph glyph-name="section" unicode="&#xa7;" horiz-adv-x="481" 
d="M316 571c0 51.333 -26.001 77.0039 -78.001 77.0039c-22.667 0 -41.167 -6 -55.5 -18s-21.5 -27.667 -21.5 -47c0 -16 6 -30.333 18 -43s31.333 -26.667 58 -42l135 -75c33.333 -18.667 55.833 -40.667 67.5 -66s17.5 -53 17.5 -83c0 -28.667 -7.33301 -55.167 -22 -79.5
s-34 -44.166 -58 -59.499c18 -15.333 32 -32.833 42 -52.5s15 -40.834 15 -63.501c0 -29.333 -4.83301 -54.833 -14.5 -76.5s-23 -39.834 -40 -54.501s-37.167 -25.667 -60.5 -33s-48.333 -11 -75 -11c-33.333 0 -62 4.5 -86 13.5s-44 21.667 -60 38
s-27.833 35.666 -35.5 57.999s-11.5 46.833 -11.5 73.5h108c0 -28 6.16699 -51.167 18.5 -69.5s34.5 -27.5 66.5 -27.5c21.333 0 39.333 6.5 54 19.5s22 31.5 22 55.5c0 12.667 -2 23.667 -6 33s-9.5 17.666 -16.5 24.999s-15 13.833 -24 19.5l-27.5 16.5l-114 62
c-32 17.333 -58 38.333 -78 63s-30 55 -30 91c0 34 9.16699 62.5 27.5 85.5s40.166 41.833 65.499 56.5c-20.667 11.333 -36.5 27 -47.5 47s-16.5 42.667 -16.5 68c0 26 4.83301 48.667 14.5 68s23 35.5 40 48.5s37 22.833 60 29.5s47.5 10 73.5 10
c36.667 0 66.834 -5 90.501 -15s42.334 -22.667 56.001 -38s23.167 -32.333 28.5 -51s8 -36.334 8 -53.001h-108zM182.999 415.004l-13 -11c-12 -8.66699 -23.333 -19.167 -34 -31.5s-16 -27.166 -16 -44.499c0 -18 6.33301 -32.5 19 -43.5s31.667 -23.833 57 -38.5l114 -67
l16 12c10.667 9.33301 19.167 19.666 25.5 30.999s9.5 24.666 9.5 39.999c0 22.667 -6.5 40.334 -19.5 53.001s-26.167 23 -39.5 31z" />
    <glyph glyph-name="dieresis" unicode="&#xa8;" 
d="M-20 734h96v-108h-96v108zM146 734h96v-108h-96v108z" />
    <glyph glyph-name="copyright" unicode="&#xa9;" horiz-adv-x="800" 
d="M29 357c0 51.333 9.66699 99.5 29 144.5s45.833 84.333 79.5 118s73 60.167 118 79.5s93.167 29 144.5 29s99.5 -9.66699 144.5 -29s84.333 -45.833 118 -79.5s60.167 -73 79.5 -118s29 -93.167 29 -144.5s-9.66699 -99.5 -29 -144.5s-45.833 -84.333 -79.5 -118
s-73 -60.167 -118 -79.5s-93.167 -29 -144.5 -29s-99.5 9.66699 -144.5 29s-84.333 45.833 -118 79.5s-60.167 73 -79.5 118s-29 93.167 -29 144.5zM400 66c38.667 0 75 7.66699 109 23s63.667 36.166 89 62.499s45.333 57.166 60 92.499s22 73 22 113
s-7.33301 77.667 -22 113s-34.667 66.166 -60 92.499s-55 47.166 -89 62.499s-70.333 23 -109 23s-75 -7.66699 -109 -23s-63.667 -36.166 -89 -62.499s-45.333 -57.166 -60 -92.499s-22 -73 -22 -113s7.33301 -77.667 22 -113s34.667 -66.166 60 -92.499
s55 -47.166 89 -62.499s70.333 -23 109 -23zM593 292c-8.66699 -50 -29.834 -88.833 -63.501 -116.5s-75.5 -41.5 -125.5 -41.5c-30 0 -57.5 5.16699 -82.5 15.5s-46.333 25.333 -64 45s-31.334 43.334 -41.001 71.001s-14.5 58.5 -14.5 92.5s5 64.833 15 92.5
s24 51.167 42 70.5s39.833 34.166 65.5 44.499s54.5 15.5 86.5 15.5c46 0 85.5 -13 118.5 -39s53.167 -64 60.5 -114h-80c-5.33301 23.333 -16.5 42.666 -33.5 57.999s-39.5 22.333 -67.5 21c-19.333 0 -36.5 -3.83301 -51.5 -11.5s-27.667 -18.334 -38 -32.001
s-18.166 -29.5 -23.499 -47.5s-8 -37.333 -8 -58c0 -21.333 2.66699 -41.166 8 -59.499s13.333 -34.166 24 -47.499s23.834 -23.833 39.501 -31.5s33.5 -11.5 53.5 -11.5c25.333 0 47 7.5 65 22.5s28.667 35.5 32 61.5h83z" />
    <glyph glyph-name="ordfeminine" unicode="&#xaa;" horiz-adv-x="316" 
d="M197 547c-4.66699 -3.33301 -10.499 -6.33398 -17.499 -9.00098s-14.333 -5.16699 -22 -7.5l-22 -7c-7 -2.33301 -12.5 -4.83301 -16.5 -7.5c-11.333 -5.33301 -18.333 -12.833 -21 -22.5s-4 -19.167 -4 -28.5s3.66699 -17.666 11 -24.999s17.666 -11 30.999 -11
c18.667 0 33.5 5.83301 44.5 17.5s16.5 26.167 16.5 43.5v57zM8.00098 456.999c0 18.667 2.00293 33.835 6.00293 45.502s10 21.167 18 28.5s17.667 13.166 29 17.499s24.333 8.5 39 12.5l52 13c14.667 3.33301 25.834 7.66602 33.501 12.999s11.5 15 11.5 29
c0 10 -3.33301 18.5 -10 25.5s-18.667 10.5 -36 10.5c-12 0 -21.5 -1.5 -28.5 -4.5s-12.333 -7 -16 -12s-6 -10.5 -7 -16.5s-1.5 -11.667 -1.5 -17h-74c0 16.667 2.16699 31.667 6.5 45s11.666 24.5 21.999 33.5s24.333 15.833 42 20.5s39.5 7 65.5 7c34 0 62 -6 84 -18
s33 -32.333 33 -61v-177c0 -6 1.5 -11.333 4.5 -16s7.16699 -7 12.5 -7c3.33301 0 6 0.166992 8 0.5s4 0.833008 6 1.5v-57c-4.66699 -1.33301 -10.334 -2.83301 -17.001 -4.5s-14.667 -2.5 -24 -2.5c-16.667 0 -30.834 3.66699 -42.501 11s-18.167 19.333 -19.5 36h-3
c-10.667 -16 -23.334 -27.833 -38.001 -35.5s-34 -11.5 -58 -11.5c-65.333 0 -98 30 -98 90z" />
    <glyph glyph-name="guillemotleft" unicode="&#xab;" horiz-adv-x="407" 
d="M50 346l144 135v-110l-88 -82l88 -82v-110l-144 135v114zM213 346l144 135v-110l-88 -82l88 -82v-110l-144 135v114z" />
    <glyph glyph-name="logicalnot" unicode="&#xac;" horiz-adv-x="600" 
d="M467 314h-420v86h506v-294h-86v208z" />
    <glyph glyph-name="uni00AD" unicode="&#xad;" horiz-adv-x="352" 
d="M45 340h262v-102h-262v102z" />
    <glyph glyph-name="registered" unicode="&#xae;" horiz-adv-x="800" 
d="M29 357c0 51.333 9.66699 99.5 29 144.5s45.833 84.333 79.5 118s73 60.167 118 79.5s93.167 29 144.5 29s99.5 -9.66699 144.5 -29s84.333 -45.833 118 -79.5s60.167 -73 79.5 -118s29 -93.167 29 -144.5s-9.66699 -99.5 -29 -144.5s-45.833 -84.333 -79.5 -118
s-73 -60.167 -118 -79.5s-93.167 -29 -144.5 -29s-99.5 9.66699 -144.5 29s-84.333 45.833 -118 79.5s-60.167 73 -79.5 118s-29 93.167 -29 144.5zM400 66c38.667 0 75 7.66699 109 23s63.667 36.166 89 62.499s45.333 57.166 60 92.499s22 73 22 113
s-7.33301 77.667 -22 113s-34.667 66.166 -60 92.499s-55 47.166 -89 62.499s-70.333 23 -109 23s-75 -7.66699 -109 -23s-63.667 -36.166 -89 -62.499s-45.333 -57.166 -60 -92.499s-22 -73 -22 -113s7.33301 -77.667 22 -113s34.667 -66.166 60 -92.499
s55 -47.166 89 -62.499s70.333 -23 109 -23zM390 386c13.333 0 26.001 0.501953 38.001 1.50195s22.667 3.66699 32 8s16.666 10.666 21.999 18.999s8 20.166 8 35.499c0 12 -3 21.833 -9 29.5s-13.5 13.5 -22.5 17.5s-19 6.66699 -30 8s-21.833 2 -32.5 2h-82v-121h76z
M377.001 324.002l-63.001 0.000976562v-179h-74v424h165c52.667 0 92.334 -9.33301 119.001 -28s40 -50 40 -94c0 -19.333 -2.83301 -36 -8.5 -50s-13.5 -25.667 -23.5 -35s-21.667 -16.833 -35 -22.5s-27.333 -9.83398 -42 -12.501l116 -182h-86z" />
    <glyph glyph-name="macron" unicode="&#xaf;" 
d="M252 711v-62h-282v62h282z" />
    <glyph glyph-name="degree" unicode="&#xb0;" horiz-adv-x="400" 
d="M119 559c0 -22.667 7.83301 -41.834 23.5 -57.501s34.834 -23.5 57.501 -23.5s41.834 7.83301 57.501 23.5s23.5 34.834 23.5 57.501s-7.83301 41.834 -23.5 57.501s-34.834 23.5 -57.501 23.5s-41.834 -7.83301 -57.501 -23.5s-23.5 -34.834 -23.5 -57.501zM51 559
c0 20.667 3.83301 40 11.5 58s18.334 33.667 32.001 47s29.5 24 47.5 32s37.333 12 58 12s40 -4 58 -12s33.667 -18.667 47 -32s24 -29 32 -47s12 -37.333 12 -58s-4 -40 -12 -58s-18.667 -33.833 -32 -47.5s-29 -24.334 -47 -32.001s-37.333 -11.5 -58 -11.5
s-40 3.83301 -58 11.5s-33.833 18.334 -47.5 32.001s-24.334 29.5 -32.001 47.5s-11.5 37.333 -11.5 58z" />
    <glyph glyph-name="plusminus" unicode="&#xb1;" horiz-adv-x="600" 
d="M47 86h506v-86h-506v86zM257 506h86v-151h210v-86h-210v-151h-86v151h-210v86h210v151z" />
    <glyph glyph-name="twosuperior" unicode="&#xb2;" horiz-adv-x="313" 
d="M292 280l-276.001 0.00390625c0 33.333 4.83301 61.166 14.5 83.499s21.667 41.666 36 57.999s29.833 30.333 46.5 42s32.167 23.5 46.5 35.5s26.333 24.833 36 38.5s14.5 30.5 14.5 50.5c0 17.333 -4.16699 31.333 -12.5 42s-21.166 16 -38.499 16
c-12 0 -21.667 -2.5 -29 -7.5s-13 -11.333 -17 -19s-6.66699 -15.834 -8 -24.501s-2 -17 -2 -25h-86c0 41.333 10.667 74.666 32 99.999s58.333 38 111 38c50 0 85.167 -10.5 105.5 -31.5s30.5 -48.5 30.5 -82.5c0 -22.667 -3.66699 -42.167 -11 -58.5
s-17 -30.833 -29 -43.5s-25.167 -24.167 -39.5 -34.5l-42.5 -31.5c-14 -10.667 -27 -22.167 -39 -34.5s-21.333 -26.833 -28 -43.5h185v-68z" />
    <glyph glyph-name="threesuperior" unicode="&#xb3;" horiz-adv-x="313" 
d="M116 533h26.999c23.333 0 39.666 6.33301 48.999 19s14 26 14 40c0 12 -4 24 -12 36s-20.667 18 -38 18c-10 0 -18.333 -2 -25 -6s-12.167 -9 -16.5 -15s-7.33301 -12.667 -9 -20s-2.5 -14 -2.5 -20h-86c0 40 13.167 70.5 39.5 91.5s61.5 31.5 105.5 31.5
c15.333 0 30.833 -2 46.5 -6s29.667 -10.5 42 -19.5s22.333 -20.333 30 -34s11.5 -29.834 11.5 -48.501c0 -22 -7.66699 -42.333 -23 -61s-34.333 -29.667 -57 -33v-2c25.333 -1.33301 46.833 -10.666 64.5 -27.999s26.5 -41 26.5 -71c0 -42 -14 -74.5 -42 -97.5
s-63.333 -34.5 -106 -34.5c-48.667 0 -85 10 -109 30s-36 52.333 -36 97h86c0 -6 0.833008 -12.833 2.5 -20.5s4.83398 -14.667 9.50098 -21s10.834 -11.833 18.501 -16.5s17.167 -7 28.5 -7c22 0 37.833 7.16699 47.5 21.5s14.5 30.833 14.5 49.5
c0 19.333 -5.16699 35 -15.5 47s-28.833 18 -55.5 18h-30v62z" />
    <glyph glyph-name="acute" unicode="&#xb4;" 
d="M116 752h120l-106 -144h-74z" />
    <glyph glyph-name="mu" unicode="&#xb5;" horiz-adv-x="481" 
d="M52 538l108 -0.000976562v-369c0 -36 5.5 -61.167 16.5 -75.5s30.5 -21.5 58.5 -21.5c22 0 41.833 8.5 59.5 25.5s26.5 43.5 26.5 79.5v361h108v-538h-102v63h-3c-13.333 -24 -30.333 -42.833 -51 -56.5s-41.667 -20.5 -63 -20.5c-12 0 -22.167 1.83301 -30.5 5.5
s-14.833 7.83398 -19.5 12.501v-180h-108v714z" />
    <glyph glyph-name="paragraph" unicode="&#xb6;" horiz-adv-x="600" 
d="M443 646l-111 0.000976562v-788h-91v486c-26 0 -50.333 4.5 -73 13.5s-42.5 21.667 -59.5 38s-30.5 35.666 -40.5 57.999s-15 46.5 -15 72.5c0 33.333 5.66699 62 17 86s27.166 43.5 47.499 58.5s44.833 26 73.5 33s60.334 10.5 95.001 10.5h248v-856h-91v788z" />
    <glyph glyph-name="periodcentered" unicode="&#xb7;" horiz-adv-x="240" 
d="M48 308c0 20 7 37 21 51s31 21 51 21s37 -7 51 -21s21 -31 21 -51s-7 -37 -21 -51s-31 -21 -51 -21s-37 7 -51 21s-21 31 -21 51z" />
    <glyph glyph-name="cedilla" unicode="&#xb8;" 
d="M146 0l-42 -59.999c7.33301 2 14.166 3.33301 20.499 4s12.833 1 19.5 1c22.667 0 41.334 -7.33301 56.001 -22s22 -32 22 -52c0 -28 -11 -50.333 -33 -67s-50 -25.667 -84 -27c-22.667 0 -42.167 1.66699 -58.5 5s-30.5 7.33301 -42.5 12l16 40
c20 -8.66699 43 -13 69 -13c16 0 28.833 3.16699 38.5 9.5s14.5 17.166 14.5 32.499c0 11.333 -4.5 20.5 -13.5 27.5s-19.833 10.5 -32.5 10.5c-7.33301 0 -14 -0.666992 -20 -2s-12 -3.33301 -18 -6l-18 17l56 90h50z" />
    <glyph glyph-name="onesuperior" unicode="&#xb9;" horiz-adv-x="313" 
d="M130 585h-90.001v56h7c10.667 0 21.834 0.666992 33.501 2s22.5 4.16602 32.5 8.49902s18.833 10.333 26.5 18s13.167 17.834 16.5 30.501v8h60v-428h-86v305z" />
    <glyph glyph-name="ordmasculine" unicode="&#xba;" horiz-adv-x="316" 
d="M158 429c12 0 21.833 2.83301 29.5 8.5s13.667 13.5 18 23.5s7.16602 21.5 8.49902 34.5s2 26.5 2 40.5c0 14.667 -0.666992 28.667 -2 42s-4.16602 25 -8.49902 35s-10.333 18 -18 24s-17.5 9 -29.5 9s-21.833 -3 -29.5 -9s-13.667 -14 -18 -24
s-7.16602 -21.667 -8.49902 -35s-2 -27.333 -2 -42c0 -14 0.666992 -27.5 2 -40.5s4.16602 -24.5 8.49902 -34.5s10.333 -17.833 18 -23.5s17.5 -8.5 29.5 -8.5zM158 367c-28 0 -51.333 4.16699 -70 12.5s-33.5 19.833 -44.5 34.5s-18.667 32.334 -23 53.001
s-6.5 43.667 -6.5 69c0 26 2.16699 49.5 6.5 70.5s12 39 23 54s25.833 26.667 44.5 35s42 12.5 70 12.5s51.167 -4.16699 69.5 -12.5s33 -20 44 -35s18.833 -33 23.5 -54s7 -44.5 7 -70.5c0 -25.333 -2.33301 -48.333 -7 -69s-12.5 -38.334 -23.5 -53.001
s-25.667 -26.167 -44 -34.5s-41.5 -12.5 -69.5 -12.5z" />
    <glyph glyph-name="guillemotright" unicode="&#xbb;" horiz-adv-x="407" 
d="M357 232l-144 -135v110l88 82l-88 82v110l144 -135v-114zM194 232l-144 -135v110l88 82l-88 82v110l144 -135v-114z" />
    <glyph glyph-name="onequarter" unicode="&#xbc;" horiz-adv-x="721" 
d="M100 585h-90.001v56h7c10.667 0 21.834 0.666992 33.501 2s22.5 4.16602 32.5 8.49902s18.833 10.333 26.5 18s13.167 17.834 16.5 30.501v8h60v-428h-86v305zM494.999 725h74l-421 -756h-74zM544.999 332h-2l-103 -182h105v182zM544.999 94h-164v61l158 273h86v-278h50
v-56h-50v-94h-80v94z" />
    <glyph glyph-name="onehalf" unicode="&#xbd;" horiz-adv-x="721" 
d="M411 0c0 33.333 4.83203 61.1699 14.499 83.5029s21.667 41.666 36 57.999s29.833 30.333 46.5 42s32.167 23.5 46.5 35.5s26.333 24.833 36 38.5s14.5 30.5 14.5 50.5c0 17.333 -4.16699 31.333 -12.5 42s-21.166 16 -38.499 16c-12 0 -21.667 -2.5 -29 -7.5
s-13 -11.333 -17 -19s-6.66699 -15.834 -8 -24.501s-2 -17 -2 -25h-86c0 41.333 10.667 74.666 32 99.999s58.333 38 111 38c50 0 85.167 -10.5 105.5 -31.5s30.5 -48.5 30.5 -82.5c0 -22.667 -3.66699 -42.167 -11 -58.5s-17 -30.833 -29 -43.5
s-25.167 -24.167 -39.5 -34.5l-42.5 -31.5c-14 -10.667 -27 -22.167 -39 -34.5s-21.333 -26.833 -28 -43.5h185v-68h-276zM99.999 585.004h-90.001v56h7c10.667 0 21.834 0.666992 33.501 2s22.5 4.16602 32.5 8.49902s18.833 10.333 26.5 18s13.167 17.834 16.5 30.501v8
h60v-428h-86v305zM494.998 725.004h74l-421 -756h-74z" />
    <glyph glyph-name="threequarters" unicode="&#xbe;" horiz-adv-x="721" 
d="M90 533h26.999c23.333 0 39.666 6.33301 48.999 19s14 26 14 40c0 12 -4 24 -12 36s-20.667 18 -38 18c-10 0 -18.333 -2 -25 -6s-12.167 -9 -16.5 -15s-7.33301 -12.667 -9 -20s-2.5 -14 -2.5 -20h-86c0 40 13.167 70.5 39.5 91.5s61.5 31.5 105.5 31.5
c15.333 0 30.833 -2 46.5 -6s29.667 -10.5 42 -19.5s22.333 -20.333 30 -34s11.5 -29.834 11.5 -48.501c0 -22 -7.66699 -42.333 -23 -61s-34.333 -29.667 -57 -33v-2c25.333 -1.33301 46.833 -10.666 64.5 -27.999s26.5 -41 26.5 -71c0 -42 -14 -74.5 -42 -97.5
s-63.333 -34.5 -106 -34.5c-48.667 0 -85 10 -109 30s-36 52.333 -36 97h86c0 -6 0.833008 -12.833 2.5 -20.5s4.83398 -14.667 9.50098 -21s10.834 -11.833 18.501 -16.5s17.167 -7 28.5 -7c22 0 37.833 7.16699 47.5 21.5s14.5 30.833 14.5 49.5
c0 19.333 -5.16699 35 -15.5 47s-28.833 18 -55.5 18h-30v62zM528.999 725h74l-421 -756h-74zM544.999 332h-2l-103 -182h105v182zM544.999 94h-164v61l158 273h86v-278h50v-56h-50v-94h-80v94z" />
    <glyph glyph-name="questiondown" unicode="&#xbf;" horiz-adv-x="463" 
d="M301 424h-114v114h114v-114zM294 286c0 -24 -3.50195 -44.332 -10.502 -60.999s-16 -31.5 -27 -44.5s-22.667 -25.167 -35 -36.5s-24 -23.5 -35 -36.5s-20 -27.833 -27 -44.5s-10.5 -37 -10.5 -61c0 -14 1.33301 -27.333 4 -40s7.16699 -24 13.5 -34
s14.666 -17.833 24.999 -23.5s23.166 -8.5 38.499 -8.5c34 0 57.5 13 70.5 39s19.5 60 19.5 102h108c0 -31.333 -3.5 -60.833 -10.5 -88.5s-18.333 -51.834 -34 -72.501s-36 -36.834 -61 -48.501s-55.5 -17.5 -91.5 -17.5c-62.667 0 -111 16.333 -145 49
s-51 80.334 -51 143.001c0 28 3.83301 52.667 11.5 74s17.334 40.333 29.001 57s24.334 31.667 38.001 45s26.334 26.5 38.001 39.5s21.334 26.333 29.001 40s11.5 29.167 11.5 46.5v42h102v-60z" />
    <glyph glyph-name="Agrave" unicode="&#xc0;" horiz-adv-x="519" 
d="M194 714h146l188 -714h-119l-44 175h-209l-46 -175h-119zM346 266l-82 352h-2l-85 -352h169zM153 906h120l60 -144h-74z" />
    <glyph glyph-name="Aacute" unicode="&#xc1;" horiz-adv-x="519" 
d="M194 714h146l188 -714h-119l-44 175h-209l-46 -175h-119zM346 266l-82 352h-2l-85 -352h169zM255 906h120l-106 -144h-74z" />
    <glyph glyph-name="Acircumflex" unicode="&#xc2;" horiz-adv-x="519" 
d="M194 714h146l188 -714h-119l-44 175h-209l-46 -175h-119zM346 266l-82 352h-2l-85 -352h169zM213 906h108l89 -144h-91l-54 88l-57 -88h-86z" />
    <glyph glyph-name="Atilde" unicode="&#xc3;" horiz-adv-x="519" 
d="M194 714h146l188 -714h-119l-44 175h-209l-46 -175h-119zM346 266l-82 352h-2l-85 -352h169zM413 896c0 -11.333 -1.83398 -23.8311 -5.50098 -37.498s-9 -26.5 -16 -38.5s-16 -22 -27 -30s-23.5 -12 -37.5 -12c-11.333 0 -22.5 1.83301 -33.5 5.5
s-21.667 7.66699 -32 12l-29 12c-9 3.66699 -17.5 5.5 -25.5 5.5c-11.333 0 -19.833 -4.16699 -25.5 -12.5s-8.5 -17.5 -8.5 -27.5h-62c0 10.667 1.83301 23 5.5 37s9.5 27.167 17.5 39.5s18.333 22.666 31 30.999s28.334 12.5 47.001 12.5c8 0 16.5 -1.83301 25.5 -5.5
l27.5 -11.5c9.33301 -4.66699 18.833 -8.83398 28.5 -12.501s18.834 -5.5 27.501 -5.5c11.333 0 19.166 4 23.499 12s6.5 16.667 6.5 26h62z" />
    <glyph glyph-name="Adieresis" unicode="&#xc4;" horiz-adv-x="519" 
d="M194 714h146l188 -714h-119l-44 175h-209l-46 -175h-119zM346 266l-82 352h-2l-85 -352h169zM132 888h96v-108h-96v108zM298 888h96v-108h-96v108z" />
    <glyph glyph-name="Aring" unicode="&#xc5;" horiz-adv-x="519" 
d="M194 714h146l188 -714h-119l-44 175h-209l-46 -175h-119zM346 266l-82 352h-2l-85 -352h169zM158 846c0 30 10.167 54.833 30.5 74.5s45.5 29.5 75.5 29.5s55.167 -9.83301 75.5 -29.5s30.5 -44.5 30.5 -74.5s-10.167 -54.833 -30.5 -74.5s-45.5 -29.5 -75.5 -29.5
s-55.167 9.83301 -75.5 29.5s-30.5 44.5 -30.5 74.5zM208 846c0 -15.333 5.5 -28.5 16.5 -39.5s24.167 -16.5 39.5 -16.5s28.5 5.5 39.5 16.5s16.5 24.167 16.5 39.5s-5.5 28.5 -16.5 39.5s-24.167 16.5 -39.5 16.5s-28.5 -5.5 -39.5 -16.5s-16.5 -24.167 -16.5 -39.5z" />
    <glyph glyph-name="AE" unicode="&#xc6;" horiz-adv-x="741" 
d="M261 714h437v-96h-253v-198h239v-96h-239v-228h262v-96h-370v175h-167l-63 -175h-119zM337 266v357h-9l-128 -357h137z" />
    <glyph glyph-name="Ccedilla" unicode="&#xc7;" horiz-adv-x="519" 
d="M498 256l0.00390625 -15.001c0 -24.667 -2 -48.667 -6 -72s-10.667 -45.166 -20 -65.499s-21.333 -38.833 -36 -55.5s-32.334 -30.334 -53.001 -41.001c-24.667 -12 -54.334 -19 -89.001 -21l-32 -46c7.33301 2 14.166 3.33301 20.499 4s12.833 1 19.5 1
c22.667 0 41.334 -7.33301 56.001 -22s22 -32 22 -52c0 -28 -11 -50.333 -33 -67s-50 -25.667 -84 -27c-22.667 0 -42.167 1.66699 -58.5 5s-30.5 7.33301 -42.5 12l16 40c20 -8.66699 43 -13 69 -13c16 0 28.833 3.16699 38.5 9.5s14.5 17.166 14.5 32.499
c0 11.333 -4.5 20.5 -13.5 27.5s-19.833 10.5 -32.5 10.5c-7.33301 0 -14 -0.666992 -20 -2s-12 -3.33301 -18 -6l-18 17l48 77c-31.333 2.66699 -58.333 9.66699 -81 21c-46 22.667 -78 62.5 -96 119.5s-27 133.5 -27 229.5c0 64 3.83301 119.167 11.5 165.5
s20.667 84.833 39 115.5s42.666 53.334 72.999 68.001s68.166 22 113.499 22c50.667 0 90.334 -8.16699 119.001 -24.5s50.167 -36.166 64.5 -59.499s23.166 -47.833 26.499 -73.5s5 -47.834 5 -66.501v-13h-114v12c0 16.667 -1.5 33.5 -4.5 50.5s-8.33301 32.167 -16 45.5
s-18 24 -31 32s-29.833 11.667 -50.5 11c-21.333 0 -39.666 -3.83301 -54.999 -11.5s-28 -22 -38 -43s-17.333 -49.833 -22 -86.5s-7 -83.667 -7 -141s2.33301 -104.666 7 -141.999s12 -66.833 22 -88.5s22.667 -36.667 38 -45s33.666 -12.5 54.999 -12.5
c24 0 43 5.83301 57 17.5s24.667 26.167 32 43.5s12 36 14 56s3 38.333 3 55v12h114z" />
    <glyph glyph-name="Egrave" unicode="&#xc8;" horiz-adv-x="481" 
d="M59 714h386v-96h-272v-198h256v-96h-256v-228h280v-96h-394v714zM123 906h120l60 -144h-74z" />
    <glyph glyph-name="Eacute" unicode="&#xc9;" horiz-adv-x="481" 
d="M59 714h386v-96h-272v-198h256v-96h-256v-228h280v-96h-394v714zM269 906h120l-106 -144h-74z" />
    <glyph glyph-name="Ecircumflex" unicode="&#xca;" horiz-adv-x="481" 
d="M59 714h386v-96h-272v-198h256v-96h-256v-228h280v-96h-394v714zM201 906h108l89 -144h-91l-54 88l-57 -88h-86z" />
    <glyph glyph-name="Edieresis" unicode="&#xcb;" horiz-adv-x="481" 
d="M59 714h386v-96h-272v-198h256v-96h-256v-228h280v-96h-394v714zM123 888h96v-108h-96v108zM289 888h96v-108h-96v108z" />
    <glyph glyph-name="Igrave" unicode="&#xcc;" 
d="M54 714h114v-714h-114v714zM-12 906h120l60 -144h-74z" />
    <glyph glyph-name="Iacute" unicode="&#xcd;" 
d="M54 714h114v-714h-114v714zM116 906h120l-106 -144h-74z" />
    <glyph glyph-name="Icircumflex" unicode="&#xce;" 
d="M54 714h114v-714h-114v714zM58 906h108l89 -144h-91l-54 88l-57 -88h-86z" />
    <glyph glyph-name="Idieresis" unicode="&#xcf;" 
d="M54 714h114v-714h-114v714zM-20 888h96v-108h-96v108zM146 888h96v-108h-96v108z" />
    <glyph glyph-name="Eth" unicode="&#xd0;" horiz-adv-x="556" 
d="M267 86c23.333 0 43.5 4.33301 60.5 13s30.833 23.334 41.5 44.001s18.5 48.5 23.5 83.5s7.5 78.5 7.5 130.5c0 50 -2.33301 92.333 -7 127s-12.167 62.667 -22.5 84s-24 36.666 -41 45.999s-37.833 14 -62.5 14h-94v-215h119v-80h-119v-247h94zM59 333l-59 0.00390625
v80h59v301h203c56 0 100.667 -8.66699 134 -26s58.666 -41.833 75.999 -73.5s28.666 -69.334 33.999 -113.001s8 -91.834 8 -144.501s-2.66699 -100.834 -8 -144.501s-16.666 -81.334 -33.999 -113.001s-42.666 -56.167 -75.999 -73.5s-78 -26 -134 -26h-203v333z" />
    <glyph glyph-name="Ntilde" unicode="&#xd1;" horiz-adv-x="574" 
d="M59 714h139l207 -532h2v532h108v-714h-139l-207 546h-2v-546h-108v714zM440 896c0 -11.333 -1.83398 -23.8311 -5.50098 -37.498s-9 -26.5 -16 -38.5s-16 -22 -27 -30s-23.5 -12 -37.5 -12c-11.333 0 -22.5 1.83301 -33.5 5.5s-21.667 7.66699 -32 12l-29 12
c-9 3.66699 -17.5 5.5 -25.5 5.5c-11.333 0 -19.833 -4.16699 -25.5 -12.5s-8.5 -17.5 -8.5 -27.5h-62c0 10.667 1.83301 23 5.5 37s9.5 27.167 17.5 39.5s18.333 22.666 31 30.999s28.334 12.5 47.001 12.5c8 0 16.5 -1.83301 25.5 -5.5l27.5 -11.5
c9.33301 -4.66699 18.833 -8.83398 28.5 -12.501s18.834 -5.5 27.501 -5.5c11.333 0 19.166 4 23.499 12s6.5 16.667 6.5 26h62z" />
    <glyph glyph-name="Ograve" unicode="&#xd2;" horiz-adv-x="556" 
d="M278 72c16.667 0 32.5 3.5 47.5 10.5s28 20.833 39 41.5s19.667 49.834 26 87.501s9.5 87.167 9.5 148.5c0 60 -3.16699 108.5 -9.5 145.5s-15 65.5 -26 85.5s-24 33.5 -39 40.5s-30.833 10.5 -47.5 10.5c-17.333 0 -33.333 -3.5 -48 -10.5s-27.5 -20.5 -38.5 -40.5
s-19.667 -48.5 -26 -85.5s-9.5 -85.5 -9.5 -145.5c0 -61.333 3.16699 -110.833 9.5 -148.5s15 -66.834 26 -87.501s23.833 -34.5 38.5 -41.5s30.667 -10.5 48 -10.5zM278 -14c-82 0 -141.833 30 -179.5 90s-56.5 153.667 -56.5 281s18.833 221 56.5 281s97.5 90 179.5 90
s141.833 -30 179.5 -90s56.5 -153.667 56.5 -281s-18.833 -221 -56.5 -281s-97.5 -90 -179.5 -90zM140 906h120l60 -144h-74z" />
    <glyph glyph-name="Oacute" unicode="&#xd3;" horiz-adv-x="556" 
d="M278 72c16.667 0 32.5 3.5 47.5 10.5s28 20.833 39 41.5s19.667 49.834 26 87.501s9.5 87.167 9.5 148.5c0 60 -3.16699 108.5 -9.5 145.5s-15 65.5 -26 85.5s-24 33.5 -39 40.5s-30.833 10.5 -47.5 10.5c-17.333 0 -33.333 -3.5 -48 -10.5s-27.5 -20.5 -38.5 -40.5
s-19.667 -48.5 -26 -85.5s-9.5 -85.5 -9.5 -145.5c0 -61.333 3.16699 -110.833 9.5 -148.5s15 -66.834 26 -87.501s23.833 -34.5 38.5 -41.5s30.667 -10.5 48 -10.5zM278 -14c-82 0 -141.833 30 -179.5 90s-56.5 153.667 -56.5 281s18.833 221 56.5 281s97.5 90 179.5 90
s141.833 -30 179.5 -90s56.5 -153.667 56.5 -281s-18.833 -221 -56.5 -281s-97.5 -90 -179.5 -90zM294 906h120l-106 -144h-74z" />
    <glyph glyph-name="Ocircumflex" unicode="&#xd4;" horiz-adv-x="556" 
d="M278 72c16.667 0 32.5 3.5 47.5 10.5s28 20.833 39 41.5s19.667 49.834 26 87.501s9.5 87.167 9.5 148.5c0 60 -3.16699 108.5 -9.5 145.5s-15 65.5 -26 85.5s-24 33.5 -39 40.5s-30.833 10.5 -47.5 10.5c-17.333 0 -33.333 -3.5 -48 -10.5s-27.5 -20.5 -38.5 -40.5
s-19.667 -48.5 -26 -85.5s-9.5 -85.5 -9.5 -145.5c0 -61.333 3.16699 -110.833 9.5 -148.5s15 -66.834 26 -87.501s23.833 -34.5 38.5 -41.5s30.667 -10.5 48 -10.5zM278 -14c-82 0 -141.833 30 -179.5 90s-56.5 153.667 -56.5 281s18.833 221 56.5 281s97.5 90 179.5 90
s141.833 -30 179.5 -90s56.5 -153.667 56.5 -281s-18.833 -221 -56.5 -281s-97.5 -90 -179.5 -90zM226 906h108l89 -144h-91l-54 88l-57 -88h-86z" />
    <glyph glyph-name="Otilde" unicode="&#xd5;" horiz-adv-x="556" 
d="M278 72c16.667 0 32.5 3.5 47.5 10.5s28 20.833 39 41.5s19.667 49.834 26 87.501s9.5 87.167 9.5 148.5c0 60 -3.16699 108.5 -9.5 145.5s-15 65.5 -26 85.5s-24 33.5 -39 40.5s-30.833 10.5 -47.5 10.5c-17.333 0 -33.333 -3.5 -48 -10.5s-27.5 -20.5 -38.5 -40.5
s-19.667 -48.5 -26 -85.5s-9.5 -85.5 -9.5 -145.5c0 -61.333 3.16699 -110.833 9.5 -148.5s15 -66.834 26 -87.501s23.833 -34.5 38.5 -41.5s30.667 -10.5 48 -10.5zM278 -14c-82 0 -141.833 30 -179.5 90s-56.5 153.667 -56.5 281s18.833 221 56.5 281s97.5 90 179.5 90
s141.833 -30 179.5 -90s56.5 -153.667 56.5 -281s-18.833 -221 -56.5 -281s-97.5 -90 -179.5 -90zM430 896c0 -11.333 -1.83398 -23.8311 -5.50098 -37.498s-9 -26.5 -16 -38.5s-16 -22 -27 -30s-23.5 -12 -37.5 -12c-11.333 0 -22.5 1.83301 -33.5 5.5
s-21.667 7.66699 -32 12l-29 12c-9 3.66699 -17.5 5.5 -25.5 5.5c-11.333 0 -19.833 -4.16699 -25.5 -12.5s-8.5 -17.5 -8.5 -27.5h-62c0 10.667 1.83301 23 5.5 37s9.5 27.167 17.5 39.5s18.333 22.666 31 30.999s28.334 12.5 47.001 12.5c8 0 16.5 -1.83301 25.5 -5.5
l27.5 -11.5c9.33301 -4.66699 18.833 -8.83398 28.5 -12.501s18.834 -5.5 27.501 -5.5c11.333 0 19.166 4 23.499 12s6.5 16.667 6.5 26h62z" />
    <glyph glyph-name="Odieresis" unicode="&#xd6;" horiz-adv-x="556" 
d="M278 72c16.667 0 32.5 3.5 47.5 10.5s28 20.833 39 41.5s19.667 49.834 26 87.501s9.5 87.167 9.5 148.5c0 60 -3.16699 108.5 -9.5 145.5s-15 65.5 -26 85.5s-24 33.5 -39 40.5s-30.833 10.5 -47.5 10.5c-17.333 0 -33.333 -3.5 -48 -10.5s-27.5 -20.5 -38.5 -40.5
s-19.667 -48.5 -26 -85.5s-9.5 -85.5 -9.5 -145.5c0 -61.333 3.16699 -110.833 9.5 -148.5s15 -66.834 26 -87.501s23.833 -34.5 38.5 -41.5s30.667 -10.5 48 -10.5zM278 -14c-82 0 -141.833 30 -179.5 90s-56.5 153.667 -56.5 281s18.833 221 56.5 281s97.5 90 179.5 90
s141.833 -30 179.5 -90s56.5 -153.667 56.5 -281s-18.833 -221 -56.5 -281s-97.5 -90 -179.5 -90zM147 888h96v-108h-96v108zM313 888h96v-108h-96v108z" />
    <glyph glyph-name="multiply" unicode="&#xd7;" horiz-adv-x="600" 
d="M70 427l56 56l173 -174l175 174l56 -56l-175 -174l175 -174l-56 -56l-175 175l-173 -175l-56 56l174 174z" />
    <glyph glyph-name="Oslash" unicode="&#xd8;" horiz-adv-x="556" 
d="M85 -28l33 78c-26 30 -45.167 70 -57.5 120s-18.5 112.333 -18.5 187c0 127.333 18.833 221 56.5 281s97.5 90 179.5 90c46 0 84.333 -9.33301 115 -28l27 65l51 -24l-33 -77c26 -30 45.167 -70 57.5 -120s18.5 -112.333 18.5 -187c0 -127.333 -18.833 -221 -56.5 -281
s-97.5 -90 -179.5 -90c-45.333 0 -83.333 9.33301 -114 28l-28 -66zM354 607c-10.667 14 -22.332 23.333 -34.999 28s-26.334 7 -41.001 7c-17.333 0 -33.333 -3.5 -48 -10.5s-27.5 -20.5 -38.5 -40.5s-19.667 -48.5 -26 -85.5s-9.5 -85.5 -9.5 -145.5
c0 -80 5.33301 -140.333 16 -181h2zM203.002 107c10 -14 21.333 -23.334 34 -28.001s26.334 -7 41.001 -7c16.667 0 32.5 3.5 47.5 10.5s28 20.833 39 41.5s19.667 49.834 26 87.501s9.5 87.167 9.5 148.5c0 40 -1.33301 74.333 -4 103s-6.33398 52.667 -11.001 72h-2z" />
    <glyph glyph-name="Ugrave" unicode="&#xd9;" horiz-adv-x="537" 
d="M164 714l-0.000976562 -512c0 -46 8.83301 -79.167 26.5 -99.5s43.834 -30.5 78.501 -30.5c34 0 59.833 10.167 77.5 30.5s26.5 53.5 26.5 99.5v512h114v-503c0 -41.333 -5 -76.333 -15 -105s-24.333 -51.834 -43 -69.501s-41.5 -30.5 -68.5 -38.5s-57.5 -12 -91.5 -12
s-64.667 4 -92 12s-50.333 20.833 -69 38.5s-33 40.834 -43 69.501s-15 63.667 -15 105v503h114zM129.999 906h120l60 -144h-74z" />
    <glyph glyph-name="Uacute" unicode="&#xda;" horiz-adv-x="537" 
d="M164 714l-0.000976562 -512c0 -46 8.83301 -79.167 26.5 -99.5s43.834 -30.5 78.501 -30.5c34 0 59.833 10.167 77.5 30.5s26.5 53.5 26.5 99.5v512h114v-503c0 -41.333 -5 -76.333 -15 -105s-24.333 -51.834 -43 -69.501s-41.5 -30.5 -68.5 -38.5s-57.5 -12 -91.5 -12
s-64.667 4 -92 12s-50.333 20.833 -69 38.5s-33 40.834 -43 69.501s-15 63.667 -15 105v503h114zM286.999 906h120l-106 -144h-74z" />
    <glyph glyph-name="Ucircumflex" unicode="&#xdb;" horiz-adv-x="537" 
d="M164 714l-0.000976562 -512c0 -46 8.83301 -79.167 26.5 -99.5s43.834 -30.5 78.501 -30.5c34 0 59.833 10.167 77.5 30.5s26.5 53.5 26.5 99.5v512h114v-503c0 -41.333 -5 -76.333 -15 -105s-24.333 -51.834 -43 -69.501s-41.5 -30.5 -68.5 -38.5s-57.5 -12 -91.5 -12
s-64.667 4 -92 12s-50.333 20.833 -69 38.5s-33 40.834 -43 69.501s-15 63.667 -15 105v503h114zM217.999 906h108l89 -144h-91l-54 88l-57 -88h-86z" />
    <glyph glyph-name="Udieresis" unicode="&#xdc;" horiz-adv-x="537" 
d="M164 714l-0.000976562 -512c0 -46 8.83301 -79.167 26.5 -99.5s43.834 -30.5 78.501 -30.5c34 0 59.833 10.167 77.5 30.5s26.5 53.5 26.5 99.5v512h114v-503c0 -41.333 -5 -76.333 -15 -105s-24.333 -51.834 -43 -69.501s-41.5 -30.5 -68.5 -38.5s-57.5 -12 -91.5 -12
s-64.667 4 -92 12s-50.333 20.833 -69 38.5s-33 40.834 -43 69.501s-15 63.667 -15 105v503h114zM137.999 888h96v-108h-96v108zM303.999 888h96v-108h-96v108z" />
    <glyph glyph-name="Yacute" unicode="&#xdd;" horiz-adv-x="481" 
d="M180 279l-184 435h127l120 -308l123 308h119l-191 -435v-279h-114v279zM264 906h120l-106 -144h-74z" />
    <glyph glyph-name="Thorn" unicode="&#xde;" horiz-adv-x="500" 
d="M59 714l114 -0.00195312v-136h112c34 0 63.5 -5.16699 88.5 -15.5s45.5 -24.666 61.5 -42.999s27.833 -40.166 35.5 -65.499s11.5 -53.333 11.5 -84c0 -64 -18.167 -115.167 -54.5 -153.5s-87.833 -57.5 -154.5 -57.5h-100v-159h-114v714zM173 244.998
l80.999 -0.00195312c15.333 0 29.833 2.16699 43.5 6.5s25.834 11.333 36.501 21s19 22.334 25 38.001s9 34.834 9 57.501c0 38.667 -9 69 -27 91s-49.667 33 -95 33h-73v-247z" />
    <glyph glyph-name="germandbls" unicode="&#xdf;" horiz-adv-x="481" 
d="M209 80l26.999 -0.00195312c34 0 59.167 12.167 75.5 36.5s24.5 58.833 24.5 103.5c0 95.333 -33 143 -99 143h-26v80h19c6.66699 0 14.5 1.5 23.5 4.5s17.833 8.16699 26.5 15.5s16 17.333 22 30s9 28.667 9 48c0 30 -5.83301 54.333 -17.5 73s-32.5 28 -62.5 28
c-28.667 0 -49 -8.83301 -61 -26.5s-18 -42.5 -18 -74.5v-541h-108v533c0 126 62.667 189 188 189c22.667 0 45.167 -2.5 67.5 -7.5s42.333 -13.667 60 -26s32 -29.166 43 -50.499s16.5 -48 16.5 -80c0 -38.667 -7.66699 -70.667 -23 -96s-41 -42.666 -77 -51.999v-2
c26 -2.66699 47.333 -9.83398 64 -21.501s30 -26.167 40 -43.5s17 -36.5 21 -57.5s6 -42.167 6 -63.5c0 -33.333 -3.66699 -63.833 -11 -91.5s-18.666 -51.667 -33.999 -72s-35 -36.166 -59 -47.499s-52.667 -17 -86 -17h-51v86z" />
    <glyph glyph-name="agrave" unicode="&#xe0;" horiz-adv-x="463" 
d="M303 284c-7.33301 -5.33301 -16.167 -10.167 -26.5 -14.5s-21 -8.5 -32 -12.5l-33 -11.5c-11 -3.66699 -20.5 -7.5 -28.5 -11.5c-15.333 -7.33301 -26.5 -18.666 -33.5 -33.999s-10.5 -33 -10.5 -53c0 -22.667 5.5 -41.834 16.5 -57.501s27.833 -23.5 50.5 -23.5
c32.667 0 57 11.333 73 34s24 54 24 94v90zM404.999 111.999c0 -10 2.66895 -18.832 8.00195 -26.499s12 -11.5 20 -11.5s14 1 18 3v-70c-6.66699 -3.33301 -14.5 -6.33301 -23.5 -9s-18.833 -4 -29.5 -4c-24 0 -44.833 5.33301 -62.5 16s-27.167 29 -28.5 55h-2
c-14.667 -26.667 -32.667 -46.5 -54 -59.5s-48 -19.5 -80 -19.5c-44 0 -78.333 12.167 -103 36.5s-37 62.5 -37 114.5c0 30 3.16699 54.5 9.5 73.5s15 34.667 26 47s24.167 22 39.5 29s32 13.5 50 19.5l84 23c19.333 5.33301 34.666 12.333 45.999 21s17 24.667 17 48
c0 24.667 -5.16699 44.167 -15.5 58.5s-29.833 21.5 -58.5 21.5c-18 0 -32.333 -3 -43 -9s-19 -13.667 -25 -23s-9.83301 -20.333 -11.5 -33s-2.5 -25.334 -2.5 -38.001h-102c0 28.667 3.16699 54 9.5 76s16.833 40.5 31.5 55.5s34.167 26.333 58.5 34
s54.166 11.5 89.499 11.5c24 0 46.333 -2.5 67 -7.5s38.667 -12.667 54 -23s27.5 -23.833 36.5 -40.5s13.5 -37 13.5 -61v-308zM112.001 752h120l60 -144h-74z" />
    <glyph glyph-name="aacute" unicode="&#xe1;" horiz-adv-x="463" 
d="M303 284c-7.33301 -5.33301 -16.167 -10.167 -26.5 -14.5s-21 -8.5 -32 -12.5l-33 -11.5c-11 -3.66699 -20.5 -7.5 -28.5 -11.5c-15.333 -7.33301 -26.5 -18.666 -33.5 -33.999s-10.5 -33 -10.5 -53c0 -22.667 5.5 -41.834 16.5 -57.501s27.833 -23.5 50.5 -23.5
c32.667 0 57 11.333 73 34s24 54 24 94v90zM404.999 111.999c0 -10 2.66895 -18.832 8.00195 -26.499s12 -11.5 20 -11.5s14 1 18 3v-70c-6.66699 -3.33301 -14.5 -6.33301 -23.5 -9s-18.833 -4 -29.5 -4c-24 0 -44.833 5.33301 -62.5 16s-27.167 29 -28.5 55h-2
c-14.667 -26.667 -32.667 -46.5 -54 -59.5s-48 -19.5 -80 -19.5c-44 0 -78.333 12.167 -103 36.5s-37 62.5 -37 114.5c0 30 3.16699 54.5 9.5 73.5s15 34.667 26 47s24.167 22 39.5 29s32 13.5 50 19.5l84 23c19.333 5.33301 34.666 12.333 45.999 21s17 24.667 17 48
c0 24.667 -5.16699 44.167 -15.5 58.5s-29.833 21.5 -58.5 21.5c-18 0 -32.333 -3 -43 -9s-19 -13.667 -25 -23s-9.83301 -20.333 -11.5 -33s-2.5 -25.334 -2.5 -38.001h-102c0 28.667 3.16699 54 9.5 76s16.833 40.5 31.5 55.5s34.167 26.333 58.5 34
s54.166 11.5 89.499 11.5c24 0 46.333 -2.5 67 -7.5s38.667 -12.667 54 -23s27.5 -23.833 36.5 -40.5s13.5 -37 13.5 -61v-308zM247.001 752h120l-106 -144h-74z" />
    <glyph glyph-name="acircumflex" unicode="&#xe2;" horiz-adv-x="463" 
d="M303 284c-7.33301 -5.33301 -16.167 -10.167 -26.5 -14.5s-21 -8.5 -32 -12.5l-33 -11.5c-11 -3.66699 -20.5 -7.5 -28.5 -11.5c-15.333 -7.33301 -26.5 -18.666 -33.5 -33.999s-10.5 -33 -10.5 -53c0 -22.667 5.5 -41.834 16.5 -57.501s27.833 -23.5 50.5 -23.5
c32.667 0 57 11.333 73 34s24 54 24 94v90zM404.999 111.999c0 -10 2.66895 -18.832 8.00195 -26.499s12 -11.5 20 -11.5s14 1 18 3v-70c-6.66699 -3.33301 -14.5 -6.33301 -23.5 -9s-18.833 -4 -29.5 -4c-24 0 -44.833 5.33301 -62.5 16s-27.167 29 -28.5 55h-2
c-14.667 -26.667 -32.667 -46.5 -54 -59.5s-48 -19.5 -80 -19.5c-44 0 -78.333 12.167 -103 36.5s-37 62.5 -37 114.5c0 30 3.16699 54.5 9.5 73.5s15 34.667 26 47s24.167 22 39.5 29s32 13.5 50 19.5l84 23c19.333 5.33301 34.666 12.333 45.999 21s17 24.667 17 48
c0 24.667 -5.16699 44.167 -15.5 58.5s-29.833 21.5 -58.5 21.5c-18 0 -32.333 -3 -43 -9s-19 -13.667 -25 -23s-9.83301 -20.333 -11.5 -33s-2.5 -25.334 -2.5 -38.001h-102c0 28.667 3.16699 54 9.5 76s16.833 40.5 31.5 55.5s34.167 26.333 58.5 34
s54.166 11.5 89.499 11.5c24 0 46.333 -2.5 67 -7.5s38.667 -12.667 54 -23s27.5 -23.833 36.5 -40.5s13.5 -37 13.5 -61v-308zM178.001 752h108l89 -144h-91l-54 88l-57 -88h-86z" />
    <glyph glyph-name="atilde" unicode="&#xe3;" horiz-adv-x="463" 
d="M303 284c-7.33301 -5.33301 -16.167 -10.167 -26.5 -14.5s-21 -8.5 -32 -12.5l-33 -11.5c-11 -3.66699 -20.5 -7.5 -28.5 -11.5c-15.333 -7.33301 -26.5 -18.666 -33.5 -33.999s-10.5 -33 -10.5 -53c0 -22.667 5.5 -41.834 16.5 -57.501s27.833 -23.5 50.5 -23.5
c32.667 0 57 11.333 73 34s24 54 24 94v90zM404.999 111.999c0 -10 2.66895 -18.832 8.00195 -26.499s12 -11.5 20 -11.5s14 1 18 3v-70c-6.66699 -3.33301 -14.5 -6.33301 -23.5 -9s-18.833 -4 -29.5 -4c-24 0 -44.833 5.33301 -62.5 16s-27.167 29 -28.5 55h-2
c-14.667 -26.667 -32.667 -46.5 -54 -59.5s-48 -19.5 -80 -19.5c-44 0 -78.333 12.167 -103 36.5s-37 62.5 -37 114.5c0 30 3.16699 54.5 9.5 73.5s15 34.667 26 47s24.167 22 39.5 29s32 13.5 50 19.5l84 23c19.333 5.33301 34.666 12.333 45.999 21s17 24.667 17 48
c0 24.667 -5.16699 44.167 -15.5 58.5s-29.833 21.5 -58.5 21.5c-18 0 -32.333 -3 -43 -9s-19 -13.667 -25 -23s-9.83301 -20.333 -11.5 -33s-2.5 -25.334 -2.5 -38.001h-102c0 28.667 3.16699 54 9.5 76s16.833 40.5 31.5 55.5s34.167 26.333 58.5 34
s54.166 11.5 89.499 11.5c24 0 46.333 -2.5 67 -7.5s38.667 -12.667 54 -23s27.5 -23.833 36.5 -40.5s13.5 -37 13.5 -61v-308zM380.001 742c0 -11.333 -1.83398 -23.8311 -5.50098 -37.498s-9 -26.5 -16 -38.5s-16 -22 -27 -30s-23.5 -12 -37.5 -12
c-11.333 0 -22.5 1.83301 -33.5 5.5s-21.667 7.66699 -32 12l-29 12c-9 3.66699 -17.5 5.5 -25.5 5.5c-11.333 0 -19.833 -4.16699 -25.5 -12.5s-8.5 -17.5 -8.5 -27.5h-62c0 10.667 1.83301 23 5.5 37s9.5 27.167 17.5 39.5s18.333 22.666 31 30.999
s28.334 12.5 47.001 12.5c8 0 16.5 -1.83301 25.5 -5.5l27.5 -11.5c9.33301 -4.66699 18.833 -8.83398 28.5 -12.501s18.834 -5.5 27.501 -5.5c11.333 0 19.166 4 23.499 12s6.5 16.667 6.5 26h62z" />
    <glyph glyph-name="adieresis" unicode="&#xe4;" horiz-adv-x="463" 
d="M303 284c-7.33301 -5.33301 -16.167 -10.167 -26.5 -14.5s-21 -8.5 -32 -12.5l-33 -11.5c-11 -3.66699 -20.5 -7.5 -28.5 -11.5c-15.333 -7.33301 -26.5 -18.666 -33.5 -33.999s-10.5 -33 -10.5 -53c0 -22.667 5.5 -41.834 16.5 -57.501s27.833 -23.5 50.5 -23.5
c32.667 0 57 11.333 73 34s24 54 24 94v90zM404.999 111.999c0 -10 2.66895 -18.832 8.00195 -26.499s12 -11.5 20 -11.5s14 1 18 3v-70c-6.66699 -3.33301 -14.5 -6.33301 -23.5 -9s-18.833 -4 -29.5 -4c-24 0 -44.833 5.33301 -62.5 16s-27.167 29 -28.5 55h-2
c-14.667 -26.667 -32.667 -46.5 -54 -59.5s-48 -19.5 -80 -19.5c-44 0 -78.333 12.167 -103 36.5s-37 62.5 -37 114.5c0 30 3.16699 54.5 9.5 73.5s15 34.667 26 47s24.167 22 39.5 29s32 13.5 50 19.5l84 23c19.333 5.33301 34.666 12.333 45.999 21s17 24.667 17 48
c0 24.667 -5.16699 44.167 -15.5 58.5s-29.833 21.5 -58.5 21.5c-18 0 -32.333 -3 -43 -9s-19 -13.667 -25 -23s-9.83301 -20.333 -11.5 -33s-2.5 -25.334 -2.5 -38.001h-102c0 28.667 3.16699 54 9.5 76s16.833 40.5 31.5 55.5s34.167 26.333 58.5 34
s54.166 11.5 89.499 11.5c24 0 46.333 -2.5 67 -7.5s38.667 -12.667 54 -23s27.5 -23.833 36.5 -40.5s13.5 -37 13.5 -61v-308zM98.001 734h96v-108h-96v108zM264.001 734h96v-108h-96v108z" />
    <glyph glyph-name="aring" unicode="&#xe5;" horiz-adv-x="463" 
d="M303 284c-7.33301 -5.33301 -16.167 -10.167 -26.5 -14.5s-21 -8.5 -32 -12.5l-33 -11.5c-11 -3.66699 -20.5 -7.5 -28.5 -11.5c-15.333 -7.33301 -26.5 -18.666 -33.5 -33.999s-10.5 -33 -10.5 -53c0 -22.667 5.5 -41.834 16.5 -57.501s27.833 -23.5 50.5 -23.5
c32.667 0 57 11.333 73 34s24 54 24 94v90zM404.999 111.999c0 -10 2.66895 -18.832 8.00195 -26.499s12 -11.5 20 -11.5s14 1 18 3v-70c-6.66699 -3.33301 -14.5 -6.33301 -23.5 -9s-18.833 -4 -29.5 -4c-24 0 -44.833 5.33301 -62.5 16s-27.167 29 -28.5 55h-2
c-14.667 -26.667 -32.667 -46.5 -54 -59.5s-48 -19.5 -80 -19.5c-44 0 -78.333 12.167 -103 36.5s-37 62.5 -37 114.5c0 30 3.16699 54.5 9.5 73.5s15 34.667 26 47s24.167 22 39.5 29s32 13.5 50 19.5l84 23c19.333 5.33301 34.666 12.333 45.999 21s17 24.667 17 48
c0 24.667 -5.16699 44.167 -15.5 58.5s-29.833 21.5 -58.5 21.5c-18 0 -32.333 -3 -43 -9s-19 -13.667 -25 -23s-9.83301 -20.333 -11.5 -33s-2.5 -25.334 -2.5 -38.001h-102c0 28.667 3.16699 54 9.5 76s16.833 40.5 31.5 55.5s34.167 26.333 58.5 34
s54.166 11.5 89.499 11.5c24 0 46.333 -2.5 67 -7.5s38.667 -12.667 54 -23s27.5 -23.833 36.5 -40.5s13.5 -37 13.5 -61v-308zM123.001 696c0 30 10.167 54.833 30.5 74.5s45.5 29.5 75.5 29.5s55.167 -9.83301 75.5 -29.5s30.5 -44.5 30.5 -74.5
s-10.167 -54.833 -30.5 -74.5s-45.5 -29.5 -75.5 -29.5s-55.167 9.83301 -75.5 29.5s-30.5 44.5 -30.5 74.5zM173.001 696c0 -15.333 5.5 -28.5 16.5 -39.5s24.167 -16.5 39.5 -16.5s28.5 5.5 39.5 16.5s16.5 24.167 16.5 39.5s-5.5 28.5 -16.5 39.5
s-24.167 16.5 -39.5 16.5s-28.5 -5.5 -39.5 -16.5s-16.5 -24.167 -16.5 -39.5z" />
    <glyph glyph-name="ae" unicode="&#xe6;" horiz-adv-x="704" 
d="M296 276c-2.66699 -3.33301 -7.00098 -6.50098 -13.001 -9.50098s-12.667 -5.83301 -20 -8.5s-15 -5.16699 -23 -7.5l-22 -6.5c-18 -5.33301 -32.333 -11.5 -43 -18.5s-18.667 -14.833 -24 -23.5s-8.66602 -18 -9.99902 -28s-2 -21 -2 -33
c0 -19.333 5.5 -36.666 16.5 -51.999s26.5 -23 46.5 -23c32.667 0 56.5 10.333 71.5 31s22.5 52 22.5 94v85zM397.999 254.999l0.00292969 -38.001c0 -20 1.16699 -39.167 3.5 -57.5s6.33301 -34.833 12 -49.5s13.667 -26.5 24 -35.5s23.5 -13.833 39.5 -14.5
c19.333 0 34.666 4.66699 45.999 14s20 20.5 26 33.5s9.83301 26.333 11.5 40s2.5 24.5 2.5 32.5h102c0 -60.667 -16.833 -108.167 -50.5 -142.5s-79.834 -51.5 -138.501 -51.5c-26.667 0.666992 -48.667 4.66699 -66 12s-31.5 16 -42.5 26s-19.333 20.5 -25 31.5
s-10.167 20.5 -13.5 28.5c-13.333 -32 -32.833 -56.333 -58.5 -73s-54.5 -25 -86.5 -25c-20 0 -39.167 2.83301 -57.5 8.5s-34.666 14.667 -48.999 27s-25.666 28 -33.999 47s-12.5 41.833 -12.5 68.5c0 28.667 3.33301 52.334 10 71.001s16 34.167 28 46.5s26 22 42 29
s33.667 13.167 53 18.5l85 22c17.333 4.66699 29.333 11.667 36 21s10 27 10 53c0 24.667 -4.83301 44.167 -14.5 58.5s-26.834 21.5 -51.501 21.5c-18 0 -32.333 -3 -43 -9s-19 -13.667 -25 -23s-9.83301 -20.333 -11.5 -33s-2.5 -25.334 -2.5 -38.001h-102
c0 28.667 3.16699 54 9.5 76s16.833 40.5 31.5 55.5s34.167 26.333 58.5 34s54.166 11.5 89.499 11.5c22 0 40.667 -2.66699 56 -8s27.833 -11.666 37.5 -18.999s17 -15 22 -23s8.5 -14.333 10.5 -19c13.333 22 31.5 38.833 54.5 50.5s48.833 17.834 77.5 18.501
c34 0 62.167 -5.5 84.5 -16.5s40.166 -26.833 53.499 -47.5s22.833 -45.834 28.5 -75.501s8.5 -63.167 8.5 -100.5v-57h-269zM559.002 328.998v29.001c0 34 -5.83301 62.5 -17.5 85.5s-31.834 34.5 -60.501 34.5c-16 0 -29.333 -4.5 -40 -13.5s-19.167 -20 -25.5 -33
s-10.666 -26.833 -12.999 -41.5s-3.5 -27.334 -3.5 -38.001v-23h160z" />
    <glyph glyph-name="ccedilla" unicode="&#xe7;" horiz-adv-x="444" 
d="M415 196c-3.33301 -48.667 -11.999 -89.667 -25.999 -123s-38.667 -57.666 -74 -72.999c-21.333 -7.33301 -44.333 -12 -69 -14l-32 -46c7.33301 2 14.166 3.33301 20.499 4s12.833 1 19.5 1c22.667 0 41.334 -7.33301 56.001 -22s22 -32 22 -52
c0 -28 -11 -50.333 -33 -67s-50 -25.667 -84 -27c-22.667 0 -42.167 1.66699 -58.5 5s-30.5 7.33301 -42.5 12l16 40c20 -8.66699 43 -13 69 -13c16 0 28.833 3.16699 38.5 9.5s14.5 17.166 14.5 32.499c0 11.333 -4.5 20.5 -13.5 27.5s-19.833 10.5 -32.5 10.5
c-7.33301 0 -14 -0.666992 -20 -2s-12 -3.33301 -18 -6l-18 17l48 78c-24.667 3.33301 -46.334 9.33301 -65.001 18c-38 21.333 -64.5 54.333 -79.5 99s-22.5 99.334 -22.5 164.001c0 42 3.16699 80.333 9.5 115s17 64.5 32 89.5s35.333 44.333 61 58s58.167 20.5 97.5 20.5
c40 0.666992 72.167 -5.83301 96.5 -19.5s43 -30.5 56 -50.5s21.667 -41.333 26 -64s6.5 -42.334 6.5 -59.001h-108c0 12.667 -1 25.834 -3 39.501s-5.83301 26 -11.5 37s-13.5 20 -23.5 27s-23 10.167 -39 9.5c-19.333 0 -35 -5 -47 -15s-21.333 -24 -28 -42
s-11.167 -39.333 -13.5 -64s-3.5 -52 -3.5 -82s1.16699 -57.333 3.5 -82s6.83301 -46 13.5 -64s16 -32 28 -42s27.667 -15 47 -15c30 -0.666992 51.167 10.666 63.5 33.999s18.5 55.333 18.5 96h102z" />
    <glyph glyph-name="egrave" unicode="&#xe8;" horiz-adv-x="463" 
d="M318 329l-0.000976562 29c0 34 -6.16699 62.5 -18.5 85.5s-33.833 34.5 -64.5 34.5c-17.333 0 -31.666 -3.83301 -42.999 -11.5s-20.5 -18 -27.5 -31s-12 -27.833 -15 -44.5s-4.5 -33.667 -4.5 -51v-11h173zM144.999 255l0.00195312 -31.001
c0 -18 0.833008 -36.667 2.5 -56s5.66699 -37 12 -53s15.5 -29.167 27.5 -39.5s28 -15.5 48 -15.5c19.333 0 34.666 4.66699 45.999 14s20 20.5 26 33.5s9.83301 26.333 11.5 40s2.5 24.5 2.5 32.5h102c0 -60.667 -16.833 -108.167 -50.5 -142.5
s-79.834 -51.5 -138.501 -51.5c-22 0 -44.667 2.66699 -68 8s-44.5 17.333 -63.5 36s-34.667 46.334 -47 83.001s-18.5 86 -18.5 148c0 35.333 2.5 70.333 7.5 105s14.667 65.834 29 93.501s34.5 50 60.5 67s60 25.5 102 25.5c37.333 0 68.333 -5.5 93 -16.5
s44.167 -26.833 58.5 -47.5s24.333 -45.834 30 -75.501s8.5 -63.167 8.5 -100.5v-57h-281zM114.001 751.999h120l60 -144h-74z" />
    <glyph glyph-name="eacute" unicode="&#xe9;" horiz-adv-x="463" 
d="M318 329l-0.000976562 29c0 34 -6.16699 62.5 -18.5 85.5s-33.833 34.5 -64.5 34.5c-17.333 0 -31.666 -3.83301 -42.999 -11.5s-20.5 -18 -27.5 -31s-12 -27.833 -15 -44.5s-4.5 -33.667 -4.5 -51v-11h173zM144.999 255l0.00195312 -31.001
c0 -18 0.833008 -36.667 2.5 -56s5.66699 -37 12 -53s15.5 -29.167 27.5 -39.5s28 -15.5 48 -15.5c19.333 0 34.666 4.66699 45.999 14s20 20.5 26 33.5s9.83301 26.333 11.5 40s2.5 24.5 2.5 32.5h102c0 -60.667 -16.833 -108.167 -50.5 -142.5
s-79.834 -51.5 -138.501 -51.5c-22 0 -44.667 2.66699 -68 8s-44.5 17.333 -63.5 36s-34.667 46.334 -47 83.001s-18.5 86 -18.5 148c0 35.333 2.5 70.333 7.5 105s14.667 65.834 29 93.501s34.5 50 60.5 67s60 25.5 102 25.5c37.333 0 68.333 -5.5 93 -16.5
s44.167 -26.833 58.5 -47.5s24.333 -45.834 30 -75.501s8.5 -63.167 8.5 -100.5v-57h-281zM261.001 751.999h120l-106 -144h-74z" />
    <glyph glyph-name="ecircumflex" unicode="&#xea;" horiz-adv-x="463" 
d="M318 329l-0.000976562 29c0 34 -6.16699 62.5 -18.5 85.5s-33.833 34.5 -64.5 34.5c-17.333 0 -31.666 -3.83301 -42.999 -11.5s-20.5 -18 -27.5 -31s-12 -27.833 -15 -44.5s-4.5 -33.667 -4.5 -51v-11h173zM144.999 255l0.00195312 -31.001
c0 -18 0.833008 -36.667 2.5 -56s5.66699 -37 12 -53s15.5 -29.167 27.5 -39.5s28 -15.5 48 -15.5c19.333 0 34.666 4.66699 45.999 14s20 20.5 26 33.5s9.83301 26.333 11.5 40s2.5 24.5 2.5 32.5h102c0 -60.667 -16.833 -108.167 -50.5 -142.5
s-79.834 -51.5 -138.501 -51.5c-22 0 -44.667 2.66699 -68 8s-44.5 17.333 -63.5 36s-34.667 46.334 -47 83.001s-18.5 86 -18.5 148c0 35.333 2.5 70.333 7.5 105s14.667 65.834 29 93.501s34.5 50 60.5 67s60 25.5 102 25.5c37.333 0 68.333 -5.5 93 -16.5
s44.167 -26.833 58.5 -47.5s24.333 -45.834 30 -75.501s8.5 -63.167 8.5 -100.5v-57h-281zM187.001 751.999h108l89 -144h-91l-54 88l-57 -88h-86z" />
    <glyph glyph-name="edieresis" unicode="&#xeb;" horiz-adv-x="463" 
d="M318 329l-0.000976562 29c0 34 -6.16699 62.5 -18.5 85.5s-33.833 34.5 -64.5 34.5c-17.333 0 -31.666 -3.83301 -42.999 -11.5s-20.5 -18 -27.5 -31s-12 -27.833 -15 -44.5s-4.5 -33.667 -4.5 -51v-11h173zM144.999 255l0.00195312 -31.001
c0 -18 0.833008 -36.667 2.5 -56s5.66699 -37 12 -53s15.5 -29.167 27.5 -39.5s28 -15.5 48 -15.5c19.333 0 34.666 4.66699 45.999 14s20 20.5 26 33.5s9.83301 26.333 11.5 40s2.5 24.5 2.5 32.5h102c0 -60.667 -16.833 -108.167 -50.5 -142.5
s-79.834 -51.5 -138.501 -51.5c-22 0 -44.667 2.66699 -68 8s-44.5 17.333 -63.5 36s-34.667 46.334 -47 83.001s-18.5 86 -18.5 148c0 35.333 2.5 70.333 7.5 105s14.667 65.834 29 93.501s34.5 50 60.5 67s60 25.5 102 25.5c37.333 0 68.333 -5.5 93 -16.5
s44.167 -26.833 58.5 -47.5s24.333 -45.834 30 -75.501s8.5 -63.167 8.5 -100.5v-57h-281zM109.001 733.999h96v-108h-96v108zM275.001 733.999h96v-108h-96v108z" />
    <glyph glyph-name="igrave" unicode="&#xec;" 
d="M57 538h108v-538h-108v538zM-18 752h120l60 -144h-74z" />
    <glyph glyph-name="iacute" unicode="&#xed;" 
d="M57 538h108v-538h-108v538zM118 752h120l-106 -144h-74z" />
    <glyph glyph-name="icircumflex" unicode="&#xee;" 
d="M57 538h108v-538h-108v538zM58 752h108l89 -144h-91l-54 88l-57 -88h-86z" />
    <glyph glyph-name="idieresis" unicode="&#xef;" 
d="M57 538h108v-538h-108v538zM-20 734h96v-108h-96v108zM146 734h96v-108h-96v108z" />
    <glyph glyph-name="eth" unicode="&#xf0;" horiz-adv-x="463" 
d="M58 634l86 46.998c-11.333 10.667 -22.333 20.334 -33 29.001s-21 16.334 -31 23.001l79 43c10.667 -6.66699 21.5 -14.5 32.5 -23.5l33.5 -27.5l91 49l32 -36l-86 -47c32.667 -31.333 60 -62 82 -92s39.5 -61.5 52.5 -94.5s22.167 -68.5 27.5 -106.5s8 -81 8 -129
c0 -42 -3.5 -80.333 -10.5 -115s-18.333 -64.5 -34 -89.5s-36.334 -44.333 -62.001 -58s-57.167 -20.5 -94.5 -20.5s-68.666 6.83301 -93.999 20.5s-45.833 33 -61.5 58s-27 54.833 -34 89.5s-10.5 73 -10.5 115c0 40 3.33301 76.5 10 109.5s17.5 61.333 32.5 85
s34 42 57 55s51.167 19.5 84.5 19.5c34.667 0 62 -11 82 -33l2 2c-13.333 19.333 -30.5 41.5 -51.5 66.5s-43.167 49.167 -66.5 72.5l-87 -48zM139 268.998c0 -34 1.16699 -63.833 3.5 -89.5s6.83301 -46.834 13.5 -63.501s16 -29.167 28 -37.5s27.667 -12.5 47 -12.5
c20 0 36 4.16699 48 12.5s21.333 20.833 28 37.5s11.167 37.834 13.5 63.501s3.5 55.5 3.5 89.5c0 26 -1.16699 50.5 -3.5 73.5s-6.83301 43 -13.5 60s-16 30.5 -28 40.5s-28 15 -48 15c-19.333 0 -35 -5 -47 -15s-21.333 -23.5 -28 -40.5s-11.167 -37 -13.5 -60
s-3.5 -47.5 -3.5 -73.5z" />
    <glyph glyph-name="ntilde" unicode="&#xf1;" horiz-adv-x="481" 
d="M52 538h102.001v-63h3c13.333 24 32.166 42.833 56.499 56.5s51.5 20.5 81.5 20.5c20.667 0 39.167 -2.5 55.5 -7.5s30.333 -13.167 42 -24.5s20.667 -26.333 27 -45s9.5 -41.667 9.5 -69v-406h-108v369c0 36 -5.5 61.167 -16.5 75.5s-30.5 21.5 -58.5 21.5
c-22 0 -41.833 -8.5 -59.5 -25.5s-26.5 -43.5 -26.5 -79.5v-361h-108v538zM391.001 742c0 -11.333 -1.83398 -23.8311 -5.50098 -37.498s-9 -26.5 -16 -38.5s-16 -22 -27 -30s-23.5 -12 -37.5 -12c-11.333 0 -22.5 1.83301 -33.5 5.5s-21.667 7.66699 -32 12l-29 12
c-9 3.66699 -17.5 5.5 -25.5 5.5c-11.333 0 -19.833 -4.16699 -25.5 -12.5s-8.5 -17.5 -8.5 -27.5h-62c0 10.667 1.83301 23 5.5 37s9.5 27.167 17.5 39.5s18.333 22.666 31 30.999s28.334 12.5 47.001 12.5c8 0 16.5 -1.83301 25.5 -5.5l27.5 -11.5
c9.33301 -4.66699 18.833 -8.83398 28.5 -12.501s18.834 -5.5 27.501 -5.5c11.333 0 19.166 4 23.499 12s6.5 16.667 6.5 26h62z" />
    <glyph glyph-name="ograve" unicode="&#xf2;" horiz-adv-x="463" 
d="M139 269c0 -34 1.16699 -63.833 3.5 -89.5s6.83301 -46.834 13.5 -63.501s16 -29.167 28 -37.5s27.667 -12.5 47 -12.5c20 0 36 4.16699 48 12.5s21.333 20.833 28 37.5s11.167 37.834 13.5 63.501s3.5 55.5 3.5 89.5c0 30 -1.16699 57.333 -3.5 82s-6.83301 46 -13.5 64
s-16 32 -28 42s-28 15 -48 15c-19.333 0 -35 -5 -47 -15s-21.333 -24 -28 -42s-11.167 -39.333 -13.5 -64s-3.5 -52 -3.5 -82zM231 -14c-37.333 0 -68.665 6.83301 -93.998 20.5s-45.833 33 -61.5 58s-27 54.833 -34 89.5s-10.5 73 -10.5 115s3.16699 80.333 9.5 115
s17 64.5 32 89.5s35.333 44.333 61 58s58.167 20.5 97.5 20.5c38.667 0 71 -6.83301 97 -20.5s46.667 -33 62 -58s26.166 -54.833 32.499 -89.5s9.5 -73 9.5 -115s-3.5 -80.333 -10.5 -115s-18.333 -64.5 -34 -89.5s-36.334 -44.333 -62.001 -58s-57.167 -20.5 -94.5 -20.5z
M97.001 752h120l60 -144h-74z" />
    <glyph glyph-name="oacute" unicode="&#xf3;" horiz-adv-x="463" 
d="M139 269c0 -34 1.16699 -63.833 3.5 -89.5s6.83301 -46.834 13.5 -63.501s16 -29.167 28 -37.5s27.667 -12.5 47 -12.5c20 0 36 4.16699 48 12.5s21.333 20.833 28 37.5s11.167 37.834 13.5 63.501s3.5 55.5 3.5 89.5c0 30 -1.16699 57.333 -3.5 82s-6.83301 46 -13.5 64
s-16 32 -28 42s-28 15 -48 15c-19.333 0 -35 -5 -47 -15s-21.333 -24 -28 -42s-11.167 -39.333 -13.5 -64s-3.5 -52 -3.5 -82zM231 -14c-37.333 0 -68.665 6.83301 -93.998 20.5s-45.833 33 -61.5 58s-27 54.833 -34 89.5s-10.5 73 -10.5 115s3.16699 80.333 9.5 115
s17 64.5 32 89.5s35.333 44.333 61 58s58.167 20.5 97.5 20.5c38.667 0 71 -6.83301 97 -20.5s46.667 -33 62 -58s26.166 -54.833 32.499 -89.5s9.5 -73 9.5 -115s-3.5 -80.333 -10.5 -115s-18.333 -64.5 -34 -89.5s-36.334 -44.333 -62.001 -58s-57.167 -20.5 -94.5 -20.5z
M250.001 752h120l-106 -144h-74z" />
    <glyph glyph-name="ocircumflex" unicode="&#xf4;" horiz-adv-x="463" 
d="M139 269c0 -34 1.16699 -63.833 3.5 -89.5s6.83301 -46.834 13.5 -63.501s16 -29.167 28 -37.5s27.667 -12.5 47 -12.5c20 0 36 4.16699 48 12.5s21.333 20.833 28 37.5s11.167 37.834 13.5 63.501s3.5 55.5 3.5 89.5c0 30 -1.16699 57.333 -3.5 82s-6.83301 46 -13.5 64
s-16 32 -28 42s-28 15 -48 15c-19.333 0 -35 -5 -47 -15s-21.333 -24 -28 -42s-11.167 -39.333 -13.5 -64s-3.5 -52 -3.5 -82zM231 -14c-37.333 0 -68.665 6.83301 -93.998 20.5s-45.833 33 -61.5 58s-27 54.833 -34 89.5s-10.5 73 -10.5 115s3.16699 80.333 9.5 115
s17 64.5 32 89.5s35.333 44.333 61 58s58.167 20.5 97.5 20.5c38.667 0 71 -6.83301 97 -20.5s46.667 -33 62 -58s26.166 -54.833 32.499 -89.5s9.5 -73 9.5 -115s-3.5 -80.333 -10.5 -115s-18.333 -64.5 -34 -89.5s-36.334 -44.333 -62.001 -58s-57.167 -20.5 -94.5 -20.5z
M178.001 752h108l89 -144h-91l-54 88l-57 -88h-86z" />
    <glyph glyph-name="otilde" unicode="&#xf5;" horiz-adv-x="463" 
d="M139 269c0 -34 1.16699 -63.833 3.5 -89.5s6.83301 -46.834 13.5 -63.501s16 -29.167 28 -37.5s27.667 -12.5 47 -12.5c20 0 36 4.16699 48 12.5s21.333 20.833 28 37.5s11.167 37.834 13.5 63.501s3.5 55.5 3.5 89.5c0 30 -1.16699 57.333 -3.5 82s-6.83301 46 -13.5 64
s-16 32 -28 42s-28 15 -48 15c-19.333 0 -35 -5 -47 -15s-21.333 -24 -28 -42s-11.167 -39.333 -13.5 -64s-3.5 -52 -3.5 -82zM231 -14c-37.333 0 -68.665 6.83301 -93.998 20.5s-45.833 33 -61.5 58s-27 54.833 -34 89.5s-10.5 73 -10.5 115s3.16699 80.333 9.5 115
s17 64.5 32 89.5s35.333 44.333 61 58s58.167 20.5 97.5 20.5c38.667 0 71 -6.83301 97 -20.5s46.667 -33 62 -58s26.166 -54.833 32.499 -89.5s9.5 -73 9.5 -115s-3.5 -80.333 -10.5 -115s-18.333 -64.5 -34 -89.5s-36.334 -44.333 -62.001 -58s-57.167 -20.5 -94.5 -20.5z
M382.001 742c0 -11.333 -1.83398 -23.8311 -5.50098 -37.498s-9 -26.5 -16 -38.5s-16 -22 -27 -30s-23.5 -12 -37.5 -12c-11.333 0 -22.5 1.83301 -33.5 5.5s-21.667 7.66699 -32 12l-29 12c-9 3.66699 -17.5 5.5 -25.5 5.5c-11.333 0 -19.833 -4.16699 -25.5 -12.5
s-8.5 -17.5 -8.5 -27.5h-62c0 10.667 1.83301 23 5.5 37s9.5 27.167 17.5 39.5s18.333 22.666 31 30.999s28.334 12.5 47.001 12.5c8 0 16.5 -1.83301 25.5 -5.5l27.5 -11.5c9.33301 -4.66699 18.833 -8.83398 28.5 -12.501s18.834 -5.5 27.501 -5.5
c11.333 0 19.166 4 23.499 12s6.5 16.667 6.5 26h62z" />
    <glyph glyph-name="odieresis" unicode="&#xf6;" horiz-adv-x="463" 
d="M139 269c0 -34 1.16699 -63.833 3.5 -89.5s6.83301 -46.834 13.5 -63.501s16 -29.167 28 -37.5s27.667 -12.5 47 -12.5c20 0 36 4.16699 48 12.5s21.333 20.833 28 37.5s11.167 37.834 13.5 63.501s3.5 55.5 3.5 89.5c0 30 -1.16699 57.333 -3.5 82s-6.83301 46 -13.5 64
s-16 32 -28 42s-28 15 -48 15c-19.333 0 -35 -5 -47 -15s-21.333 -24 -28 -42s-11.167 -39.333 -13.5 -64s-3.5 -52 -3.5 -82zM231 -14c-37.333 0 -68.665 6.83301 -93.998 20.5s-45.833 33 -61.5 58s-27 54.833 -34 89.5s-10.5 73 -10.5 115s3.16699 80.333 9.5 115
s17 64.5 32 89.5s35.333 44.333 61 58s58.167 20.5 97.5 20.5c38.667 0 71 -6.83301 97 -20.5s46.667 -33 62 -58s26.166 -54.833 32.499 -89.5s9.5 -73 9.5 -115s-3.5 -80.333 -10.5 -115s-18.333 -64.5 -34 -89.5s-36.334 -44.333 -62.001 -58s-57.167 -20.5 -94.5 -20.5z
M100.001 734h96v-108h-96v108zM266.001 734h96v-108h-96v108z" />
    <glyph glyph-name="divide" unicode="&#xf7;" horiz-adv-x="600" 
d="M228 458c0 20 7 37 21 51s31 21 51 21s37 -7 51 -21s21 -31 21 -51s-7 -37 -21 -51s-31 -21 -51 -21s-37 7 -51 21s-21 31 -21 51zM47 296h506v-86h-506v86zM228 48c0 20 7 37 21 51s31 21 51 21s37 -7 51 -21s21 -31 21 -51s-7 -37 -21 -51s-31 -21 -51 -21
s-37 7 -51 21s-21 31 -21 51z" />
    <glyph glyph-name="oslash" unicode="&#xf8;" horiz-adv-x="463" 
d="M94 38c-23.333 23.333 -39.667 55 -49 95s-14 85.333 -14 136c0 42 3.16699 80.333 9.5 115s17 64.5 32 89.5s35.333 44.333 61 58s58.167 20.5 97.5 20.5c36.667 0 67.667 -6.66699 93 -20l30 65l48 -26l-33 -70c23.333 -23.333 39.666 -54.833 48.999 -94.5
s14 -85.5 14 -137.5c0 -42 -3.16699 -80.333 -9.5 -115s-17.166 -64.5 -32.499 -89.5s-36 -44.333 -62 -58s-58.333 -20.5 -97 -20.5c-37.333 0 -68.333 6.33301 -93 19l-31 -67l-48 26zM176.999 88c12.667 -14.667 30.667 -22 54 -22c20 0 36 5 48 15s21.333 24 28 42
s11.167 39.333 13.5 64s3.5 52 3.5 82c0 22.667 -0.5 43.667 -1.5 63s-3.16699 37.333 -6.5 54h-2zM285.999 450c-14.667 14.667 -33 22 -55 22c-19.333 0 -35 -5 -47 -15s-21.333 -24 -28 -42s-11.167 -39.333 -13.5 -64s-3.5 -52 -3.5 -82c0 -22 0.5 -42.667 1.5 -62
s2.83301 -37.333 5.5 -54h2z" />
    <glyph glyph-name="ugrave" unicode="&#xf9;" horiz-adv-x="481" 
d="M327 63h-3.00098c-13.333 -24 -32.166 -42.833 -56.499 -56.5s-51.5 -20.5 -81.5 -20.5c-20 0 -38.167 2.66699 -54.5 8s-30.5 14.666 -42.5 27.999s-21.167 31.333 -27.5 54s-9.5 51.334 -9.5 86.001v376h108v-386c0 -30 6.33301 -50.833 19 -62.5
s30.667 -17.5 54 -17.5s43.833 7.5 61.5 22.5s26.5 37.5 26.5 67.5v376h108v-538h-102v63zM101.999 752h120l60 -144h-74z" />
    <glyph glyph-name="uacute" unicode="&#xfa;" horiz-adv-x="481" 
d="M327 63h-3.00098c-13.333 -24 -32.166 -42.833 -56.499 -56.5s-51.5 -20.5 -81.5 -20.5c-20 0 -38.167 2.66699 -54.5 8s-30.5 14.666 -42.5 27.999s-21.167 31.333 -27.5 54s-9.5 51.334 -9.5 86.001v376h108v-386c0 -30 6.33301 -50.833 19 -62.5
s30.667 -17.5 54 -17.5s43.833 7.5 61.5 22.5s26.5 37.5 26.5 67.5v376h108v-538h-102v63zM260.999 752h120l-106 -144h-74z" />
    <glyph glyph-name="ucircumflex" unicode="&#xfb;" horiz-adv-x="481" 
d="M327 63h-3.00098c-13.333 -24 -32.166 -42.833 -56.499 -56.5s-51.5 -20.5 -81.5 -20.5c-20 0 -38.167 2.66699 -54.5 8s-30.5 14.666 -42.5 27.999s-21.167 31.333 -27.5 54s-9.5 51.334 -9.5 86.001v376h108v-386c0 -30 6.33301 -50.833 19 -62.5
s30.667 -17.5 54 -17.5s43.833 7.5 61.5 22.5s26.5 37.5 26.5 67.5v376h108v-538h-102v63zM188.999 752h108l89 -144h-91l-54 88l-57 -88h-86z" />
    <glyph glyph-name="udieresis" unicode="&#xfc;" horiz-adv-x="481" 
d="M327 63h-3.00098c-13.333 -24 -32.166 -42.833 -56.499 -56.5s-51.5 -20.5 -81.5 -20.5c-20 0 -38.167 2.66699 -54.5 8s-30.5 14.666 -42.5 27.999s-21.167 31.333 -27.5 54s-9.5 51.334 -9.5 86.001v376h108v-386c0 -30 6.33301 -50.833 19 -62.5
s30.667 -17.5 54 -17.5s43.833 7.5 61.5 22.5s26.5 37.5 26.5 67.5v376h108v-538h-102v63zM110.999 734h96v-108h-96v108zM276.999 734h96v-108h-96v108z" />
    <glyph glyph-name="yacute" unicode="&#xfd;" horiz-adv-x="426" 
d="M124 538l92.999 -403.999h2l86 404h113l-148 -558c-10.667 -36.667 -21.167 -66 -31.5 -88s-22.5 -38.833 -36.5 -50.5s-30.5 -19 -49.5 -22s-42.5 -4.16699 -70.5 -3.5c-7.33301 0 -14.666 0.333008 -21.999 1s-14.333 1.66699 -21 3v86c10 -2.66699 21.667 -4 35 -4
c18.667 0 34 2.66699 46 8s21 16.666 27 33.999l14 44l-153 550h116zM235.999 752.001h120l-106 -144h-74z" />
    <glyph glyph-name="thorn" unicode="&#xfe;" horiz-adv-x="481" 
d="M154 275c0 -32 1.17188 -60.6641 3.50488 -85.9971s7 -46.666 14 -63.999s16.333 -30.5 28 -39.5s27.167 -13.5 46.5 -13.5c15.333 0 28.666 3.16699 39.999 9.5s20.666 17 27.999 32s12.833 35 16.5 60s5.5 56.167 5.5 93.5c0 30.667 -1.16699 58.167 -3.5 82.5
s-6.83301 45.166 -13.5 62.499s-16 30.666 -28 39.999s-27.333 14 -46 14s-33.834 -4.5 -45.501 -13.5s-20.834 -21.833 -27.501 -38.5s-11.334 -36.834 -14.001 -60.501s-4 -49.834 -4 -78.501zM52.0049 714.003l108.001 0.000976562v-239h2c10 24 25.333 42.833 46 56.5
s46 20.5 76 20.5c58 0 100.167 -25.167 126.5 -75.5s39.5 -121.833 39.5 -214.5c0 -56.667 -5.16699 -102.834 -15.5 -138.501s-23.5 -63.667 -39.5 -84s-33.833 -34.333 -53.5 -42s-38.834 -11.5 -57.501 -11.5c-30 0 -55.333 6.83301 -76 20.5s-36 32.5 -46 56.5h-2v-239
h-108v890z" />
    <glyph glyph-name="ydieresis" unicode="&#xff;" horiz-adv-x="426" 
d="M124 538l92.999 -403.999h2l86 404h113l-148 -558c-10.667 -36.667 -21.167 -66 -31.5 -88s-22.5 -38.833 -36.5 -50.5s-30.5 -19 -49.5 -22s-42.5 -4.16699 -70.5 -3.5c-7.33301 0 -14.666 0.333008 -21.999 1s-14.333 1.66699 -21 3v86c10 -2.66699 21.667 -4 35 -4
c18.667 0 34 2.66699 46 8s21 16.666 27 33.999l14 44l-153 550h116zM84.999 734.001h96v-108h-96v108zM250.999 734.001h96v-108h-96v108z" />
    <glyph glyph-name="Amacron" unicode="&#x100;" horiz-adv-x="519" 
d="M194 714h146l188 -714h-119l-44 175h-209l-46 -175h-119zM346 266l-82 352h-2l-85 -352h169zM404 865v-62h-282v62h282z" />
    <glyph glyph-name="amacron" unicode="&#x101;" horiz-adv-x="463" 
d="M303 284c-7.33301 -5.33301 -16.167 -10.167 -26.5 -14.5s-21 -8.5 -32 -12.5l-33 -11.5c-11 -3.66699 -20.5 -7.5 -28.5 -11.5c-15.333 -7.33301 -26.5 -18.666 -33.5 -33.999s-10.5 -33 -10.5 -53c0 -22.667 5.5 -41.834 16.5 -57.501s27.833 -23.5 50.5 -23.5
c32.667 0 57 11.333 73 34s24 54 24 94v90zM404.999 111.999c0 -10 2.66895 -18.832 8.00195 -26.499s12 -11.5 20 -11.5s14 1 18 3v-70c-6.66699 -3.33301 -14.5 -6.33301 -23.5 -9s-18.833 -4 -29.5 -4c-24 0 -44.833 5.33301 -62.5 16s-27.167 29 -28.5 55h-2
c-14.667 -26.667 -32.667 -46.5 -54 -59.5s-48 -19.5 -80 -19.5c-44 0 -78.333 12.167 -103 36.5s-37 62.5 -37 114.5c0 30 3.16699 54.5 9.5 73.5s15 34.667 26 47s24.167 22 39.5 29s32 13.5 50 19.5l84 23c19.333 5.33301 34.666 12.333 45.999 21s17 24.667 17 48
c0 24.667 -5.16699 44.167 -15.5 58.5s-29.833 21.5 -58.5 21.5c-18 0 -32.333 -3 -43 -9s-19 -13.667 -25 -23s-9.83301 -20.333 -11.5 -33s-2.5 -25.334 -2.5 -38.001h-102c0 28.667 3.16699 54 9.5 76s16.833 40.5 31.5 55.5s34.167 26.333 58.5 34
s54.166 11.5 89.499 11.5c24 0 46.333 -2.5 67 -7.5s38.667 -12.667 54 -23s27.5 -23.833 36.5 -40.5s13.5 -37 13.5 -61v-308zM375.001 711v-62h-282v62h282z" />
    <glyph glyph-name="Abreve" unicode="&#x102;" horiz-adv-x="519" 
d="M194 714h146l188 -714h-119l-44 175h-209l-46 -175h-119zM346 266l-82 352h-2l-85 -352h169zM194 902c0 -6 1.49902 -12.833 4.49902 -20.5s7.5 -15 13.5 -22s13.333 -12.833 22 -17.5s19 -7 31 -7s22.333 2.33301 31 7s16 10.5 22 17.5s10.5 14.333 13.5 22
s4.5 14.5 4.5 20.5h62c0 -18.667 -3 -36.167 -9 -52.5s-14.667 -30.666 -26 -42.999s-25.333 -22 -42 -29s-35.334 -10.5 -56.001 -10.5c-21.333 0 -40.166 3.5 -56.499 10.5s-30.166 16.667 -41.499 29s-20 26.666 -26 42.999s-9 33.833 -9 52.5h62z" />
    <glyph glyph-name="abreve" unicode="&#x103;" horiz-adv-x="463" 
d="M303 284c-7.33301 -5.33301 -16.167 -10.167 -26.5 -14.5s-21 -8.5 -32 -12.5l-33 -11.5c-11 -3.66699 -20.5 -7.5 -28.5 -11.5c-15.333 -7.33301 -26.5 -18.666 -33.5 -33.999s-10.5 -33 -10.5 -53c0 -22.667 5.5 -41.834 16.5 -57.501s27.833 -23.5 50.5 -23.5
c32.667 0 57 11.333 73 34s24 54 24 94v90zM404.999 111.999c0 -10 2.66895 -18.832 8.00195 -26.499s12 -11.5 20 -11.5s14 1 18 3v-70c-6.66699 -3.33301 -14.5 -6.33301 -23.5 -9s-18.833 -4 -29.5 -4c-24 0 -44.833 5.33301 -62.5 16s-27.167 29 -28.5 55h-2
c-14.667 -26.667 -32.667 -46.5 -54 -59.5s-48 -19.5 -80 -19.5c-44 0 -78.333 12.167 -103 36.5s-37 62.5 -37 114.5c0 30 3.16699 54.5 9.5 73.5s15 34.667 26 47s24.167 22 39.5 29s32 13.5 50 19.5l84 23c19.333 5.33301 34.666 12.333 45.999 21s17 24.667 17 48
c0 24.667 -5.16699 44.167 -15.5 58.5s-29.833 21.5 -58.5 21.5c-18 0 -32.333 -3 -43 -9s-19 -13.667 -25 -23s-9.83301 -20.333 -11.5 -33s-2.5 -25.334 -2.5 -38.001h-102c0 28.667 3.16699 54 9.5 76s16.833 40.5 31.5 55.5s34.167 26.333 58.5 34
s54.166 11.5 89.499 11.5c24 0 46.333 -2.5 67 -7.5s38.667 -12.667 54 -23s27.5 -23.833 36.5 -40.5s13.5 -37 13.5 -61v-308zM159.001 748c0 -6 1.49902 -12.833 4.49902 -20.5s7.5 -15 13.5 -22s13.333 -12.833 22 -17.5s19 -7 31 -7s22.333 2.33301 31 7
s16 10.5 22 17.5s10.5 14.333 13.5 22s4.5 14.5 4.5 20.5h62c0 -18.667 -3 -36.167 -9 -52.5s-14.667 -30.666 -26 -42.999s-25.333 -22 -42 -29s-35.334 -10.5 -56.001 -10.5c-21.333 0 -40.166 3.5 -56.499 10.5s-30.166 16.667 -41.499 29s-20 26.666 -26 42.999
s-9 33.833 -9 52.5h62z" />
    <glyph glyph-name="Aogonek" unicode="&#x104;" horiz-adv-x="519" 
d="M459 0c-26 -25.333 -43.832 -46.833 -53.499 -64.5s-14.5 -36.167 -14.5 -55.5c0 -18.667 5.16699 -32.834 15.5 -42.501s24.166 -14.5 41.499 -14.5c6 0 13.167 0.666992 21.5 2s15.833 3 22.5 5l6 -42c-11.333 -3.33301 -24 -6 -38 -8s-27.333 -3 -40 -3
c-32 0 -58.167 7.16699 -78.5 21.5s-30.5 37.5 -30.5 69.5c0 24.667 9.33301 48.834 28 72.501s42 43.5 70 59.5l-44 175h-209l-46 -175h-119l203 714h146l188 -714h-69zM346.001 266l-82 352h-2l-85 -352h169z" />
    <glyph glyph-name="aogonek" unicode="&#x105;" horiz-adv-x="463" 
d="M405 112c0 -10 2.6709 -18.8311 8.00391 -26.498s12 -11.5 20 -11.5s14 1 18 3v-70c-7.33301 -3.33301 -15.333 -6.33301 -24 -9c-2.66699 -0.666992 -5.83398 -1.33398 -9.50098 -2.00098s-7.83398 -1.33398 -12.501 -2.00098c-24 -25.333 -39.667 -44.666 -47 -57.999
c-9.33301 -20 -14 -38.667 -14 -56c0 -18.667 5.16699 -32.834 15.5 -42.501s24.166 -14.5 41.499 -14.5c6 0 13.167 0.666992 21.5 2s15.833 3 22.5 5l6 -42c-11.333 -3.33301 -24 -6 -38 -8s-27.333 -3 -40 -3c-32 0 -58.167 7.16699 -78.5 21.5s-30.5 37.5 -30.5 69.5
c0 26 9.33301 50.333 28 73c19.333 24 42 43.333 68 58c-4.66699 1.33301 -9 2.83301 -13 4.5s-8 3.83398 -12 6.50098c-17.333 10.667 -26.666 29 -27.999 55h-2c-14.667 -26.667 -32.667 -46.5 -54 -59.5s-48 -19.5 -80 -19.5c-44 0 -78.333 12.167 -103 36.5
s-37 62.5 -37 114.5c0 30 3.16699 54.5 9.5 73.5s15 34.667 26 47s24.167 22 39.5 29s32 13.5 50 19.5l84 23c19.333 5.33301 34.666 12.333 45.999 21s17 24.667 17 48c0 24.667 -5.16699 44.167 -15.5 58.5s-29.833 21.5 -58.5 21.5c-18 0 -32.333 -3 -43 -9
s-19 -13.667 -25 -23s-9.83301 -20.333 -11.5 -33s-2.5 -25.334 -2.5 -38.001h-102c0 28.667 3.16699 54 9.5 76s16.833 40.5 31.5 55.5s34.167 26.333 58.5 34s54.166 11.5 89.499 11.5c24 0 46.333 -2.5 67 -7.5s38.667 -12.667 54 -23s27.5 -23.833 36.5 -40.5
s13.5 -37 13.5 -61v-308zM303.004 284.002c-7.33301 -5.33301 -16.167 -10.167 -26.5 -14.5s-21 -8.5 -32 -12.5l-33 -11.5c-11 -3.66699 -20.5 -7.5 -28.5 -11.5c-15.333 -7.33301 -26.5 -18.666 -33.5 -33.999s-10.5 -33 -10.5 -53c0 -22.667 5.5 -41.834 16.5 -57.501
s27.833 -23.5 50.5 -23.5c32.667 0 57 11.333 73 34s24 54 24 94v90z" />
    <glyph glyph-name="Cacute" unicode="&#x106;" horiz-adv-x="519" 
d="M498 256l0.00195312 -15.0029c0 -32 -3.66699 -63.333 -11 -94s-19.5 -58 -36.5 -82s-39.5 -43.167 -67.5 -57.5s-63 -21.5 -105 -21.5c-45.333 0 -83 7.33301 -113 22s-54.167 37.334 -72.5 68.001s-31.333 69.167 -39 115.5s-11.5 101.5 -11.5 165.5
s3.83301 119.167 11.5 165.5s20.667 84.833 39 115.5s42.666 53.334 72.999 68.001s68.166 22 113.499 22c50.667 0 90.334 -8.16699 119.001 -24.5s50.167 -36.166 64.5 -59.499s23.166 -47.833 26.499 -73.5s5 -47.834 5 -66.501v-13h-114v12
c0 16.667 -1.5 33.5 -4.5 50.5s-8.33301 32.167 -16 45.5s-18 24 -31 32s-29.833 11.667 -50.5 11c-21.333 0 -39.666 -3.83301 -54.999 -11.5s-28 -22 -38 -43s-17.333 -49.833 -22 -86.5s-7 -83.667 -7 -141s2.33301 -104.666 7 -141.999s12 -66.833 22 -88.5
s22.667 -36.667 38 -45s33.666 -12.5 54.999 -12.5c24 0 43 5.83301 57 17.5s24.667 26.167 32 43.5s12 36 14 56s3 38.333 3 55v12h114zM302.002 905.997h120l-106 -144h-74z" />
    <glyph glyph-name="cacute" unicode="&#x107;" horiz-adv-x="444" 
d="M415 196c-2 -32 -6.5 -60.999 -13.5 -86.999s-17.5 -48.167 -31.5 -66.5s-32.333 -32.333 -55 -42s-50.667 -14.5 -84 -14.5c-39.333 0 -71.833 6.83301 -97.5 20.5s-46 33 -61 58s-25.667 54.833 -32 89.5s-9.5 73 -9.5 115s3.16699 80.333 9.5 115s17 64.5 32 89.5
s35.333 44.333 61 58s58.167 20.5 97.5 20.5c40 0.666992 72.167 -5.83301 96.5 -19.5s43 -30.5 56 -50.5s21.667 -41.333 26 -64s6.5 -42.334 6.5 -59.001h-108c0 12.667 -1 25.834 -3 39.501s-5.83301 26 -11.5 37s-13.5 20 -23.5 27s-23 10.167 -39 9.5
c-19.333 0 -35 -5 -47 -15s-21.333 -24 -28 -42s-11.167 -39.333 -13.5 -64s-3.5 -52 -3.5 -82s1.16699 -57.333 3.5 -82s6.83301 -46 13.5 -64s16 -32 28 -42s27.667 -15 47 -15c30 -0.666992 51.167 10.666 63.5 33.999s18.5 55.333 18.5 96h102zM249 752.001h120
l-106 -144h-74z" />
    <glyph glyph-name="Ccircumflex" unicode="&#x108;" horiz-adv-x="519" 
d="M498 256l0.00195312 -15.0029c0 -32 -3.66699 -63.333 -11 -94s-19.5 -58 -36.5 -82s-39.5 -43.167 -67.5 -57.5s-63 -21.5 -105 -21.5c-45.333 0 -83 7.33301 -113 22s-54.167 37.334 -72.5 68.001s-31.333 69.167 -39 115.5s-11.5 101.5 -11.5 165.5
s3.83301 119.167 11.5 165.5s20.667 84.833 39 115.5s42.666 53.334 72.999 68.001s68.166 22 113.499 22c50.667 0 90.334 -8.16699 119.001 -24.5s50.167 -36.166 64.5 -59.499s23.166 -47.833 26.499 -73.5s5 -47.834 5 -66.501v-13h-114v12
c0 16.667 -1.5 33.5 -4.5 50.5s-8.33301 32.167 -16 45.5s-18 24 -31 32s-29.833 11.667 -50.5 11c-21.333 0 -39.666 -3.83301 -54.999 -11.5s-28 -22 -38 -43s-17.333 -49.833 -22 -86.5s-7 -83.667 -7 -141s2.33301 -104.666 7 -141.999s12 -66.833 22 -88.5
s22.667 -36.667 38 -45s33.666 -12.5 54.999 -12.5c24 0 43 5.83301 57 17.5s24.667 26.167 32 43.5s12 36 14 56s3 38.333 3 55v12h114zM228.002 905.997h108l89 -144h-91l-54 88l-57 -88h-86z" />
    <glyph glyph-name="ccircumflex" unicode="&#x109;" horiz-adv-x="444" 
d="M415 196c-2 -32 -6.5 -60.999 -13.5 -86.999s-17.5 -48.167 -31.5 -66.5s-32.333 -32.333 -55 -42s-50.667 -14.5 -84 -14.5c-39.333 0 -71.833 6.83301 -97.5 20.5s-46 33 -61 58s-25.667 54.833 -32 89.5s-9.5 73 -9.5 115s3.16699 80.333 9.5 115s17 64.5 32 89.5
s35.333 44.333 61 58s58.167 20.5 97.5 20.5c40 0.666992 72.167 -5.83301 96.5 -19.5s43 -30.5 56 -50.5s21.667 -41.333 26 -64s6.5 -42.334 6.5 -59.001h-108c0 12.667 -1 25.834 -3 39.501s-5.83301 26 -11.5 37s-13.5 20 -23.5 27s-23 10.167 -39 9.5
c-19.333 0 -35 -5 -47 -15s-21.333 -24 -28 -42s-11.167 -39.333 -13.5 -64s-3.5 -52 -3.5 -82s1.16699 -57.333 3.5 -82s6.83301 -46 13.5 -64s16 -32 28 -42s27.667 -15 47 -15c30 -0.666992 51.167 10.666 63.5 33.999s18.5 55.333 18.5 96h102zM179 752.001h108l89 -144
h-91l-54 88l-57 -88h-86z" />
    <glyph glyph-name="Cdotaccent" unicode="&#x10a;" horiz-adv-x="519" 
d="M498 256l0.00195312 -15.0029c0 -32 -3.66699 -63.333 -11 -94s-19.5 -58 -36.5 -82s-39.5 -43.167 -67.5 -57.5s-63 -21.5 -105 -21.5c-45.333 0 -83 7.33301 -113 22s-54.167 37.334 -72.5 68.001s-31.333 69.167 -39 115.5s-11.5 101.5 -11.5 165.5
s3.83301 119.167 11.5 165.5s20.667 84.833 39 115.5s42.666 53.334 72.999 68.001s68.166 22 113.499 22c50.667 0 90.334 -8.16699 119.001 -24.5s50.167 -36.166 64.5 -59.499s23.166 -47.833 26.499 -73.5s5 -47.834 5 -66.501v-13h-114v12
c0 16.667 -1.5 33.5 -4.5 50.5s-8.33301 32.167 -16 45.5s-18 24 -31 32s-29.833 11.667 -50.5 11c-21.333 0 -39.666 -3.83301 -54.999 -11.5s-28 -22 -38 -43s-17.333 -49.833 -22 -86.5s-7 -83.667 -7 -141s2.33301 -104.666 7 -141.999s12 -66.833 22 -88.5
s22.667 -36.667 38 -45s33.666 -12.5 54.999 -12.5c24 0 43 5.83301 57 17.5s24.667 26.167 32 43.5s12 36 14 56s3 38.333 3 55v12h114zM232.002 887.997h96v-108h-96v108z" />
    <glyph glyph-name="cdotaccent" unicode="&#x10b;" horiz-adv-x="444" 
d="M415 196c-2 -32 -6.5 -60.999 -13.5 -86.999s-17.5 -48.167 -31.5 -66.5s-32.333 -32.333 -55 -42s-50.667 -14.5 -84 -14.5c-39.333 0 -71.833 6.83301 -97.5 20.5s-46 33 -61 58s-25.667 54.833 -32 89.5s-9.5 73 -9.5 115s3.16699 80.333 9.5 115s17 64.5 32 89.5
s35.333 44.333 61 58s58.167 20.5 97.5 20.5c40 0.666992 72.167 -5.83301 96.5 -19.5s43 -30.5 56 -50.5s21.667 -41.333 26 -64s6.5 -42.334 6.5 -59.001h-108c0 12.667 -1 25.834 -3 39.501s-5.83301 26 -11.5 37s-13.5 20 -23.5 27s-23 10.167 -39 9.5
c-19.333 0 -35 -5 -47 -15s-21.333 -24 -28 -42s-11.167 -39.333 -13.5 -64s-3.5 -52 -3.5 -82s1.16699 -57.333 3.5 -82s6.83301 -46 13.5 -64s16 -32 28 -42s27.667 -15 47 -15c30 -0.666992 51.167 10.666 63.5 33.999s18.5 55.333 18.5 96h102zM183 734.001h96v-108h-96
v108z" />
    <glyph glyph-name="Ccaron" unicode="&#x10c;" horiz-adv-x="519" 
d="M498 256l0.00195312 -15.0029c0 -32 -3.66699 -63.333 -11 -94s-19.5 -58 -36.5 -82s-39.5 -43.167 -67.5 -57.5s-63 -21.5 -105 -21.5c-45.333 0 -83 7.33301 -113 22s-54.167 37.334 -72.5 68.001s-31.333 69.167 -39 115.5s-11.5 101.5 -11.5 165.5
s3.83301 119.167 11.5 165.5s20.667 84.833 39 115.5s42.666 53.334 72.999 68.001s68.166 22 113.499 22c50.667 0 90.334 -8.16699 119.001 -24.5s50.167 -36.166 64.5 -59.499s23.166 -47.833 26.499 -73.5s5 -47.834 5 -66.501v-13h-114v12
c0 16.667 -1.5 33.5 -4.5 50.5s-8.33301 32.167 -16 45.5s-18 24 -31 32s-29.833 11.667 -50.5 11c-21.333 0 -39.666 -3.83301 -54.999 -11.5s-28 -22 -38 -43s-17.333 -49.833 -22 -86.5s-7 -83.667 -7 -141s2.33301 -104.666 7 -141.999s12 -66.833 22 -88.5
s22.667 -36.667 38 -45s33.666 -12.5 54.999 -12.5c24 0 43 5.83301 57 17.5s24.667 26.167 32 43.5s12 36 14 56s3 38.333 3 55v12h114zM137.002 905.997h91l54 -88l57 88h86l-91 -144h-108z" />
    <glyph glyph-name="ccaron" unicode="&#x10d;" horiz-adv-x="444" 
d="M415 196c-2 -32 -6.5 -60.999 -13.5 -86.999s-17.5 -48.167 -31.5 -66.5s-32.333 -32.333 -55 -42s-50.667 -14.5 -84 -14.5c-39.333 0 -71.833 6.83301 -97.5 20.5s-46 33 -61 58s-25.667 54.833 -32 89.5s-9.5 73 -9.5 115s3.16699 80.333 9.5 115s17 64.5 32 89.5
s35.333 44.333 61 58s58.167 20.5 97.5 20.5c40 0.666992 72.167 -5.83301 96.5 -19.5s43 -30.5 56 -50.5s21.667 -41.333 26 -64s6.5 -42.334 6.5 -59.001h-108c0 12.667 -1 25.834 -3 39.501s-5.83301 26 -11.5 37s-13.5 20 -23.5 27s-23 10.167 -39 9.5
c-19.333 0 -35 -5 -47 -15s-21.333 -24 -28 -42s-11.167 -39.333 -13.5 -64s-3.5 -52 -3.5 -82s1.16699 -57.333 3.5 -82s6.83301 -46 13.5 -64s16 -32 28 -42s27.667 -15 47 -15c30 -0.666992 51.167 10.666 63.5 33.999s18.5 55.333 18.5 96h102zM88 752.001h91l54 -88
l57 88h86l-91 -144h-108z" />
    <glyph glyph-name="Dcaron" unicode="&#x10e;" horiz-adv-x="556" 
d="M59 714l203 0.00390625c56 0 100.667 -8.66699 134 -26s58.666 -41.833 75.999 -73.5s28.666 -69.334 33.999 -113.001s8 -91.834 8 -144.501s-2.66699 -100.834 -8 -144.501s-16.666 -81.334 -33.999 -113.001s-42.666 -56.167 -75.999 -73.5s-78 -26 -134 -26h-203v714
zM173 86.0039h94c23.333 0 43.5 4.33301 60.5 13s30.833 23.334 41.5 44.001s18.5 48.5 23.5 83.5s7.5 78.5 7.5 130.5c0 50 -2.33301 92.333 -7 127s-12.167 62.667 -22.5 84s-24 36.666 -41 45.999s-37.833 14 -62.5 14h-94v-542zM104 906.004h91l54 -88l57 88h86
l-91 -144h-108z" />
    <glyph glyph-name="dcaron" unicode="&#x10f;" horiz-adv-x="573" 
d="M327 263c0 32 -1.16992 60.667 -3.50293 86s-7 46.666 -14 63.999s-17 30.5 -30 39.5s-29.833 13.5 -50.5 13.5c-15.333 0 -28.333 -3.33301 -39 -10s-19.334 -17.667 -26.001 -33s-11.5 -35.5 -14.5 -60.5s-4.5 -55.5 -4.5 -91.5c0 -30.667 1.16699 -58.167 3.5 -82.5
s6.83301 -45.166 13.5 -62.499s15.834 -30.666 27.501 -39.999s27.167 -14 46.5 -14c18.667 0 33.834 4.5 45.501 13.5s20.834 21.833 27.501 38.5s11.334 36.667 14.001 60s4 49.666 4 78.999zM326.997 66h-2.00195c-3.33301 -8.66699 -7.83301 -17.667 -13.5 -27
s-13 -18 -22 -26s-20.333 -14.5 -34 -19.5s-29.834 -7.5 -48.501 -7.5c-62.667 0 -107.667 25.333 -135 76s-41 122 -41 214c0 60 4.83301 108 14.5 144s22.334 63.833 38.001 83.5s33.334 32.667 53.001 39s39.834 9.5 60.501 9.5c30 0 55.333 -6.83301 76 -20.5
s36 -32.5 46 -56.5h2v239h108v-714h-102v66zM499.995 714h105l-63 -144h-70z" />
    <glyph glyph-name="Dcroat" unicode="&#x110;" horiz-adv-x="556" 
d="M267 86c23.333 0 43.5 4.33301 60.5 13s30.833 23.334 41.5 44.001s18.5 48.5 23.5 83.5s7.5 78.5 7.5 130.5c0 50 -2.33301 92.333 -7 127s-12.167 62.667 -22.5 84s-24 36.666 -41 45.999s-37.833 14 -62.5 14h-94v-215h119v-80h-119v-247h94zM59 333l-59 0.00390625
v80h59v301h203c56 0 100.667 -8.66699 134 -26s58.666 -41.833 75.999 -73.5s28.666 -69.334 33.999 -113.001s8 -91.834 8 -144.501s-2.66699 -100.834 -8 -144.501s-16.666 -81.334 -33.999 -113.001s-42.666 -56.167 -75.999 -73.5s-78 -26 -134 -26h-203v333z" />
    <glyph glyph-name="dcroat" unicode="&#x111;" horiz-adv-x="505" 
d="M327 66h-2.00195c-3.33301 -8.66699 -7.83301 -17.667 -13.5 -27s-13 -18 -22 -26s-20.333 -14.5 -34 -19.5s-29.834 -7.5 -48.501 -7.5c-62.667 0 -107.667 25.333 -135 76s-41 122 -41 214c0 60 4.83301 108 14.5 144s22.334 63.833 38.001 83.5
s33.334 32.667 53.001 39s39.834 9.5 60.501 9.5c30 0 55.333 -6.83301 76 -20.5s36 -32.5 46 -56.5h2v114h-100v52h100v73h108v-73h84v-52h-84v-589h-102v66zM326.998 263c0 32 -1.16992 60.667 -3.50293 86s-7 46.666 -14 63.999s-17 30.5 -30 39.5
s-29.833 13.5 -50.5 13.5c-15.333 0 -28.333 -3.33301 -39 -10s-19.334 -17.667 -26.001 -33s-11.5 -35.5 -14.5 -60.5s-4.5 -55.5 -4.5 -91.5c0 -30.667 1.16699 -58.167 3.5 -82.5s6.83301 -45.166 13.5 -62.499s15.834 -30.666 27.501 -39.999s27.167 -14 46.5 -14
c18.667 0 33.834 4.5 45.501 13.5s20.834 21.833 27.501 38.5s11.334 36.667 14.001 60s4 49.666 4 78.999z" />
    <glyph glyph-name="Emacron" unicode="&#x112;" horiz-adv-x="481" 
d="M59 714h386v-96h-272v-198h256v-96h-256v-228h280v-96h-394v714zM393 865v-62h-282v62h282z" />
    <glyph glyph-name="emacron" unicode="&#x113;" horiz-adv-x="463" 
d="M318 329l-0.000976562 29c0 34 -6.16699 62.5 -18.5 85.5s-33.833 34.5 -64.5 34.5c-17.333 0 -31.666 -3.83301 -42.999 -11.5s-20.5 -18 -27.5 -31s-12 -27.833 -15 -44.5s-4.5 -33.667 -4.5 -51v-11h173zM144.999 255l0.00195312 -31.001
c0 -18 0.833008 -36.667 2.5 -56s5.66699 -37 12 -53s15.5 -29.167 27.5 -39.5s28 -15.5 48 -15.5c19.333 0 34.666 4.66699 45.999 14s20 20.5 26 33.5s9.83301 26.333 11.5 40s2.5 24.5 2.5 32.5h102c0 -60.667 -16.833 -108.167 -50.5 -142.5
s-79.834 -51.5 -138.501 -51.5c-22 0 -44.667 2.66699 -68 8s-44.5 17.333 -63.5 36s-34.667 46.334 -47 83.001s-18.5 86 -18.5 148c0 35.333 2.5 70.333 7.5 105s14.667 65.834 29 93.501s34.5 50 60.5 67s60 25.5 102 25.5c37.333 0 68.333 -5.5 93 -16.5
s44.167 -26.833 58.5 -47.5s24.333 -45.834 30 -75.501s8.5 -63.167 8.5 -100.5v-57h-281zM381.001 710.999v-62h-282v62h282z" />
    <glyph glyph-name="Ebreve" unicode="&#x114;" horiz-adv-x="481" 
d="M59 714h386v-96h-272v-198h256v-96h-256v-228h280v-96h-394v714zM180 902c0 -6 1.49902 -12.833 4.49902 -20.5s7.5 -15 13.5 -22s13.333 -12.833 22 -17.5s19 -7 31 -7s22.333 2.33301 31 7s16 10.5 22 17.5s10.5 14.333 13.5 22s4.5 14.5 4.5 20.5h62
c0 -18.667 -3 -36.167 -9 -52.5s-14.667 -30.666 -26 -42.999s-25.333 -22 -42 -29s-35.334 -10.5 -56.001 -10.5c-21.333 0 -40.166 3.5 -56.499 10.5s-30.166 16.667 -41.499 29s-20 26.666 -26 42.999s-9 33.833 -9 52.5h62z" />
    <glyph glyph-name="ebreve" unicode="&#x115;" horiz-adv-x="463" 
d="M318 329l-0.000976562 29c0 34 -6.16699 62.5 -18.5 85.5s-33.833 34.5 -64.5 34.5c-17.333 0 -31.666 -3.83301 -42.999 -11.5s-20.5 -18 -27.5 -31s-12 -27.833 -15 -44.5s-4.5 -33.667 -4.5 -51v-11h173zM144.999 255l0.00195312 -31.001
c0 -18 0.833008 -36.667 2.5 -56s5.66699 -37 12 -53s15.5 -29.167 27.5 -39.5s28 -15.5 48 -15.5c19.333 0 34.666 4.66699 45.999 14s20 20.5 26 33.5s9.83301 26.333 11.5 40s2.5 24.5 2.5 32.5h102c0 -60.667 -16.833 -108.167 -50.5 -142.5
s-79.834 -51.5 -138.501 -51.5c-22 0 -44.667 2.66699 -68 8s-44.5 17.333 -63.5 36s-34.667 46.334 -47 83.001s-18.5 86 -18.5 148c0 35.333 2.5 70.333 7.5 105s14.667 65.834 29 93.501s34.5 50 60.5 67s60 25.5 102 25.5c37.333 0 68.333 -5.5 93 -16.5
s44.167 -26.833 58.5 -47.5s24.333 -45.834 30 -75.501s8.5 -63.167 8.5 -100.5v-57h-281zM169.001 747.999c0 -6 1.49902 -12.833 4.49902 -20.5s7.5 -15 13.5 -22s13.333 -12.833 22 -17.5s19 -7 31 -7s22.333 2.33301 31 7s16 10.5 22 17.5s10.5 14.333 13.5 22
s4.5 14.5 4.5 20.5h62c0 -18.667 -3 -36.167 -9 -52.5s-14.667 -30.666 -26 -42.999s-25.333 -22 -42 -29s-35.334 -10.5 -56.001 -10.5c-21.333 0 -40.166 3.5 -56.499 10.5s-30.166 16.667 -41.499 29s-20 26.666 -26 42.999s-9 33.833 -9 52.5h62z" />
    <glyph glyph-name="Edotaccent" unicode="&#x116;" horiz-adv-x="481" 
d="M59 714h386v-96h-272v-198h256v-96h-256v-228h280v-96h-394v714zM207 888h96v-108h-96v108z" />
    <glyph glyph-name="edotaccent" unicode="&#x117;" horiz-adv-x="463" 
d="M318 329l-0.000976562 29c0 34 -6.16699 62.5 -18.5 85.5s-33.833 34.5 -64.5 34.5c-17.333 0 -31.666 -3.83301 -42.999 -11.5s-20.5 -18 -27.5 -31s-12 -27.833 -15 -44.5s-4.5 -33.667 -4.5 -51v-11h173zM144.999 255l0.00195312 -31.001
c0 -18 0.833008 -36.667 2.5 -56s5.66699 -37 12 -53s15.5 -29.167 27.5 -39.5s28 -15.5 48 -15.5c19.333 0 34.666 4.66699 45.999 14s20 20.5 26 33.5s9.83301 26.333 11.5 40s2.5 24.5 2.5 32.5h102c0 -60.667 -16.833 -108.167 -50.5 -142.5
s-79.834 -51.5 -138.501 -51.5c-22 0 -44.667 2.66699 -68 8s-44.5 17.333 -63.5 36s-34.667 46.334 -47 83.001s-18.5 86 -18.5 148c0 35.333 2.5 70.333 7.5 105s14.667 65.834 29 93.501s34.5 50 60.5 67s60 25.5 102 25.5c37.333 0 68.333 -5.5 93 -16.5
s44.167 -26.833 58.5 -47.5s24.333 -45.834 30 -75.501s8.5 -63.167 8.5 -100.5v-57h-281zM192.001 733.999h96v-108h-96v108z" />
    <glyph glyph-name="Eogonek" unicode="&#x118;" horiz-adv-x="481" 
d="M414 0c-26 -25.333 -43.832 -46.833 -53.499 -64.5s-14.5 -36.167 -14.5 -55.5c0 -18.667 5.16699 -32.834 15.5 -42.501s24.166 -14.5 41.499 -14.5c6 0 13.167 0.666992 21.5 2s15.833 3 22.5 5l6 -42c-11.333 -3.33301 -24 -6 -38 -8s-27.333 -3 -40 -3
c-32 0 -58.167 7.16699 -78.5 21.5s-30.5 37.5 -30.5 69.5c0 24.667 9.33301 48.834 28 72.501s42 43.5 70 59.5h-305v714h386v-96h-272v-198h256v-96h-256v-228h280v-96h-39z" />
    <glyph glyph-name="eogonek" unicode="&#x119;" horiz-adv-x="463" 
d="M145 255l0.000976562 -30.998c0 -18 0.833008 -36.667 2.5 -56s5.66699 -37 12 -53s15.5 -29.167 27.5 -39.5s28 -15.5 48 -15.5c19.333 0 34.666 4.66699 45.999 14s20 20.5 26 33.5s9.83301 26.333 11.5 40s2.5 24.5 2.5 32.5h102c0 -60.667 -17 -108.334 -51 -143.001
c-26.667 -26.667 -61 -43 -103 -49c-21.333 -21.333 -35.333 -38.666 -42 -51.999c-9.33301 -20 -14 -38.667 -14 -56c0 -18.667 5.16699 -32.834 15.5 -42.501s24.166 -14.5 41.499 -14.5c6 0 13.167 0.666992 21.5 2s15.833 3 22.5 5l6 -42
c-11.333 -3.33301 -24 -6 -38 -8s-27.333 -3 -40 -3c-32 0 -58.167 7.16699 -78.5 21.5s-30.5 37.5 -30.5 69.5c0 26 9.33301 50.333 28 73c13.333 17.333 29.666 32.666 48.999 45.999c-7.33301 0.666992 -14.666 1.66699 -21.999 3l-22 4
c-17.333 4 -33.666 11.5 -48.999 22.5s-29 27 -41 48s-21.5 47.5 -28.5 79.5s-10.5 71 -10.5 117c0 35.333 2.5 70.333 7.5 105s14.667 65.834 29 93.501s34.5 50 60.5 67s60 25.5 102 25.5c37.333 0 68.333 -5.5 93 -16.5s44.167 -26.833 58.5 -47.5
s24.333 -45.834 30 -75.501s8.5 -63.167 8.5 -100.5v-57h-281zM318.001 329.002l-0.000976562 29c0 34 -6.16699 62.5 -18.5 85.5s-33.833 34.5 -64.5 34.5c-17.333 0 -31.666 -3.83301 -42.999 -11.5s-20.5 -18 -27.5 -31s-12 -27.833 -15 -44.5s-4.5 -33.667 -4.5 -51v-11
h173z" />
    <glyph glyph-name="Ecaron" unicode="&#x11a;" horiz-adv-x="481" 
d="M59 714h386v-96h-272v-198h256v-96h-256v-228h280v-96h-394v714zM110 906h91l54 -88l57 88h86l-91 -144h-108z" />
    <glyph glyph-name="ecaron" unicode="&#x11b;" horiz-adv-x="463" 
d="M318 329l-0.000976562 29c0 34 -6.16699 62.5 -18.5 85.5s-33.833 34.5 -64.5 34.5c-17.333 0 -31.666 -3.83301 -42.999 -11.5s-20.5 -18 -27.5 -31s-12 -27.833 -15 -44.5s-4.5 -33.667 -4.5 -51v-11h173zM144.999 255l0.00195312 -31.001
c0 -18 0.833008 -36.667 2.5 -56s5.66699 -37 12 -53s15.5 -29.167 27.5 -39.5s28 -15.5 48 -15.5c19.333 0 34.666 4.66699 45.999 14s20 20.5 26 33.5s9.83301 26.333 11.5 40s2.5 24.5 2.5 32.5h102c0 -60.667 -16.833 -108.167 -50.5 -142.5
s-79.834 -51.5 -138.501 -51.5c-22 0 -44.667 2.66699 -68 8s-44.5 17.333 -63.5 36s-34.667 46.334 -47 83.001s-18.5 86 -18.5 148c0 35.333 2.5 70.333 7.5 105s14.667 65.834 29 93.501s34.5 50 60.5 67s60 25.5 102 25.5c37.333 0 68.333 -5.5 93 -16.5
s44.167 -26.833 58.5 -47.5s24.333 -45.834 30 -75.501s8.5 -63.167 8.5 -100.5v-57h-281zM94.001 751.999h91l54 -88l57 88h86l-91 -144h-108z" />
    <glyph glyph-name="Gcircumflex" unicode="&#x11c;" horiz-adv-x="537" 
d="M412 83h-2.00293c-15.333 -34 -34.666 -58.667 -57.999 -74s-56 -23 -98 -23c-39.333 0 -72.333 7.33301 -99 22s-48.5 37.334 -65.5 68.001s-29.167 69.167 -36.5 115.5s-11 101.5 -11 165.5c0 127.333 18.833 221 56.5 281s97.834 90 180.501 90
c44.667 0 80.667 -7.66699 108 -23s48.5 -33.833 63.5 -55.5s25 -44.334 30 -68.001s7.5 -43.5 7.5 -59.5v-13h-108v17c0 13.333 -1.5 26.833 -4.5 40.5s-8.33301 26.167 -16 37.5s-18 20.5 -31 27.5s-29.167 10.5 -48.5 10.5c-20 0 -37.833 -4 -53.5 -12
s-28.667 -22.5 -39 -43.5s-18.166 -49.833 -23.499 -86.5s-8 -83.334 -8 -140.001c0 -57.333 2.33301 -104.666 7 -141.999s11.834 -66.833 21.501 -88.5s21.667 -36.667 36 -45s31.166 -12.5 50.499 -12.5c43.333 -0.666992 74 16 92 50s27 90 27 168h-120v86h228v-376h-86
v83zM227.997 906h108l89 -144h-91l-54 88l-57 -88h-86z" />
    <glyph glyph-name="gcircumflex" unicode="&#x11d;" horiz-adv-x="481" 
d="M152 286c0 -23.333 0.667969 -46.501 2.00098 -69.501s4.66602 -44 9.99902 -63s13.666 -34.333 24.999 -46s27 -17.5 47 -17.5c20.667 0 37.167 6 49.5 18s21.833 27.167 28.5 45.5s10.834 38.833 12.501 61.5s2.5 44.667 2.5 66c0 22 -1 44 -3 66s-6 41.833 -12 59.5
s-14.667 32 -26 43s-26.333 16.5 -45 16.5c-19.333 0 -35 -4.66699 -47 -14s-21.333 -22.166 -28 -38.499s-11 -35.5 -13 -57.5s-3 -45.333 -3 -70zM160.001 -46.001c0 -16.667 6.99902 -31.499 20.999 -44.499s33 -19.5 57 -19.5c28 0 50.167 8.83301 66.5 26.5
s24.5 42.5 24.5 74.5v87h-2c-10 -23.333 -26.333 -41.5 -49 -54.5s-47 -19.5 -73 -19.5c-31.333 0 -57.333 7.16699 -78 21.5s-37.167 33.833 -49.5 58.5s-21 53.334 -26 86.001s-7.5 67.667 -7.5 105c0 29.333 1.66699 60.333 5 93s11 62.667 23 90s29.333 49.833 52 67.5
s53 26.5 91 26.5c16 0 30.667 -2.33301 44 -7s25 -10.834 35 -18.501s18.333 -16.167 25 -25.5s11.334 -19 14.001 -29h2v66h102v-512c0 -32.667 -3.66699 -62 -11 -88s-19 -48 -35 -66s-36.833 -31.833 -62.5 -41.5s-56.5 -14.5 -92.5 -14.5
c-40 0 -71.833 5.16699 -95.5 15.5s-41.5 22.666 -53.5 36.999s-19.833 29.333 -23.5 45s-5.5 29.167 -5.5 40.5h102zM207 752h108l89 -144h-91l-54 88l-57 -88h-86z" />
    <glyph glyph-name="Gbreve" unicode="&#x11e;" horiz-adv-x="537" 
d="M412 83h-2.00293c-15.333 -34 -34.666 -58.667 -57.999 -74s-56 -23 -98 -23c-39.333 0 -72.333 7.33301 -99 22s-48.5 37.334 -65.5 68.001s-29.167 69.167 -36.5 115.5s-11 101.5 -11 165.5c0 127.333 18.833 221 56.5 281s97.834 90 180.501 90
c44.667 0 80.667 -7.66699 108 -23s48.5 -33.833 63.5 -55.5s25 -44.334 30 -68.001s7.5 -43.5 7.5 -59.5v-13h-108v17c0 13.333 -1.5 26.833 -4.5 40.5s-8.33301 26.167 -16 37.5s-18 20.5 -31 27.5s-29.167 10.5 -48.5 10.5c-20 0 -37.833 -4 -53.5 -12
s-28.667 -22.5 -39 -43.5s-18.166 -49.833 -23.499 -86.5s-8 -83.334 -8 -140.001c0 -57.333 2.33301 -104.666 7 -141.999s11.834 -66.833 21.501 -88.5s21.667 -36.667 36 -45s31.166 -12.5 50.499 -12.5c43.333 -0.666992 74 16 92 50s27 90 27 168h-120v86h228v-376h-86
v83zM212.997 902c0 -6 1.49902 -12.833 4.49902 -20.5s7.5 -15 13.5 -22s13.333 -12.833 22 -17.5s19 -7 31 -7s22.333 2.33301 31 7s16 10.5 22 17.5s10.5 14.333 13.5 22s4.5 14.5 4.5 20.5h62c0 -18.667 -3 -36.167 -9 -52.5s-14.667 -30.666 -26 -42.999
s-25.333 -22 -42 -29s-35.334 -10.5 -56.001 -10.5c-21.333 0 -40.166 3.5 -56.499 10.5s-30.166 16.667 -41.499 29s-20 26.666 -26 42.999s-9 33.833 -9 52.5h62z" />
    <glyph glyph-name="gbreve" unicode="&#x11f;" horiz-adv-x="481" 
d="M152 286c0 -23.333 0.667969 -46.501 2.00098 -69.501s4.66602 -44 9.99902 -63s13.666 -34.333 24.999 -46s27 -17.5 47 -17.5c20.667 0 37.167 6 49.5 18s21.833 27.167 28.5 45.5s10.834 38.833 12.501 61.5s2.5 44.667 2.5 66c0 22 -1 44 -3 66s-6 41.833 -12 59.5
s-14.667 32 -26 43s-26.333 16.5 -45 16.5c-19.333 0 -35 -4.66699 -47 -14s-21.333 -22.166 -28 -38.499s-11 -35.5 -13 -57.5s-3 -45.333 -3 -70zM160.001 -46.001c0 -16.667 6.99902 -31.499 20.999 -44.499s33 -19.5 57 -19.5c28 0 50.167 8.83301 66.5 26.5
s24.5 42.5 24.5 74.5v87h-2c-10 -23.333 -26.333 -41.5 -49 -54.5s-47 -19.5 -73 -19.5c-31.333 0 -57.333 7.16699 -78 21.5s-37.167 33.833 -49.5 58.5s-21 53.334 -26 86.001s-7.5 67.667 -7.5 105c0 29.333 1.66699 60.333 5 93s11 62.667 23 90s29.333 49.833 52 67.5
s53 26.5 91 26.5c16 0 30.667 -2.33301 44 -7s25 -10.834 35 -18.501s18.333 -16.167 25 -25.5s11.334 -19 14.001 -29h2v66h102v-512c0 -32.667 -3.66699 -62 -11 -88s-19 -48 -35 -66s-36.833 -31.833 -62.5 -41.5s-56.5 -14.5 -92.5 -14.5
c-40 0 -71.833 5.16699 -95.5 15.5s-41.5 22.666 -53.5 36.999s-19.833 29.333 -23.5 45s-5.5 29.167 -5.5 40.5h102zM190 748c0 -6 1.49902 -12.833 4.49902 -20.5s7.5 -15 13.5 -22s13.333 -12.833 22 -17.5s19 -7 31 -7s22.333 2.33301 31 7s16 10.5 22 17.5
s10.5 14.333 13.5 22s4.5 14.5 4.5 20.5h62c0 -18.667 -3 -36.167 -9 -52.5s-14.667 -30.666 -26 -42.999s-25.333 -22 -42 -29s-35.334 -10.5 -56.001 -10.5c-21.333 0 -40.166 3.5 -56.499 10.5s-30.166 16.667 -41.499 29s-20 26.666 -26 42.999s-9 33.833 -9 52.5h62z
" />
    <glyph glyph-name="Gdotaccent" unicode="&#x120;" horiz-adv-x="537" 
d="M412 83h-2.00293c-15.333 -34 -34.666 -58.667 -57.999 -74s-56 -23 -98 -23c-39.333 0 -72.333 7.33301 -99 22s-48.5 37.334 -65.5 68.001s-29.167 69.167 -36.5 115.5s-11 101.5 -11 165.5c0 127.333 18.833 221 56.5 281s97.834 90 180.501 90
c44.667 0 80.667 -7.66699 108 -23s48.5 -33.833 63.5 -55.5s25 -44.334 30 -68.001s7.5 -43.5 7.5 -59.5v-13h-108v17c0 13.333 -1.5 26.833 -4.5 40.5s-8.33301 26.167 -16 37.5s-18 20.5 -31 27.5s-29.167 10.5 -48.5 10.5c-20 0 -37.833 -4 -53.5 -12
s-28.667 -22.5 -39 -43.5s-18.166 -49.833 -23.499 -86.5s-8 -83.334 -8 -140.001c0 -57.333 2.33301 -104.666 7 -141.999s11.834 -66.833 21.501 -88.5s21.667 -36.667 36 -45s31.166 -12.5 50.499 -12.5c43.333 -0.666992 74 16 92 50s27 90 27 168h-120v86h228v-376h-86
v83zM233.997 888h96v-108h-96v108z" />
    <glyph glyph-name="gdotaccent" unicode="&#x121;" horiz-adv-x="481" 
d="M152 286c0 -23.333 0.667969 -46.501 2.00098 -69.501s4.66602 -44 9.99902 -63s13.666 -34.333 24.999 -46s27 -17.5 47 -17.5c20.667 0 37.167 6 49.5 18s21.833 27.167 28.5 45.5s10.834 38.833 12.501 61.5s2.5 44.667 2.5 66c0 22 -1 44 -3 66s-6 41.833 -12 59.5
s-14.667 32 -26 43s-26.333 16.5 -45 16.5c-19.333 0 -35 -4.66699 -47 -14s-21.333 -22.166 -28 -38.499s-11 -35.5 -13 -57.5s-3 -45.333 -3 -70zM160.001 -46.001c0 -16.667 6.99902 -31.499 20.999 -44.499s33 -19.5 57 -19.5c28 0 50.167 8.83301 66.5 26.5
s24.5 42.5 24.5 74.5v87h-2c-10 -23.333 -26.333 -41.5 -49 -54.5s-47 -19.5 -73 -19.5c-31.333 0 -57.333 7.16699 -78 21.5s-37.167 33.833 -49.5 58.5s-21 53.334 -26 86.001s-7.5 67.667 -7.5 105c0 29.333 1.66699 60.333 5 93s11 62.667 23 90s29.333 49.833 52 67.5
s53 26.5 91 26.5c16 0 30.667 -2.33301 44 -7s25 -10.834 35 -18.501s18.333 -16.167 25 -25.5s11.334 -19 14.001 -29h2v66h102v-512c0 -32.667 -3.66699 -62 -11 -88s-19 -48 -35 -66s-36.833 -31.833 -62.5 -41.5s-56.5 -14.5 -92.5 -14.5
c-40 0 -71.833 5.16699 -95.5 15.5s-41.5 22.666 -53.5 36.999s-19.833 29.333 -23.5 45s-5.5 29.167 -5.5 40.5h102zM200 734h96v-108h-96v108z" />
    <glyph glyph-name="Gcommaaccent" unicode="&#x122;" horiz-adv-x="537" 
d="M412 83h-2.00293c-15.333 -34 -34.666 -58.667 -57.999 -74s-56 -23 -98 -23c-39.333 0 -72.333 7.33301 -99 22s-48.5 37.334 -65.5 68.001s-29.167 69.167 -36.5 115.5s-11 101.5 -11 165.5c0 127.333 18.833 221 56.5 281s97.834 90 180.501 90
c44.667 0 80.667 -7.66699 108 -23s48.5 -33.833 63.5 -55.5s25 -44.334 30 -68.001s7.5 -43.5 7.5 -59.5v-13h-108v17c0 13.333 -1.5 26.833 -4.5 40.5s-8.33301 26.167 -16 37.5s-18 20.5 -31 27.5s-29.167 10.5 -48.5 10.5c-20 0 -37.833 -4 -53.5 -12
s-28.667 -22.5 -39 -43.5s-18.166 -49.833 -23.499 -86.5s-8 -83.334 -8 -140.001c0 -57.333 2.33301 -104.666 7 -141.999s11.834 -66.833 21.501 -88.5s21.667 -36.667 36 -45s31.166 -12.5 50.499 -12.5c43.333 -0.666992 74 16 92 50s27 90 27 168h-120v86h228v-376h-86
v83zM218.997 -50l96 -0.00195312v-86c0 -30 -7.66699 -51.167 -23 -63.5s-36.333 -20.166 -63 -23.499v33c10 2.66699 18 6.83398 24 12.501s9.66699 15.167 11 28.5h-45v99z" />
    <glyph glyph-name="gcommaaccent" unicode="&#x123;" horiz-adv-x="481" 
d="M152 286c0 -23.333 0.667969 -46.501 2.00098 -69.501s4.66602 -44 9.99902 -63s13.666 -34.333 24.999 -46s27 -17.5 47 -17.5c20.667 0 37.167 6 49.5 18s21.833 27.167 28.5 45.5s10.834 38.833 12.501 61.5s2.5 44.667 2.5 66c0 22 -1 44 -3 66s-6 41.833 -12 59.5
s-14.667 32 -26 43s-26.333 16.5 -45 16.5c-19.333 0 -35 -4.66699 -47 -14s-21.333 -22.166 -28 -38.499s-11 -35.5 -13 -57.5s-3 -45.333 -3 -70zM160.001 -46.001c0 -16.667 6.99902 -31.499 20.999 -44.499s33 -19.5 57 -19.5c28 0 50.167 8.83301 66.5 26.5
s24.5 42.5 24.5 74.5v87h-2c-10 -23.333 -26.333 -41.5 -49 -54.5s-47 -19.5 -73 -19.5c-31.333 0 -57.333 7.16699 -78 21.5s-37.167 33.833 -49.5 58.5s-21 53.334 -26 86.001s-7.5 67.667 -7.5 105c0 29.333 1.66699 60.333 5 93s11 62.667 23 90s29.333 49.833 52 67.5
s53 26.5 91 26.5c16 0 30.667 -2.33301 44 -7s25 -10.834 35 -18.501s18.333 -16.167 25 -25.5s11.334 -19 14.001 -29h2v66h102v-512c0 -32.667 -3.66699 -62 -11 -88s-19 -48 -35 -66s-36.833 -31.833 -62.5 -41.5s-56.5 -14.5 -92.5 -14.5
c-40 0 -71.833 5.16699 -95.5 15.5s-41.5 22.666 -53.5 36.999s-19.833 29.333 -23.5 45s-5.5 29.167 -5.5 40.5h102zM297 615l-96 0.00195312v86c0 30 7.66699 51.167 23 63.5s36.333 20.166 63 23.499v-33c-10 -2.66699 -18 -6.83398 -24 -12.501
s-9.66699 -15.167 -11 -28.5h45v-99z" />
    <glyph glyph-name="Hcircumflex" unicode="&#x124;" horiz-adv-x="556" 
d="M59 714h114v-286h210v286h114v-714h-114v332h-210v-332h-114v714zM226 906h108l89 -144h-91l-54 88l-57 -88h-86z" />
    <glyph glyph-name="hcircumflex" unicode="&#x125;" horiz-adv-x="481" 
d="M52 714h108.001v-234l3 -2c15.333 23.333 34.166 41.5 56.499 54.5s47.5 19.5 75.5 19.5c20.667 0 39.167 -2.5 55.5 -7.5s30.333 -13.167 42 -24.5s20.667 -26.333 27 -45s9.5 -41.667 9.5 -69v-406h-108v369c0 36 -5.5 61.167 -16.5 75.5s-30.5 21.5 -58.5 21.5
c-22 0 -41.833 -8.5 -59.5 -25.5s-26.5 -43.5 -26.5 -79.5v-361h-108v714zM185.001 906h108l89 -144h-91l-54 88l-57 -88h-86z" />
    <glyph glyph-name="Hbar" unicode="&#x126;" horiz-adv-x="556" 
d="M59 714h114v-162h210v162h114v-714h-114v319h-210v-319h-114v714zM383 415v85h-210v-85h210z" />
    <glyph glyph-name="hbar" unicode="&#x127;" horiz-adv-x="507" 
d="M78 714h108.001v-73h96v-52h-96v-109l3 -2c15.333 23.333 34.166 41.5 56.499 54.5s47.5 19.5 75.5 19.5c20.667 0 39.167 -2.5 55.5 -7.5s30.333 -13.167 42 -24.5s20.667 -26.333 27 -45s9.5 -41.667 9.5 -69v-406h-108v369c0 36 -5.5 61.167 -16.5 75.5
s-30.5 21.5 -58.5 21.5c-22 0 -41.833 -8.5 -59.5 -25.5s-26.5 -43.5 -26.5 -79.5v-361h-108v589h-78v52h78v73z" />
    <glyph glyph-name="Itilde" unicode="&#x128;" 
d="M54 714h114v-714h-114v714zM263 896c0 -11.333 -1.83398 -23.8311 -5.50098 -37.498s-9 -26.5 -16 -38.5s-16 -22 -27 -30s-23.5 -12 -37.5 -12c-11.333 0 -22.5 1.83301 -33.5 5.5s-21.667 7.66699 -32 12l-29 12c-9 3.66699 -17.5 5.5 -25.5 5.5
c-11.333 0 -19.833 -4.16699 -25.5 -12.5s-8.5 -17.5 -8.5 -27.5h-62c0 10.667 1.83301 23 5.5 37s9.5 27.167 17.5 39.5s18.333 22.666 31 30.999s28.334 12.5 47.001 12.5c8 0 16.5 -1.83301 25.5 -5.5l27.5 -11.5c9.33301 -4.66699 18.833 -8.83398 28.5 -12.501
s18.834 -5.5 27.501 -5.5c11.333 0 19.166 4 23.499 12s6.5 16.667 6.5 26h62z" />
    <glyph glyph-name="itilde" unicode="&#x129;" 
d="M57 538h108v-538h-108v538zM263 742c0 -11.333 -1.83398 -23.8311 -5.50098 -37.498s-9 -26.5 -16 -38.5s-16 -22 -27 -30s-23.5 -12 -37.5 -12c-11.333 0 -22.5 1.83301 -33.5 5.5s-21.667 7.66699 -32 12l-29 12c-9 3.66699 -17.5 5.5 -25.5 5.5
c-11.333 0 -19.833 -4.16699 -25.5 -12.5s-8.5 -17.5 -8.5 -27.5h-62c0 10.667 1.83301 23 5.5 37s9.5 27.167 17.5 39.5s18.333 22.666 31 30.999s28.334 12.5 47.001 12.5c8 0 16.5 -1.83301 25.5 -5.5l27.5 -11.5c9.33301 -4.66699 18.833 -8.83398 28.5 -12.501
s18.834 -5.5 27.501 -5.5c11.333 0 19.166 4 23.499 12s6.5 16.667 6.5 26h62z" />
    <glyph glyph-name="Imacron" unicode="&#x12a;" 
d="M54 714h114v-714h-114v714zM252 865v-62h-282v62h282z" />
    <glyph glyph-name="imacron" unicode="&#x12b;" 
d="M57 538h108v-538h-108v538zM254 711v-62h-282v62h282z" />
    <glyph glyph-name="Iogonek" unicode="&#x12e;" 
d="M168 0c-26 -25.333 -43.832 -46.833 -53.499 -64.5s-14.5 -36.167 -14.5 -55.5c0 -18.667 5.16699 -32.834 15.5 -42.501s24.166 -14.5 41.499 -14.5c6 0 13.167 0.666992 21.5 2s15.833 3 22.5 5l6 -42c-11.333 -3.33301 -24 -6 -38 -8s-27.333 -3 -40 -3
c-32 0 -58.167 7.16699 -78.5 21.5s-30.5 37.5 -30.5 69.5c0 24.667 9.33301 48.834 28 72.501s42 43.5 70 59.5h-64v714h114v-714z" />
    <glyph glyph-name="iogonek" unicode="&#x12f;" 
d="M165 0c-26 -25.333 -43.832 -46.833 -53.499 -64.5s-14.5 -36.167 -14.5 -55.5c0 -18.667 5.16699 -32.834 15.5 -42.501s24.166 -14.5 41.499 -14.5c6 0 13.167 0.666992 21.5 2s15.833 3 22.5 5l6 -42c-11.333 -3.33301 -24 -6 -38 -8s-27.333 -3 -40 -3
c-32 0 -58.167 7.16699 -78.5 21.5s-30.5 37.5 -30.5 69.5c0 24.667 9.33301 48.834 28 72.501s42 43.5 70 59.5h-58v538h108v-538zM57.001 722h108v-108h-108v108z" />
    <glyph glyph-name="Idotaccent" unicode="&#x130;" 
d="M54 714h114v-714h-114v714zM64 888h96v-108h-96v108z" />
    <glyph glyph-name="dotlessi" unicode="&#x131;" 
d="M57 538h108v-538h-108v538z" />
    <glyph glyph-name="Jcircumflex" unicode="&#x134;" horiz-adv-x="444" 
d="M124 215l-0.00195312 -35c0 -14.667 1 -28.5 3 -41.5s5.66699 -24.5 11 -34.5s13 -17.833 23 -23.5s23 -8.5 39 -8.5c18.667 0 33.167 4 43.5 12s18 18.667 23 32s7.83301 28.5 8.5 45.5s1 34.5 1 52.5v500h114v-517c0 -39.333 -4.66699 -72.5 -14 -99.5
s-22.5 -48.833 -39.5 -65.5s-37.167 -28.5 -60.5 -35.5s-49.333 -10.5 -78 -10.5c-36.667 0 -66.667 5.16699 -90 15.5s-41.666 24 -54.999 41s-22.666 36.5 -27.999 58.5s-8.33301 44.667 -9 68v46h108zM279.998 906h108l89 -144h-91l-54 88l-57 -88h-86z" />
    <glyph glyph-name="jcircumflex" unicode="&#x135;" 
d="M165 538v-573c0 -56 -11.833 -94.833 -35.5 -116.5s-59.167 -32.5 -106.5 -32.5c-15.333 0 -31 1 -47 3v83h25c20.667 0 35.167 5 43.5 15s12.5 29.333 12.5 58v563h108zM58 752h108l89 -144h-91l-54 88l-57 -88h-86z" />
    <glyph glyph-name="Kcommaaccent" unicode="&#x136;" horiz-adv-x="519" 
d="M59 714h114v-311h2l216 311h125l-206 -301l228 -413h-129l-173 321l-63 -90v-231h-114v714zM234 -50l96 -0.00195312v-86c0 -30 -7.66699 -51.167 -23 -63.5s-36.333 -20.166 -63 -23.499v33c10 2.66699 18 6.83398 24 12.501s9.66699 15.167 11 28.5h-45v99z" />
    <glyph glyph-name="kcommaaccent" unicode="&#x137;" horiz-adv-x="463" 
d="M52 714h108v-401h2l163 225l125 1l-162 -208l183 -331h-118l-132 245l-61 -74v-171h-108v714zM200 -50l96 -0.00195312v-86c0 -30 -7.66699 -51.167 -23 -63.5s-36.333 -20.166 -63 -23.499v33c10 2.66699 18 6.83398 24 12.501s9.66699 15.167 11 28.5h-45v99z" />
    <glyph glyph-name="Lacute" unicode="&#x139;" horiz-adv-x="444" 
d="M46 714h114v-618h276v-96h-390v714zM125 906h120l-106 -144h-74z" />
    <glyph glyph-name="lacute" unicode="&#x13a;" 
d="M57 714h108v-714h-108v714zM118 906h120l-106 -144h-74z" />
    <glyph glyph-name="Lcommaaccent" unicode="&#x13b;" horiz-adv-x="444" 
d="M46 714h114v-618h276v-96h-390v714zM195 -50l96 -0.00195312v-86c0 -30 -7.66699 -51.167 -23 -63.5s-36.333 -20.166 -63 -23.499v33c10 2.66699 18 6.83398 24 12.501s9.66699 15.167 11 28.5h-45v99z" />
    <glyph glyph-name="lcommaaccent" unicode="&#x13c;" 
d="M57 714h108v-714h-108v714zM64 -50l96 -0.00195312v-86c0 -30 -7.66699 -51.167 -23 -63.5s-36.333 -20.166 -63 -23.499v33c10 2.66699 18 6.83398 24 12.501s9.66699 15.167 11 28.5h-45v99z" />
    <glyph glyph-name="Lcaron" unicode="&#x13d;" horiz-adv-x="444" 
d="M46 714h114v-618h276v-96h-390v714zM236 714h105l-63 -144h-70z" />
    <glyph glyph-name="lcaron" unicode="&#x13e;" horiz-adv-x="308" 
d="M57 714h108v-714h-108v714zM235 714h105l-63 -144h-70z" />
    <glyph glyph-name="Ldot" unicode="&#x13f;" horiz-adv-x="444" 
d="M46 714h114v-618h276v-96h-390v714zM256 539h96v-108h-96v108z" />
    <glyph glyph-name="ldot" unicode="&#x140;" horiz-adv-x="347" 
d="M57 714h108v-714h-108v714zM221 539h96v-108h-96v108z" />
    <glyph glyph-name="Lslash" unicode="&#x141;" horiz-adv-x="444" 
d="M46 261l-56 -39v98l56 39v355h114v-277l146 101v-98l-146 -101v-243h276v-96h-390v261z" />
    <glyph glyph-name="lslash" unicode="&#x142;" 
d="M57 286l-57 -40v96l57 40v332h108v-258l57 40v-96l-57 -40v-360h-108v286z" />
    <glyph glyph-name="Nacute" unicode="&#x143;" horiz-adv-x="574" 
d="M59 714h139l207 -532h2v532h108v-714h-139l-207 546h-2v-546h-108v714zM303 906h120l-106 -144h-74z" />
    <glyph glyph-name="nacute" unicode="&#x144;" horiz-adv-x="481" 
d="M52 538h102.001v-63h3c13.333 24 32.166 42.833 56.499 56.5s51.5 20.5 81.5 20.5c20.667 0 39.167 -2.5 55.5 -7.5s30.333 -13.167 42 -24.5s20.667 -26.333 27 -45s9.5 -41.667 9.5 -69v-406h-108v369c0 36 -5.5 61.167 -16.5 75.5s-30.5 21.5 -58.5 21.5
c-22 0 -41.833 -8.5 -59.5 -25.5s-26.5 -43.5 -26.5 -79.5v-361h-108v538zM257.001 752h120l-106 -144h-74z" />
    <glyph glyph-name="Ncommaaccent" unicode="&#x145;" horiz-adv-x="574" 
d="M59 714h139l207 -532h2v532h108v-714h-139l-207 546h-2v-546h-108v714zM239 -50l96 -0.00195312v-86c0 -30 -7.66699 -51.167 -23 -63.5s-36.333 -20.166 -63 -23.499v33c10 2.66699 18 6.83398 24 12.501s9.66699 15.167 11 28.5h-45v99z" />
    <glyph glyph-name="ncommaaccent" unicode="&#x146;" horiz-adv-x="481" 
d="M52 538h102.001v-63h3c13.333 24 32.166 42.833 56.499 56.5s51.5 20.5 81.5 20.5c20.667 0 39.167 -2.5 55.5 -7.5s30.333 -13.167 42 -24.5s20.667 -26.333 27 -45s9.5 -41.667 9.5 -69v-406h-108v369c0 36 -5.5 61.167 -16.5 75.5s-30.5 21.5 -58.5 21.5
c-22 0 -41.833 -8.5 -59.5 -25.5s-26.5 -43.5 -26.5 -79.5v-361h-108v538zM190.001 -50l96 -0.00195312v-86c0 -30 -7.66699 -51.167 -23 -63.5s-36.333 -20.166 -63 -23.499v33c10 2.66699 18 6.83398 24 12.501s9.66699 15.167 11 28.5h-45v99z" />
    <glyph glyph-name="Ncaron" unicode="&#x147;" horiz-adv-x="574" 
d="M59 714h139l207 -532h2v532h108v-714h-139l-207 546h-2v-546h-108v714zM143 906h91l54 -88l57 88h86l-91 -144h-108z" />
    <glyph glyph-name="ncaron" unicode="&#x148;" horiz-adv-x="481" 
d="M52 538h102.001v-63h3c13.333 24 32.166 42.833 56.499 56.5s51.5 20.5 81.5 20.5c20.667 0 39.167 -2.5 55.5 -7.5s30.333 -13.167 42 -24.5s20.667 -26.333 27 -45s9.5 -41.667 9.5 -69v-406h-108v369c0 36 -5.5 61.167 -16.5 75.5s-30.5 21.5 -58.5 21.5
c-22 0 -41.833 -8.5 -59.5 -25.5s-26.5 -43.5 -26.5 -79.5v-361h-108v538zM96.001 752h91l54 -88l57 88h86l-91 -144h-108z" />
    <glyph glyph-name="Omacron" unicode="&#x14c;" horiz-adv-x="556" 
d="M278 72c16.667 0 32.5 3.5 47.5 10.5s28 20.833 39 41.5s19.667 49.834 26 87.501s9.5 87.167 9.5 148.5c0 60 -3.16699 108.5 -9.5 145.5s-15 65.5 -26 85.5s-24 33.5 -39 40.5s-30.833 10.5 -47.5 10.5c-17.333 0 -33.333 -3.5 -48 -10.5s-27.5 -20.5 -38.5 -40.5
s-19.667 -48.5 -26 -85.5s-9.5 -85.5 -9.5 -145.5c0 -61.333 3.16699 -110.833 9.5 -148.5s15 -66.834 26 -87.501s23.833 -34.5 38.5 -41.5s30.667 -10.5 48 -10.5zM278 -14c-82 0 -141.833 30 -179.5 90s-56.5 153.667 -56.5 281s18.833 221 56.5 281s97.5 90 179.5 90
s141.833 -30 179.5 -90s56.5 -153.667 56.5 -281s-18.833 -221 -56.5 -281s-97.5 -90 -179.5 -90zM419 865v-62h-282v62h282z" />
    <glyph glyph-name="omacron" unicode="&#x14d;" horiz-adv-x="463" 
d="M139 269c0 -34 1.16699 -63.833 3.5 -89.5s6.83301 -46.834 13.5 -63.501s16 -29.167 28 -37.5s27.667 -12.5 47 -12.5c20 0 36 4.16699 48 12.5s21.333 20.833 28 37.5s11.167 37.834 13.5 63.501s3.5 55.5 3.5 89.5c0 30 -1.16699 57.333 -3.5 82s-6.83301 46 -13.5 64
s-16 32 -28 42s-28 15 -48 15c-19.333 0 -35 -5 -47 -15s-21.333 -24 -28 -42s-11.167 -39.333 -13.5 -64s-3.5 -52 -3.5 -82zM231 -14c-37.333 0 -68.665 6.83301 -93.998 20.5s-45.833 33 -61.5 58s-27 54.833 -34 89.5s-10.5 73 -10.5 115s3.16699 80.333 9.5 115
s17 64.5 32 89.5s35.333 44.333 61 58s58.167 20.5 97.5 20.5c38.667 0 71 -6.83301 97 -20.5s46.667 -33 62 -58s26.166 -54.833 32.499 -89.5s9.5 -73 9.5 -115s-3.5 -80.333 -10.5 -115s-18.333 -64.5 -34 -89.5s-36.334 -44.333 -62.001 -58s-57.167 -20.5 -94.5 -20.5z
M372.001 711v-62h-282v62h282z" />
    <glyph glyph-name="Obreve" unicode="&#x14e;" horiz-adv-x="556" 
d="M278 72c16.667 0 32.5 3.5 47.5 10.5s28 20.833 39 41.5s19.667 49.834 26 87.501s9.5 87.167 9.5 148.5c0 60 -3.16699 108.5 -9.5 145.5s-15 65.5 -26 85.5s-24 33.5 -39 40.5s-30.833 10.5 -47.5 10.5c-17.333 0 -33.333 -3.5 -48 -10.5s-27.5 -20.5 -38.5 -40.5
s-19.667 -48.5 -26 -85.5s-9.5 -85.5 -9.5 -145.5c0 -61.333 3.16699 -110.833 9.5 -148.5s15 -66.834 26 -87.501s23.833 -34.5 38.5 -41.5s30.667 -10.5 48 -10.5zM278 -14c-82 0 -141.833 30 -179.5 90s-56.5 153.667 -56.5 281s18.833 221 56.5 281s97.5 90 179.5 90
s141.833 -30 179.5 -90s56.5 -153.667 56.5 -281s-18.833 -221 -56.5 -281s-97.5 -90 -179.5 -90zM206 902c0 -6 1.49902 -12.833 4.49902 -20.5s7.5 -15 13.5 -22s13.333 -12.833 22 -17.5s19 -7 31 -7s22.333 2.33301 31 7s16 10.5 22 17.5s10.5 14.333 13.5 22
s4.5 14.5 4.5 20.5h62c0 -18.667 -3 -36.167 -9 -52.5s-14.667 -30.666 -26 -42.999s-25.333 -22 -42 -29s-35.334 -10.5 -56.001 -10.5c-21.333 0 -40.166 3.5 -56.499 10.5s-30.166 16.667 -41.499 29s-20 26.666 -26 42.999s-9 33.833 -9 52.5h62z" />
    <glyph glyph-name="obreve" unicode="&#x14f;" horiz-adv-x="463" 
d="M139 269c0 -34 1.16699 -63.833 3.5 -89.5s6.83301 -46.834 13.5 -63.501s16 -29.167 28 -37.5s27.667 -12.5 47 -12.5c20 0 36 4.16699 48 12.5s21.333 20.833 28 37.5s11.167 37.834 13.5 63.501s3.5 55.5 3.5 89.5c0 30 -1.16699 57.333 -3.5 82s-6.83301 46 -13.5 64
s-16 32 -28 42s-28 15 -48 15c-19.333 0 -35 -5 -47 -15s-21.333 -24 -28 -42s-11.167 -39.333 -13.5 -64s-3.5 -52 -3.5 -82zM231 -14c-37.333 0 -68.665 6.83301 -93.998 20.5s-45.833 33 -61.5 58s-27 54.833 -34 89.5s-10.5 73 -10.5 115s3.16699 80.333 9.5 115
s17 64.5 32 89.5s35.333 44.333 61 58s58.167 20.5 97.5 20.5c38.667 0 71 -6.83301 97 -20.5s46.667 -33 62 -58s26.166 -54.833 32.499 -89.5s9.5 -73 9.5 -115s-3.5 -80.333 -10.5 -115s-18.333 -64.5 -34 -89.5s-36.334 -44.333 -62.001 -58s-57.167 -20.5 -94.5 -20.5z
M160.001 748c0 -6 1.49902 -12.833 4.49902 -20.5s7.5 -15 13.5 -22s13.333 -12.833 22 -17.5s19 -7 31 -7s22.333 2.33301 31 7s16 10.5 22 17.5s10.5 14.333 13.5 22s4.5 14.5 4.5 20.5h62c0 -18.667 -3 -36.167 -9 -52.5s-14.667 -30.666 -26 -42.999
s-25.333 -22 -42 -29s-35.334 -10.5 -56.001 -10.5c-21.333 0 -40.166 3.5 -56.499 10.5s-30.166 16.667 -41.499 29s-20 26.666 -26 42.999s-9 33.833 -9 52.5h62z" />
    <glyph glyph-name="Ohungarumlaut" unicode="&#x150;" horiz-adv-x="556" 
d="M278 72c16.667 0 32.5 3.5 47.5 10.5s28 20.833 39 41.5s19.667 49.834 26 87.501s9.5 87.167 9.5 148.5c0 60 -3.16699 108.5 -9.5 145.5s-15 65.5 -26 85.5s-24 33.5 -39 40.5s-30.833 10.5 -47.5 10.5c-17.333 0 -33.333 -3.5 -48 -10.5s-27.5 -20.5 -38.5 -40.5
s-19.667 -48.5 -26 -85.5s-9.5 -85.5 -9.5 -145.5c0 -61.333 3.16699 -110.833 9.5 -148.5s15 -66.834 26 -87.501s23.833 -34.5 38.5 -41.5s30.667 -10.5 48 -10.5zM278 -14c-82 0 -141.833 30 -179.5 90s-56.5 153.667 -56.5 281s18.833 221 56.5 281s97.5 90 179.5 90
s141.833 -30 179.5 -90s56.5 -153.667 56.5 -281s-18.833 -221 -56.5 -281s-97.5 -90 -179.5 -90zM405 906h120l-106 -144h-74zM205 906h120l-106 -144h-74z" />
    <glyph glyph-name="ohungarumlaut" unicode="&#x151;" horiz-adv-x="463" 
d="M139 269c0 -34 1.16699 -63.833 3.5 -89.5s6.83301 -46.834 13.5 -63.501s16 -29.167 28 -37.5s27.667 -12.5 47 -12.5c20 0 36 4.16699 48 12.5s21.333 20.833 28 37.5s11.167 37.834 13.5 63.501s3.5 55.5 3.5 89.5c0 30 -1.16699 57.333 -3.5 82s-6.83301 46 -13.5 64
s-16 32 -28 42s-28 15 -48 15c-19.333 0 -35 -5 -47 -15s-21.333 -24 -28 -42s-11.167 -39.333 -13.5 -64s-3.5 -52 -3.5 -82zM231 -14c-37.333 0 -68.665 6.83301 -93.998 20.5s-45.833 33 -61.5 58s-27 54.833 -34 89.5s-10.5 73 -10.5 115s3.16699 80.333 9.5 115
s17 64.5 32 89.5s35.333 44.333 61 58s58.167 20.5 97.5 20.5c38.667 0 71 -6.83301 97 -20.5s46.667 -33 62 -58s26.166 -54.833 32.499 -89.5s9.5 -73 9.5 -115s-3.5 -80.333 -10.5 -115s-18.333 -64.5 -34 -89.5s-36.334 -44.333 -62.001 -58s-57.167 -20.5 -94.5 -20.5z
M354.001 752h120l-106 -144h-74zM154.001 752h120l-106 -144h-74z" />
    <glyph glyph-name="OE" unicode="&#x152;" horiz-adv-x="796" 
d="M392 478c0 34 -2.83203 61.668 -8.49902 83.001s-13.167 38 -22.5 50s-20.5 20.167 -33.5 24.5s-26.833 6.5 -41.5 6.5c-19.333 0 -36.833 -3.5 -52.5 -10.5s-29.334 -20.5 -41.001 -40.5s-20.667 -48.5 -27 -85.5s-9.5 -85.5 -9.5 -145.5
c0 -61.333 3.16699 -110.833 9.5 -148.5s15 -66.834 26 -87.501s23.833 -34.5 38.5 -41.5s30.667 -10.5 48 -10.5c16.667 0 32 2.16699 46 6.5s26 12.5 36 24.5s17.833 28.667 23.5 50s8.5 49 8.5 83v242zM400.001 51.001h-2c-14 -22.667 -33.5 -39.167 -58.5 -49.5
s-51.5 -15.5 -79.5 -15.5c-74 0 -128.833 29.5 -164.5 88.5s-53.5 153.167 -53.5 282.5c0 128 18.167 221.833 54.5 281.5s92.166 89.5 167.499 89.5c64.667 0 109.334 -19.333 134.001 -58h2v44h354v-96h-254v-198h238v-96h-238v-228h262v-96h-362v51z" />
    <glyph glyph-name="oe" unicode="&#x153;" horiz-adv-x="722" 
d="M139 269c0 -30 1.16699 -57.333 3.5 -82s6.66602 -46 12.999 -64s15.166 -32 26.499 -42s26.333 -15 45 -15c20 0 36 5 48 15s21.333 24 28 42s11.167 39.333 13.5 64s3.5 52 3.5 82s-1.16699 57.333 -3.5 82s-6.83301 46 -13.5 64s-16 32 -28 42s-28 15 -48 15
c-18.667 0 -33.667 -5 -45 -15s-20.166 -24 -26.499 -42s-10.666 -39.333 -12.999 -64s-3.5 -52 -3.5 -82zM689 180c0 -60.667 -16.833 -108.167 -50.5 -142.5s-79.834 -51.5 -138.501 -51.5c-24.667 0 -45.167 3.66699 -61.5 11s-29.5 16 -39.5 26s-17.333 19.667 -22 29
s-7.66699 16 -9 20c-15.333 -30.667 -35.333 -52.667 -60 -66s-54 -20 -88 -20c-36 0 -66.167 6.83301 -90.5 20.5s-43.833 33 -58.5 58s-25 54.833 -31 89.5s-9 73 -9 115s3 80.333 9 115s16.5 64.5 31.5 89.5s35.167 44.333 60.5 58s57 20.5 95 20.5
c24.667 0 45.334 -2.66699 62.001 -8s30.667 -12.166 42 -20.499s20.333 -17.333 27 -27s12.334 -18.5 17.001 -26.5c16.667 28 35.834 48.667 57.501 62s49.5 20 83.5 20s62.167 -5.5 84.5 -16.5s40.166 -26.833 53.499 -47.5s22.833 -45.834 28.5 -75.501
s8.5 -63.167 8.5 -100.5v-57h-269v-38c0 -20 1.16699 -39.167 3.5 -57.5s6.33301 -34.833 12 -49.5s13.667 -26.5 24 -35.5s23.5 -13.833 39.5 -14.5c19.333 0 34.666 4.66699 45.999 14s20 20.5 26 33.5s9.83301 26.333 11.5 40s2.5 24.5 2.5 32.5h102zM583 329v29.001
c0 34 -5.83301 62.5 -17.5 85.5s-31.834 34.5 -60.501 34.5c-16 0 -29.333 -4.5 -40 -13.5s-19.167 -20 -25.5 -33s-10.666 -26.833 -12.999 -41.5s-3.5 -27.334 -3.5 -38.001v-23h160z" />
    <glyph glyph-name="Racute" unicode="&#x154;" horiz-adv-x="537" 
d="M264 396c36.667 0 64.833 10.333 84.5 31s29.5 49 29.5 85c0 38 -8.5 66.833 -25.5 86.5s-44.5 29.5 -82.5 29.5h-97v-232h91zM58.999 714l252.002 -0.00390625c24.667 0 48 -3.33301 70 -10s41.333 -17.334 58 -32.001s29.667 -33.667 39 -57s14 -51.666 14 -84.999
c0 -46 -9.83301 -85.167 -29.5 -117.5s-49.5 -51.5 -89.5 -57.5v-2c36 -3.33301 63.167 -16 81.5 -38s28.5 -58 30.5 -108c0.666992 -23.333 1.16699 -48 1.5 -74s1.16602 -49.667 2.49902 -71c1.33301 -17.333 5.5 -30.666 12.5 -39.999s14.167 -16.666 21.5 -21.999h-129
c-5.33301 6.66699 -9.5 15.334 -12.5 26.001s-5.16699 23 -6.5 37c-2 20.667 -3 42 -3 64c0 10.667 -0.166992 21.834 -0.5 33.501s-0.833008 24.167 -1.5 37.5c-1.33301 40 -9.33301 68.667 -24 86s-41.334 26 -80.001 26h-93v-310h-114v714zM263.001 905.996h120
l-106 -144h-74z" />
    <glyph glyph-name="racute" unicode="&#x155;" horiz-adv-x="315" 
d="M52 538l107.998 0.000976562v-84h2c12 30 28.167 53.833 48.5 71.5s45.833 26.5 76.5 26.5c12.667 0 21.334 -1.33301 26.001 -4v-110c-4 1.33301 -10.167 2.66602 -18.5 3.99902s-17.166 2 -26.499 2c-12 0 -24.5 -1.66699 -37.5 -5s-24.667 -9.5 -35 -18.5
s-18.833 -21.5 -25.5 -37.5s-10 -36.333 -10 -61v-322h-108v538zM146.998 752.001h120l-106 -144h-74z" />
    <glyph glyph-name="Rcommaaccent" unicode="&#x156;" horiz-adv-x="537" 
d="M264 396c36.667 0 64.833 10.333 84.5 31s29.5 49 29.5 85c0 38 -8.5 66.833 -25.5 86.5s-44.5 29.5 -82.5 29.5h-97v-232h91zM58.999 714l252.002 -0.00390625c24.667 0 48 -3.33301 70 -10s41.333 -17.334 58 -32.001s29.667 -33.667 39 -57s14 -51.666 14 -84.999
c0 -46 -9.83301 -85.167 -29.5 -117.5s-49.5 -51.5 -89.5 -57.5v-2c36 -3.33301 63.167 -16 81.5 -38s28.5 -58 30.5 -108c0.666992 -23.333 1.16699 -48 1.5 -74s1.16602 -49.667 2.49902 -71c1.33301 -17.333 5.5 -30.666 12.5 -39.999s14.167 -16.666 21.5 -21.999h-129
c-5.33301 6.66699 -9.5 15.334 -12.5 26.001s-5.16699 23 -6.5 37c-2 20.667 -3 42 -3 64c0 10.667 -0.166992 21.834 -0.5 33.501s-0.833008 24.167 -1.5 37.5c-1.33301 40 -9.33301 68.667 -24 86s-41.334 26 -80.001 26h-93v-310h-114v714zM225.001 -50.0039
l96 -0.00195312v-86c0 -30 -7.66699 -51.167 -23 -63.5s-36.333 -20.166 -63 -23.499v33c10 2.66699 18 6.83398 24 12.501s9.66699 15.167 11 28.5h-45v99z" />
    <glyph glyph-name="rcommaaccent" unicode="&#x157;" horiz-adv-x="315" 
d="M52 538l107.998 0.000976562v-84h2c12 30 28.167 53.833 48.5 71.5s45.833 26.5 76.5 26.5c12.667 0 21.334 -1.33301 26.001 -4v-110c-4 1.33301 -10.167 2.66602 -18.5 3.99902s-17.166 2 -26.499 2c-12 0 -24.5 -1.66699 -37.5 -5s-24.667 -9.5 -35 -18.5
s-18.833 -21.5 -25.5 -37.5s-10 -36.333 -10 -61v-322h-108v538zM58.998 -49.999l96 -0.00195312v-86c0 -30 -7.66699 -51.167 -23 -63.5s-36.333 -20.166 -63 -23.499v33c10 2.66699 18 6.83398 24 12.501s9.66699 15.167 11 28.5h-45v99z" />
    <glyph glyph-name="Rcaron" unicode="&#x158;" horiz-adv-x="537" 
d="M264 396c36.667 0 64.833 10.333 84.5 31s29.5 49 29.5 85c0 38 -8.5 66.833 -25.5 86.5s-44.5 29.5 -82.5 29.5h-97v-232h91zM58.999 714l252.002 -0.00390625c24.667 0 48 -3.33301 70 -10s41.333 -17.334 58 -32.001s29.667 -33.667 39 -57s14 -51.666 14 -84.999
c0 -46 -9.83301 -85.167 -29.5 -117.5s-49.5 -51.5 -89.5 -57.5v-2c36 -3.33301 63.167 -16 81.5 -38s28.5 -58 30.5 -108c0.666992 -23.333 1.16699 -48 1.5 -74s1.16602 -49.667 2.49902 -71c1.33301 -17.333 5.5 -30.666 12.5 -39.999s14.167 -16.666 21.5 -21.999h-129
c-5.33301 6.66699 -9.5 15.334 -12.5 26.001s-5.16699 23 -6.5 37c-2 20.667 -3 42 -3 64c0 10.667 -0.166992 21.834 -0.5 33.501s-0.833008 24.167 -1.5 37.5c-1.33301 40 -9.33301 68.667 -24 86s-41.334 26 -80.001 26h-93v-310h-114v714zM110.001 905.996h91l54 -88
l57 88h86l-91 -144h-108z" />
    <glyph glyph-name="rcaron" unicode="&#x159;" horiz-adv-x="315" 
d="M52 538l107.998 0.000976562v-84h2c12 30 28.167 53.833 48.5 71.5s45.833 26.5 76.5 26.5c12.667 0 21.334 -1.33301 26.001 -4v-110c-4 1.33301 -10.167 2.66602 -18.5 3.99902s-17.166 2 -26.499 2c-12 0 -24.5 -1.66699 -37.5 -5s-24.667 -9.5 -35 -18.5
s-18.833 -21.5 -25.5 -37.5s-10 -36.333 -10 -61v-322h-108v538zM37.998 752.001h91l54 -88l57 88h86l-91 -144h-108z" />
    <glyph glyph-name="Sacute" unicode="&#x15a;" horiz-adv-x="519" 
d="M147 221l0.000976562 -17.9971c0 -87.333 39 -131 117 -131c18 0 33.667 3 47 9s24.5 13.833 33.5 23.5s15.833 20.667 20.5 33s7 25.166 7 38.499c0 37.333 -9 65.5 -27 84.5s-43 33.167 -75 42.5l-78 27c-26 10 -48.333 21 -67 33s-34.167 25.833 -46.5 41.5
s-21.333 33.5 -27 53.5s-8.5 42.667 -8.5 68c0 32.667 5.33301 61.5 16 86.5s25.667 46 45 63s42.666 30 69.999 39s57.666 13.5 90.999 13.5c46 0 82.333 -6.33301 109 -19s46.834 -28.5 60.501 -47.5s22.5 -39.333 26.5 -61s6 -41.834 6 -60.501v-16h-114v15
c0 32.667 -7.66699 58 -23 76s-41 27 -77 27c-12 0 -23.833 -1.83301 -35.5 -5.5s-22 -9.5 -31 -17.5s-16.167 -18.667 -21.5 -32s-8 -29.333 -8 -48c0 -30.667 8.33301 -54.834 25 -72.501s44 -33.834 82 -48.501l77 -28c50.667 -18 87.5 -41.667 110.5 -71
s34.5 -68.666 34.5 -117.999c0 -38 -5.5 -70.5 -16.5 -97.5s-26.833 -49.333 -47.5 -67s-45.5 -30.5 -74.5 -38.5s-61.5 -12 -97.5 -12c-44 0 -80.167 6.66699 -108.5 20s-50.5 30.5 -66.5 51.5s-27 44.333 -33 70s-9 51.167 -9 76.5v17h114zM285.001 906.003h120l-106 -144
h-74z" />
    <glyph glyph-name="sacute" unicode="&#x15b;" horiz-adv-x="426" 
d="M284 381l0.00292969 14.002c0 10.667 -1 21 -3 31s-5.83301 18.833 -11.5 26.5s-13 13.834 -22 18.501s-20.5 7 -34.5 7c-21.333 0 -39.5 -5.33301 -54.5 -16s-22.5 -28.667 -22.5 -54c0 -21.333 5.5 -37.333 16.5 -48s30.833 -21 59.5 -31l69 -24
c40 -13.333 69.5 -31.833 88.5 -55.5s28.5 -56.834 28.5 -99.501c0 -28.667 -5 -53.334 -15 -74.001s-23.667 -37.667 -41 -51s-37.833 -23.166 -61.5 -29.499s-48.834 -9.5 -75.501 -9.5c-34 0 -62.333 3.83301 -85 11.5s-40.834 18.667 -54.501 33
s-23.334 31.833 -29.001 52.5s-8.5 44 -8.5 70v20h96v-17c0 -32 6 -56 18 -72s34 -24 66 -24c30 0 52.167 7 66.5 21s21.5 33.333 21.5 58c0 39.333 -19.667 65.666 -59 78.999l-88 31c-40.667 13.333 -70 31.666 -88 54.999s-27 56.666 -27 99.999
c0 50.667 16.5 88 49.5 112s77.833 36 134.5 36c34 0 62 -4.5 84 -13.5s39.167 -20.667 51.5 -35s20.833 -30.166 25.5 -47.499s7 -34.333 7 -51v-24h-102zM236.003 752.002h120l-106 -144h-74z" />
    <glyph glyph-name="Scircumflex" unicode="&#x15c;" horiz-adv-x="519" 
d="M147 221l0.000976562 -17.9971c0 -87.333 39 -131 117 -131c18 0 33.667 3 47 9s24.5 13.833 33.5 23.5s15.833 20.667 20.5 33s7 25.166 7 38.499c0 37.333 -9 65.5 -27 84.5s-43 33.167 -75 42.5l-78 27c-26 10 -48.333 21 -67 33s-34.167 25.833 -46.5 41.5
s-21.333 33.5 -27 53.5s-8.5 42.667 -8.5 68c0 32.667 5.33301 61.5 16 86.5s25.667 46 45 63s42.666 30 69.999 39s57.666 13.5 90.999 13.5c46 0 82.333 -6.33301 109 -19s46.834 -28.5 60.501 -47.5s22.5 -39.333 26.5 -61s6 -41.834 6 -60.501v-16h-114v15
c0 32.667 -7.66699 58 -23 76s-41 27 -77 27c-12 0 -23.833 -1.83301 -35.5 -5.5s-22 -9.5 -31 -17.5s-16.167 -18.667 -21.5 -32s-8 -29.333 -8 -48c0 -30.667 8.33301 -54.834 25 -72.501s44 -33.834 82 -48.501l77 -28c50.667 -18 87.5 -41.667 110.5 -71
s34.5 -68.666 34.5 -117.999c0 -38 -5.5 -70.5 -16.5 -97.5s-26.833 -49.333 -47.5 -67s-45.5 -30.5 -74.5 -38.5s-61.5 -12 -97.5 -12c-44 0 -80.167 6.66699 -108.5 20s-50.5 30.5 -66.5 51.5s-27 44.333 -33 70s-9 51.167 -9 76.5v17h114zM215.001 906.003h108l89 -144
h-91l-54 88l-57 -88h-86z" />
    <glyph glyph-name="scircumflex" unicode="&#x15d;" horiz-adv-x="426" 
d="M284 381l0.00292969 14.002c0 10.667 -1 21 -3 31s-5.83301 18.833 -11.5 26.5s-13 13.834 -22 18.501s-20.5 7 -34.5 7c-21.333 0 -39.5 -5.33301 -54.5 -16s-22.5 -28.667 -22.5 -54c0 -21.333 5.5 -37.333 16.5 -48s30.833 -21 59.5 -31l69 -24
c40 -13.333 69.5 -31.833 88.5 -55.5s28.5 -56.834 28.5 -99.501c0 -28.667 -5 -53.334 -15 -74.001s-23.667 -37.667 -41 -51s-37.833 -23.166 -61.5 -29.499s-48.834 -9.5 -75.501 -9.5c-34 0 -62.333 3.83301 -85 11.5s-40.834 18.667 -54.501 33
s-23.334 31.833 -29.001 52.5s-8.5 44 -8.5 70v20h96v-17c0 -32 6 -56 18 -72s34 -24 66 -24c30 0 52.167 7 66.5 21s21.5 33.333 21.5 58c0 39.333 -19.667 65.666 -59 78.999l-88 31c-40.667 13.333 -70 31.666 -88 54.999s-27 56.666 -27 99.999
c0 50.667 16.5 88 49.5 112s77.833 36 134.5 36c34 0 62 -4.5 84 -13.5s39.167 -20.667 51.5 -35s20.833 -30.166 25.5 -47.499s7 -34.333 7 -51v-24h-102zM164.003 752.002h108l89 -144h-91l-54 88l-57 -88h-86z" />
    <glyph glyph-name="Scedilla" unicode="&#x15e;" horiz-adv-x="519" 
d="M147 221l0.000976562 -17.9941c0 -87.333 39 -131 117 -131c18 0 33.667 3 47 9s24.5 13.833 33.5 23.5s15.833 20.667 20.5 33s7 25.166 7 38.499c0 37.333 -9 65.5 -27 84.5s-43 33.167 -75 42.5l-78 27c-26 10 -48.333 21 -67 33s-34.167 25.833 -46.5 41.5
s-21.333 33.5 -27 53.5s-8.5 42.667 -8.5 68c0 32.667 5.33301 61.5 16 86.5s25.667 46 45 63s42.666 30 69.999 39s57.666 13.5 90.999 13.5c46 0 82.333 -6.33301 109 -19s46.834 -28.5 60.501 -47.5s22.5 -39.333 26.5 -61s6 -41.834 6 -60.501v-16h-114v15
c0 32.667 -7.66699 58 -23 76s-41 27 -77 27c-12 0 -23.833 -1.83301 -35.5 -5.5s-22 -9.5 -31 -17.5s-16.167 -18.667 -21.5 -32s-8 -29.333 -8 -48c0 -30.667 8.33301 -54.834 25 -72.501s44 -33.834 82 -48.501l77 -28c50.667 -18 87.5 -41.667 110.5 -71
s34.5 -68.666 34.5 -117.999c0 -56.667 -12.167 -101.667 -36.5 -135s-58.5 -56 -102.5 -68c-25.333 -7.33301 -52.333 -11.333 -81 -12l-32 -46c7.33301 2 14.166 3.33301 20.499 4s12.833 1 19.5 1c22.667 0 41.334 -7.33301 56.001 -22s22 -32 22 -52
c0 -28 -11 -50.333 -33 -67s-50 -25.667 -84 -27c-22.667 0 -42.167 1.66699 -58.5 5s-30.5 7.33301 -42.5 12l16 40c20 -8.66699 43 -13 69 -13c16 0 28.833 3.16699 38.5 9.5s14.5 17.166 14.5 32.499c0 11.333 -4.5 20.5 -13.5 27.5s-19.833 10.5 -32.5 10.5
c-7.33301 0 -14 -0.666992 -20 -2s-12 -3.33301 -18 -6l-18 17l48 78c-30 2 -55.667 8 -77 18s-39 22.333 -53 37s-25 30.667 -33 48s-13.667 35.666 -17 54.999s-5 38.666 -5 57.999v17h114z" />
    <glyph glyph-name="scedilla" unicode="&#x15f;" horiz-adv-x="426" 
d="M284 381l0.00195312 14.002c0 10.667 -1 21 -3 31s-5.83301 18.833 -11.5 26.5s-13 13.834 -22 18.501s-20.5 7 -34.5 7c-21.333 0 -39.5 -5.33301 -54.5 -16s-22.5 -28.667 -22.5 -54c0 -21.333 5.5 -37.333 16.5 -48s30.833 -21 59.5 -31l69 -24
c40 -13.333 69.5 -31.833 88.5 -55.5s28.5 -56.834 28.5 -99.501s-10.833 -76.667 -32.5 -102s-49.834 -42.666 -84.501 -51.999c-18.667 -4.66699 -38.334 -7.66699 -59.001 -9l-32 -47c7.33301 2 14.166 3.33301 20.499 4s12.833 1 19.5 1
c22.667 0 41.334 -7.33301 56.001 -22s22 -32 22 -52c0 -28 -11 -50.333 -33 -67s-50 -25.667 -84 -27c-22.667 0 -42.167 1.66699 -58.5 5s-30.5 7.33301 -42.5 12l16 40c20 -8.66699 43 -13 69 -13c16 0 28.833 3.16699 38.5 9.5s14.5 17.166 14.5 32.499
c0 11.333 -4.5 20.5 -13.5 27.5s-19.833 10.5 -32.5 10.5c-7.33301 0 -14 -0.666992 -20 -2s-12 -3.33301 -18 -6l-18 17l48 77c-17.333 2 -35.333 5.66699 -54 11c-34.667 11.333 -58.667 30 -72 56s-20 59 -20 99v20h96v-17c0 -32 6 -56 18 -72s34 -24 66 -24
c30 0 52.167 7 66.5 21s21.5 33.333 21.5 58c0 39.333 -19.667 65.666 -59 78.999l-88 31c-40.667 13.333 -70 31.666 -88 54.999s-27 56.666 -27 99.999c0 50.667 16.5 88 49.5 112s77.833 36 134.5 36c34 0 62 -4.5 84 -13.5s39.167 -20.667 51.5 -35
s20.833 -30.166 25.5 -47.499s7 -34.333 7 -51v-24h-102z" />
    <glyph glyph-name="Scaron" unicode="&#x160;" horiz-adv-x="519" 
d="M147 221l0.000976562 -17.9971c0 -87.333 39 -131 117 -131c18 0 33.667 3 47 9s24.5 13.833 33.5 23.5s15.833 20.667 20.5 33s7 25.166 7 38.499c0 37.333 -9 65.5 -27 84.5s-43 33.167 -75 42.5l-78 27c-26 10 -48.333 21 -67 33s-34.167 25.833 -46.5 41.5
s-21.333 33.5 -27 53.5s-8.5 42.667 -8.5 68c0 32.667 5.33301 61.5 16 86.5s25.667 46 45 63s42.666 30 69.999 39s57.666 13.5 90.999 13.5c46 0 82.333 -6.33301 109 -19s46.834 -28.5 60.501 -47.5s22.5 -39.333 26.5 -61s6 -41.834 6 -60.501v-16h-114v15
c0 32.667 -7.66699 58 -23 76s-41 27 -77 27c-12 0 -23.833 -1.83301 -35.5 -5.5s-22 -9.5 -31 -17.5s-16.167 -18.667 -21.5 -32s-8 -29.333 -8 -48c0 -30.667 8.33301 -54.834 25 -72.501s44 -33.834 82 -48.501l77 -28c50.667 -18 87.5 -41.667 110.5 -71
s34.5 -68.666 34.5 -117.999c0 -38 -5.5 -70.5 -16.5 -97.5s-26.833 -49.333 -47.5 -67s-45.5 -30.5 -74.5 -38.5s-61.5 -12 -97.5 -12c-44 0 -80.167 6.66699 -108.5 20s-50.5 30.5 -66.5 51.5s-27 44.333 -33 70s-9 51.167 -9 76.5v17h114zM125.001 906.003h91l54 -88
l57 88h86l-91 -144h-108z" />
    <glyph glyph-name="scaron" unicode="&#x161;" horiz-adv-x="426" 
d="M284 381l0.00292969 14.002c0 10.667 -1 21 -3 31s-5.83301 18.833 -11.5 26.5s-13 13.834 -22 18.501s-20.5 7 -34.5 7c-21.333 0 -39.5 -5.33301 -54.5 -16s-22.5 -28.667 -22.5 -54c0 -21.333 5.5 -37.333 16.5 -48s30.833 -21 59.5 -31l69 -24
c40 -13.333 69.5 -31.833 88.5 -55.5s28.5 -56.834 28.5 -99.501c0 -28.667 -5 -53.334 -15 -74.001s-23.667 -37.667 -41 -51s-37.833 -23.166 -61.5 -29.499s-48.834 -9.5 -75.501 -9.5c-34 0 -62.333 3.83301 -85 11.5s-40.834 18.667 -54.501 33
s-23.334 31.833 -29.001 52.5s-8.5 44 -8.5 70v20h96v-17c0 -32 6 -56 18 -72s34 -24 66 -24c30 0 52.167 7 66.5 21s21.5 33.333 21.5 58c0 39.333 -19.667 65.666 -59 78.999l-88 31c-40.667 13.333 -70 31.666 -88 54.999s-27 56.666 -27 99.999
c0 50.667 16.5 88 49.5 112s77.833 36 134.5 36c34 0 62 -4.5 84 -13.5s39.167 -20.667 51.5 -35s20.833 -30.166 25.5 -47.499s7 -34.333 7 -51v-24h-102zM73.0029 752.002h91l54 -88l57 88h86l-91 -144h-108z" />
    <glyph glyph-name="Tcommaaccent" unicode="&#x162;" horiz-adv-x="463" 
d="M176 618h-170v96h451v-96h-167v-618h-114v618zM185 -50l96 -0.00195312v-86c0 -30 -7.66699 -51.167 -23 -63.5s-36.333 -20.166 -63 -23.499v33c10 2.66699 18 6.83398 24 12.501s9.66699 15.167 11 28.5h-45v99z" />
    <glyph glyph-name="tcommaaccent" unicode="&#x163;" horiz-adv-x="278" 
d="M4 538h74v153h108v-153h88v-80h-88v-321c0 -21.333 3.5 -36.166 10.5 -44.499s19.833 -12.5 38.5 -12.5c16 0 29 1 39 3v-80c-23.333 -6 -52.333 -9 -87 -9c-18 0 -33.833 1.66699 -47.5 5s-25 9.66602 -34 18.999s-15.833 22.5 -20.5 39.5s-7 39.167 -7 66.5v334h-74v80
zM128 -50l96 -0.00195312v-86c0 -30 -7.66699 -51.167 -23 -63.5s-36.333 -20.166 -63 -23.499v33c10 2.66699 18 6.83398 24 12.501s9.66699 15.167 11 28.5h-45v99z" />
    <glyph glyph-name="Tcaron" unicode="&#x164;" horiz-adv-x="463" 
d="M176 618h-170v96h451v-96h-167v-618h-114v618zM89 906h91l54 -88l57 88h86l-91 -144h-108z" />
    <glyph glyph-name="tcaron" unicode="&#x165;" horiz-adv-x="363" 
d="M290 714h105l-63 -144h-70zM4 538h74v153h108v-153h88v-80h-88v-321c0 -21.333 3.5 -36.166 10.5 -44.499s19.833 -12.5 38.5 -12.5c16 0 29 1 39 3v-80c-23.333 -6 -52.333 -9 -87 -9c-18 0 -33.833 1.66699 -47.5 5s-25 9.66602 -34 18.999s-15.833 22.5 -20.5 39.5
s-7 39.167 -7 66.5v334h-74v80z" />
    <glyph glyph-name="Tbar" unicode="&#x166;" horiz-adv-x="463" 
d="M176 618h-170v96h451v-96h-167v-150h130v-52h-130v-416h-114v416h-131v52h131v150z" />
    <glyph glyph-name="tbar" unicode="&#x167;" horiz-adv-x="278" 
d="M4 538h74v153h108v-153h88v-80h-88v-112h97v-52h-97v-157c0 -21.333 3.5 -36.166 10.5 -44.499s19.833 -12.5 38.5 -12.5c16 0 29 1 39 3v-80c-23.333 -6 -52.333 -9 -87 -9c-18 0 -33.833 1.66699 -47.5 5s-25 9.66602 -34 18.999s-15.833 22.5 -20.5 39.5
s-7 39.167 -7 66.5v170h-83v52h83v112h-74v80z" />
    <glyph glyph-name="Utilde" unicode="&#x168;" horiz-adv-x="537" 
d="M164 714l-0.000976562 -512c0 -46 8.83301 -79.167 26.5 -99.5s43.834 -30.5 78.501 -30.5c34 0 59.833 10.167 77.5 30.5s26.5 53.5 26.5 99.5v512h114v-503c0 -41.333 -5 -76.333 -15 -105s-24.333 -51.834 -43 -69.501s-41.5 -30.5 -68.5 -38.5s-57.5 -12 -91.5 -12
s-64.667 4 -92 12s-50.333 20.833 -69 38.5s-33 40.834 -43 69.501s-15 63.667 -15 105v503h114zM420.999 896c0 -11.333 -1.83398 -23.8311 -5.50098 -37.498s-9 -26.5 -16 -38.5s-16 -22 -27 -30s-23.5 -12 -37.5 -12c-11.333 0 -22.5 1.83301 -33.5 5.5
s-21.667 7.66699 -32 12l-29 12c-9 3.66699 -17.5 5.5 -25.5 5.5c-11.333 0 -19.833 -4.16699 -25.5 -12.5s-8.5 -17.5 -8.5 -27.5h-62c0 10.667 1.83301 23 5.5 37s9.5 27.167 17.5 39.5s18.333 22.666 31 30.999s28.334 12.5 47.001 12.5c8 0 16.5 -1.83301 25.5 -5.5
l27.5 -11.5c9.33301 -4.66699 18.833 -8.83398 28.5 -12.501s18.834 -5.5 27.501 -5.5c11.333 0 19.166 4 23.499 12s6.5 16.667 6.5 26h62z" />
    <glyph glyph-name="utilde" unicode="&#x169;" horiz-adv-x="481" 
d="M327 63h-3.00098c-13.333 -24 -32.166 -42.833 -56.499 -56.5s-51.5 -20.5 -81.5 -20.5c-20 0 -38.167 2.66699 -54.5 8s-30.5 14.666 -42.5 27.999s-21.167 31.333 -27.5 54s-9.5 51.334 -9.5 86.001v376h108v-386c0 -30 6.33301 -50.833 19 -62.5
s30.667 -17.5 54 -17.5s43.833 7.5 61.5 22.5s26.5 37.5 26.5 67.5v376h108v-538h-102v63zM392.999 742c0 -11.333 -1.83398 -23.8311 -5.50098 -37.498s-9 -26.5 -16 -38.5s-16 -22 -27 -30s-23.5 -12 -37.5 -12c-11.333 0 -22.5 1.83301 -33.5 5.5s-21.667 7.66699 -32 12
l-29 12c-9 3.66699 -17.5 5.5 -25.5 5.5c-11.333 0 -19.833 -4.16699 -25.5 -12.5s-8.5 -17.5 -8.5 -27.5h-62c0 10.667 1.83301 23 5.5 37s9.5 27.167 17.5 39.5s18.333 22.666 31 30.999s28.334 12.5 47.001 12.5c8 0 16.5 -1.83301 25.5 -5.5l27.5 -11.5
c9.33301 -4.66699 18.833 -8.83398 28.5 -12.501s18.834 -5.5 27.501 -5.5c11.333 0 19.166 4 23.499 12s6.5 16.667 6.5 26h62z" />
    <glyph glyph-name="Umacron" unicode="&#x16a;" horiz-adv-x="537" 
d="M164 714l-0.000976562 -512c0 -46 8.83301 -79.167 26.5 -99.5s43.834 -30.5 78.501 -30.5c34 0 59.833 10.167 77.5 30.5s26.5 53.5 26.5 99.5v512h114v-503c0 -41.333 -5 -76.333 -15 -105s-24.333 -51.834 -43 -69.501s-41.5 -30.5 -68.5 -38.5s-57.5 -12 -91.5 -12
s-64.667 4 -92 12s-50.333 20.833 -69 38.5s-33 40.834 -43 69.501s-15 63.667 -15 105v503h114zM409.999 865v-62h-282v62h282z" />
    <glyph glyph-name="umacron" unicode="&#x16b;" horiz-adv-x="481" 
d="M327 63h-3.00098c-13.333 -24 -32.166 -42.833 -56.499 -56.5s-51.5 -20.5 -81.5 -20.5c-20 0 -38.167 2.66699 -54.5 8s-30.5 14.666 -42.5 27.999s-21.167 31.333 -27.5 54s-9.5 51.334 -9.5 86.001v376h108v-386c0 -30 6.33301 -50.833 19 -62.5
s30.667 -17.5 54 -17.5s43.833 7.5 61.5 22.5s26.5 37.5 26.5 67.5v376h108v-538h-102v63zM382.999 711v-62h-282v62h282z" />
    <glyph glyph-name="Ubreve" unicode="&#x16c;" horiz-adv-x="537" 
d="M164 714l-0.000976562 -512c0 -46 8.83301 -79.167 26.5 -99.5s43.834 -30.5 78.501 -30.5c34 0 59.833 10.167 77.5 30.5s26.5 53.5 26.5 99.5v512h114v-503c0 -41.333 -5 -76.333 -15 -105s-24.333 -51.834 -43 -69.501s-41.5 -30.5 -68.5 -38.5s-57.5 -12 -91.5 -12
s-64.667 4 -92 12s-50.333 20.833 -69 38.5s-33 40.834 -43 69.501s-15 63.667 -15 105v503h114zM197.999 902c0 -6 1.49902 -12.833 4.49902 -20.5s7.5 -15 13.5 -22s13.333 -12.833 22 -17.5s19 -7 31 -7s22.333 2.33301 31 7s16 10.5 22 17.5s10.5 14.333 13.5 22
s4.5 14.5 4.5 20.5h62c0 -18.667 -3 -36.167 -9 -52.5s-14.667 -30.666 -26 -42.999s-25.333 -22 -42 -29s-35.334 -10.5 -56.001 -10.5c-21.333 0 -40.166 3.5 -56.499 10.5s-30.166 16.667 -41.499 29s-20 26.666 -26 42.999s-9 33.833 -9 52.5h62z" />
    <glyph glyph-name="ubreve" unicode="&#x16d;" horiz-adv-x="481" 
d="M327 63h-3.00098c-13.333 -24 -32.166 -42.833 -56.499 -56.5s-51.5 -20.5 -81.5 -20.5c-20 0 -38.167 2.66699 -54.5 8s-30.5 14.666 -42.5 27.999s-21.167 31.333 -27.5 54s-9.5 51.334 -9.5 86.001v376h108v-386c0 -30 6.33301 -50.833 19 -62.5
s30.667 -17.5 54 -17.5s43.833 7.5 61.5 22.5s26.5 37.5 26.5 67.5v376h108v-538h-102v63zM169.999 748c0 -6 1.49902 -12.833 4.49902 -20.5s7.5 -15 13.5 -22s13.333 -12.833 22 -17.5s19 -7 31 -7s22.333 2.33301 31 7s16 10.5 22 17.5s10.5 14.333 13.5 22
s4.5 14.5 4.5 20.5h62c0 -18.667 -3 -36.167 -9 -52.5s-14.667 -30.666 -26 -42.999s-25.333 -22 -42 -29s-35.334 -10.5 -56.001 -10.5c-21.333 0 -40.166 3.5 -56.499 10.5s-30.166 16.667 -41.499 29s-20 26.666 -26 42.999s-9 33.833 -9 52.5h62z" />
    <glyph glyph-name="Uring" unicode="&#x16e;" horiz-adv-x="537" 
d="M164 714l-0.000976562 -512c0 -46 8.83301 -79.167 26.5 -99.5s43.834 -30.5 78.501 -30.5c34 0 59.833 10.167 77.5 30.5s26.5 53.5 26.5 99.5v512h114v-503c0 -41.333 -5 -76.333 -15 -105s-24.333 -51.834 -43 -69.501s-41.5 -30.5 -68.5 -38.5s-57.5 -12 -91.5 -12
s-64.667 4 -92 12s-50.333 20.833 -69 38.5s-33 40.834 -43 69.501s-15 63.667 -15 105v503h114zM164.999 846c0 30 10.167 54.833 30.5 74.5s45.5 29.5 75.5 29.5s55.167 -9.83301 75.5 -29.5s30.5 -44.5 30.5 -74.5s-10.167 -54.833 -30.5 -74.5s-45.5 -29.5 -75.5 -29.5
s-55.167 9.83301 -75.5 29.5s-30.5 44.5 -30.5 74.5zM214.999 846c0 -15.333 5.5 -28.5 16.5 -39.5s24.167 -16.5 39.5 -16.5s28.5 5.5 39.5 16.5s16.5 24.167 16.5 39.5s-5.5 28.5 -16.5 39.5s-24.167 16.5 -39.5 16.5s-28.5 -5.5 -39.5 -16.5s-16.5 -24.167 -16.5 -39.5z
" />
    <glyph glyph-name="uring" unicode="&#x16f;" horiz-adv-x="481" 
d="M327 63h-3.00098c-13.333 -24 -32.166 -42.833 -56.499 -56.5s-51.5 -20.5 -81.5 -20.5c-20 0 -38.167 2.66699 -54.5 8s-30.5 14.666 -42.5 27.999s-21.167 31.333 -27.5 54s-9.5 51.334 -9.5 86.001v376h108v-386c0 -30 6.33301 -50.833 19 -62.5
s30.667 -17.5 54 -17.5s43.833 7.5 61.5 22.5s26.5 37.5 26.5 67.5v376h108v-538h-102v63zM135.999 696c0 30 10.167 54.833 30.5 74.5s45.5 29.5 75.5 29.5s55.167 -9.83301 75.5 -29.5s30.5 -44.5 30.5 -74.5s-10.167 -54.833 -30.5 -74.5s-45.5 -29.5 -75.5 -29.5
s-55.167 9.83301 -75.5 29.5s-30.5 44.5 -30.5 74.5zM185.999 696c0 -15.333 5.5 -28.5 16.5 -39.5s24.167 -16.5 39.5 -16.5s28.5 5.5 39.5 16.5s16.5 24.167 16.5 39.5s-5.5 28.5 -16.5 39.5s-24.167 16.5 -39.5 16.5s-28.5 -5.5 -39.5 -16.5s-16.5 -24.167 -16.5 -39.5z
" />
    <glyph glyph-name="Uhungarumlaut" unicode="&#x170;" horiz-adv-x="537" 
d="M164 714l-0.000976562 -512c0 -46 8.83301 -79.167 26.5 -99.5s43.834 -30.5 78.501 -30.5c34 0 59.833 10.167 77.5 30.5s26.5 53.5 26.5 99.5v512h114v-503c0 -41.333 -5 -76.333 -15 -105s-24.333 -51.834 -43 -69.501s-41.5 -30.5 -68.5 -38.5s-57.5 -12 -91.5 -12
s-64.667 4 -92 12s-50.333 20.833 -69 38.5s-33 40.834 -43 69.501s-15 63.667 -15 105v503h114zM388.999 906h120l-106 -144h-74zM188.999 906h120l-106 -144h-74z" />
    <glyph glyph-name="uhungarumlaut" unicode="&#x171;" horiz-adv-x="481" 
d="M327 63h-3.00098c-13.333 -24 -32.166 -42.833 -56.499 -56.5s-51.5 -20.5 -81.5 -20.5c-20 0 -38.167 2.66699 -54.5 8s-30.5 14.666 -42.5 27.999s-21.167 31.333 -27.5 54s-9.5 51.334 -9.5 86.001v376h108v-386c0 -30 6.33301 -50.833 19 -62.5
s30.667 -17.5 54 -17.5s43.833 7.5 61.5 22.5s26.5 37.5 26.5 67.5v376h108v-538h-102v63zM359.999 752h120l-106 -144h-74zM159.999 752h120l-106 -144h-74z" />
    <glyph glyph-name="Uogonek" unicode="&#x172;" horiz-adv-x="537" 
d="M164 714l0.000976562 -511.998c0 -46 8.83301 -79.167 26.5 -99.5s43.834 -30.5 78.501 -30.5c34 0 59.833 10.167 77.5 30.5s26.5 53.5 26.5 99.5v512h114v-503c0 -62.667 -11 -110.834 -33 -144.501s-53.333 -56.5 -94 -68.5
c-9.33301 -2.66699 -18.666 -4.83398 -27.999 -6.50098s-19.333 -3.16699 -30 -4.5c-20.667 -20.667 -34.334 -37.667 -41.001 -51c-9.33301 -20 -14 -38.667 -14 -56c0 -18.667 5.16699 -32.834 15.5 -42.501s24.166 -14.5 41.499 -14.5c6 0 13.167 0.666992 21.5 2
s15.833 3 22.5 5l6 -42c-11.333 -3.33301 -24 -6 -38 -8s-27.333 -3 -40 -3c-32 0 -58.167 7.16699 -78.5 21.5s-30.5 37.5 -30.5 69.5c0 26 9.33301 50.333 28 73c13.333 17.333 29.666 32.666 48.999 45.999c-12 0.666992 -23.5 1.83398 -34.5 3.50098
s-21.833 4.16699 -32.5 7.5c-40.667 12 -72 34.833 -94 68.5s-33 81.834 -33 144.501v503h114z" />
    <glyph glyph-name="uogonek" unicode="&#x173;" horiz-adv-x="481" 
d="M372 0c-23.333 -25.333 -39.333 -46.833 -48 -64.5s-13 -36.167 -13 -55.5c0 -18.667 4.66699 -32.834 14 -42.501s21.666 -14.5 36.999 -14.5c5.33301 0 11.833 0.666992 19.5 2s14.5 3 20.5 5l5 -42c-10 -3.33301 -21.333 -6 -34 -8s-24.667 -3 -36 -3
c-28.667 0 -52.167 7.16699 -70.5 21.5s-27.5 37.5 -27.5 69.5c0 24.667 8.33301 48.834 25 72.501s37.667 43.5 63 59.5v63h-3c-13.333 -24 -32.166 -42.833 -56.499 -56.5s-51.5 -20.5 -81.5 -20.5c-20 0 -38.167 2.66699 -54.5 8s-30.5 14.666 -42.5 27.999
s-21.167 31.333 -27.5 54s-9.5 51.334 -9.5 86.001v376h108v-386c0 -30 6.33301 -50.833 19 -62.5s30.667 -17.5 54 -17.5s43.833 7.5 61.5 22.5s26.5 37.5 26.5 67.5v376h108v-538h-57z" />
    <glyph glyph-name="Wcircumflex" unicode="&#x174;" horiz-adv-x="741" 
d="M6 714h115l94 -555h2l94 555h120l96 -558h2l93 558h113l-142 -714h-132l-92 538h-2l-91 -538h-132zM316 906h108l89 -144h-91l-54 88l-57 -88h-86z" />
    <glyph glyph-name="wcircumflex" unicode="&#x175;" horiz-adv-x="685" 
d="M15 538h112l75 -424h2l80 424h122l80 -424h2l74 424h108l-123 -538h-121l-84 418h-2l-77 -418h-126zM293 752h108l89 -144h-91l-54 88l-57 -88h-86z" />
    <glyph glyph-name="Ycircumflex" unicode="&#x176;" horiz-adv-x="481" 
d="M180 279l-184 435h127l120 -308l123 308h119l-191 -435v-279h-114v279zM193 906h108l89 -144h-91l-54 88l-57 -88h-86z" />
    <glyph glyph-name="ycircumflex" unicode="&#x177;" horiz-adv-x="426" 
d="M124 538l92.999 -403.999h2l86 404h113l-148 -558c-10.667 -36.667 -21.167 -66 -31.5 -88s-22.5 -38.833 -36.5 -50.5s-30.5 -19 -49.5 -22s-42.5 -4.16699 -70.5 -3.5c-7.33301 0 -14.666 0.333008 -21.999 1s-14.333 1.66699 -21 3v86c10 -2.66699 21.667 -4 35 -4
c18.667 0 34 2.66699 46 8s21 16.666 27 33.999l14 44l-153 550h116zM164.999 752.001h108l89 -144h-91l-54 88l-57 -88h-86z" />
    <glyph glyph-name="Ydieresis" unicode="&#x178;" horiz-adv-x="481" 
d="M180 279l-184 435h127l120 -308l123 308h119l-191 -435v-279h-114v279zM114 888h96v-108h-96v108zM280 888h96v-108h-96v108z" />
    <glyph glyph-name="Zacute" unicode="&#x179;" horiz-adv-x="463" 
d="M18 90l299 528h-281v96h406v-96l-299 -522h302v-96h-427v90zM251 906h120l-106 -144h-74z" />
    <glyph glyph-name="zacute" unicode="&#x17a;" horiz-adv-x="407" 
d="M25 84l235 363h-221v91h343v-89l-226 -358h226v-91h-357v84zM227 752h120l-106 -144h-74z" />
    <glyph glyph-name="Zdotaccent" unicode="&#x17b;" horiz-adv-x="463" 
d="M18 90l299 528h-281v96h406v-96l-299 -522h302v-96h-427v90zM191 888h96v-108h-96v108z" />
    <glyph glyph-name="zdotaccent" unicode="&#x17c;" horiz-adv-x="407" 
d="M25 84l235 363h-221v91h343v-89l-226 -358h226v-91h-357v84zM161 734h96v-108h-96v108z" />
    <glyph glyph-name="Zcaron" unicode="&#x17d;" horiz-adv-x="463" 
d="M18 90l299 528h-281v96h406v-96l-299 -522h302v-96h-427v90zM97 906h91l54 -88l57 88h86l-91 -144h-108z" />
    <glyph glyph-name="zcaron" unicode="&#x17e;" horiz-adv-x="407" 
d="M25 84l235 363h-221v91h343v-89l-226 -358h226v-91h-357v84zM69 752h91l54 -88l57 88h86l-91 -144h-108z" />
    <glyph glyph-name="florin" unicode="&#x192;" horiz-adv-x="480" 
d="M201 434l27.9971 128.999c4.66699 22 10.667 42.333 18 61s17.166 34.667 29.499 48s27.666 23.666 45.999 30.999s41.166 11 68.499 11c14.667 0 28.334 -0.5 41.001 -1.5s24.667 -3.16699 36 -6.5l-15 -76c-5.33301 0.666992 -11.166 1.5 -17.499 2.5
s-13.166 1.5 -20.499 1.5c-22.667 0 -41.167 -6.5 -55.5 -19.5s-25.166 -37.5 -32.499 -73.5l-24 -107h112l-11 -68h-114l-76 -371c-6 -28 -13.167 -52.667 -21.5 -74s-19.166 -39.166 -32.499 -53.499s-29.666 -25.166 -48.999 -32.499s-43 -11 -71 -11
c-16.667 0 -30 0.5 -40 1.5s-18.667 2.5 -26 4.5l17 78c8.66699 -2.66699 22.667 -4 42 -4c26 0 44 6.66699 54 20s18 34.333 24 63l77 379h-104l11 68h106z" />
    <glyph glyph-name="Scommaaccent" unicode="&#x218;" horiz-adv-x="519" 
d="M147 221l0.000976562 -17.9971c0 -87.333 39 -131 117 -131c18 0 33.667 3 47 9s24.5 13.833 33.5 23.5s15.833 20.667 20.5 33s7 25.166 7 38.499c0 37.333 -9 65.5 -27 84.5s-43 33.167 -75 42.5l-78 27c-26 10 -48.333 21 -67 33s-34.167 25.833 -46.5 41.5
s-21.333 33.5 -27 53.5s-8.5 42.667 -8.5 68c0 32.667 5.33301 61.5 16 86.5s25.667 46 45 63s42.666 30 69.999 39s57.666 13.5 90.999 13.5c46 0 82.333 -6.33301 109 -19s46.834 -28.5 60.501 -47.5s22.5 -39.333 26.5 -61s6 -41.834 6 -60.501v-16h-114v15
c0 32.667 -7.66699 58 -23 76s-41 27 -77 27c-12 0 -23.833 -1.83301 -35.5 -5.5s-22 -9.5 -31 -17.5s-16.167 -18.667 -21.5 -32s-8 -29.333 -8 -48c0 -30.667 8.33301 -54.834 25 -72.501s44 -33.834 82 -48.501l77 -28c50.667 -18 87.5 -41.667 110.5 -71
s34.5 -68.666 34.5 -117.999c0 -38 -5.5 -70.5 -16.5 -97.5s-26.833 -49.333 -47.5 -67s-45.5 -30.5 -74.5 -38.5s-61.5 -12 -97.5 -12c-44 0 -80.167 6.66699 -108.5 20s-50.5 30.5 -66.5 51.5s-27 44.333 -33 70s-9 51.167 -9 76.5v17h114zM211.001 -49.9971
l96 -0.00195312v-86c0 -30 -7.66699 -51.167 -23 -63.5s-36.333 -20.166 -63 -23.499v33c10 2.66699 18 6.83398 24 12.501s9.66699 15.167 11 28.5h-45v99z" />
    <glyph glyph-name="scommaaccent" unicode="&#x219;" horiz-adv-x="426" 
d="M284 381l0.00292969 14.002c0 10.667 -1 21 -3 31s-5.83301 18.833 -11.5 26.5s-13 13.834 -22 18.501s-20.5 7 -34.5 7c-21.333 0 -39.5 -5.33301 -54.5 -16s-22.5 -28.667 -22.5 -54c0 -21.333 5.5 -37.333 16.5 -48s30.833 -21 59.5 -31l69 -24
c40 -13.333 69.5 -31.833 88.5 -55.5s28.5 -56.834 28.5 -99.501c0 -28.667 -5 -53.334 -15 -74.001s-23.667 -37.667 -41 -51s-37.833 -23.166 -61.5 -29.499s-48.834 -9.5 -75.501 -9.5c-34 0 -62.333 3.83301 -85 11.5s-40.834 18.667 -54.501 33
s-23.334 31.833 -29.001 52.5s-8.5 44 -8.5 70v20h96v-17c0 -32 6 -56 18 -72s34 -24 66 -24c30 0 52.167 7 66.5 21s21.5 33.333 21.5 58c0 39.333 -19.667 65.666 -59 78.999l-88 31c-40.667 13.333 -70 31.666 -88 54.999s-27 56.666 -27 99.999
c0 50.667 16.5 88 49.5 112s77.833 36 134.5 36c34 0 62 -4.5 84 -13.5s39.167 -20.667 51.5 -35s20.833 -30.166 25.5 -47.499s7 -34.333 7 -51v-24h-102zM164.003 -49.998l96 -0.00195312v-86c0 -30 -7.66699 -51.167 -23 -63.5s-36.333 -20.166 -63 -23.499v33
c10 2.66699 18 6.83398 24 12.501s9.66699 15.167 11 28.5h-45v99z" />
    <glyph glyph-name="uni021A" unicode="&#x21a;" horiz-adv-x="463" 
d="M176 618h-170v96h451v-96h-167v-618h-114v618zM185 -50l96 -0.00195312v-86c0 -30 -7.66699 -51.167 -23 -63.5s-36.333 -20.166 -63 -23.499v33c10 2.66699 18 6.83398 24 12.501s9.66699 15.167 11 28.5h-45v99z" />
    <glyph glyph-name="uni021B" unicode="&#x21b;" horiz-adv-x="278" 
d="M4 538h74v153h108v-153h88v-80h-88v-321c0 -21.333 3.5 -36.166 10.5 -44.499s19.833 -12.5 38.5 -12.5c16 0 29 1 39 3v-80c-23.333 -6 -52.333 -9 -87 -9c-18 0 -33.833 1.66699 -47.5 5s-25 9.66602 -34 18.999s-15.833 22.5 -20.5 39.5s-7 39.167 -7 66.5v334h-74v80
zM128 -50l96 -0.00195312v-86c0 -30 -7.66699 -51.167 -23 -63.5s-36.333 -20.166 -63 -23.499v33c10 2.66699 18 6.83398 24 12.501s9.66699 15.167 11 28.5h-45v99z" />
    <glyph glyph-name="circumflex" unicode="&#x2c6;" 
d="M58 752h108l89 -144h-91l-54 88l-57 -88h-86z" />
    <glyph glyph-name="caron" unicode="&#x2c7;" 
d="M-33 752h91l54 -88l57 88h86l-91 -144h-108z" />
    <glyph glyph-name="uni02C9" unicode="&#x2c9;" 
d="M252 711v-62h-282v62h282z" />
    <glyph glyph-name="breve" unicode="&#x2d8;" 
d="M40 748c0 -6 1.49902 -12.833 4.49902 -20.5s7.5 -15 13.5 -22s13.333 -12.833 22 -17.5s19 -7 31 -7s22.333 2.33301 31 7s16 10.5 22 17.5s10.5 14.333 13.5 22s4.5 14.5 4.5 20.5h62c0 -18.667 -3 -36.167 -9 -52.5s-14.667 -30.666 -26 -42.999s-25.333 -22 -42 -29
s-35.334 -10.5 -56.001 -10.5c-21.333 0 -40.166 3.5 -56.499 10.5s-30.166 16.667 -41.499 29s-20 26.666 -26 42.999s-9 33.833 -9 52.5h62z" />
    <glyph glyph-name="dotaccent" unicode="&#x2d9;" 
d="M63 734h96v-108h-96v108z" />
    <glyph glyph-name="ring" unicode="&#x2da;" 
d="M5 696c0 30 10.167 54.833 30.5 74.5s45.5 29.5 75.5 29.5s55.167 -9.83301 75.5 -29.5s30.5 -44.5 30.5 -74.5s-10.167 -54.833 -30.5 -74.5s-45.5 -29.5 -75.5 -29.5s-55.167 9.83301 -75.5 29.5s-30.5 44.5 -30.5 74.5zM55 696c0 -15.333 5.5 -28.5 16.5 -39.5
s24.167 -16.5 39.5 -16.5s28.5 5.5 39.5 16.5s16.5 24.167 16.5 39.5s-5.5 28.5 -16.5 39.5s-24.167 16.5 -39.5 16.5s-28.5 -5.5 -39.5 -16.5s-16.5 -24.167 -16.5 -39.5z" />
    <glyph glyph-name="ogonek" unicode="&#x2db;" 
d="M171 0c-26 -25.333 -43.832 -46.833 -53.499 -64.5s-14.5 -36.167 -14.5 -55.5c0 -18.667 5.16699 -32.834 15.5 -42.501s24.166 -14.5 41.499 -14.5c6 0 13.167 0.666992 21.5 2s15.833 3 22.5 5l6 -42c-11.333 -3.33301 -24 -6 -38 -8s-27.333 -3 -40 -3
c-32 0 -58.167 7.16699 -78.5 21.5s-30.5 37.5 -30.5 69.5c0 24.667 9.33301 48.834 28 72.501s42 43.5 70 59.5h50z" />
    <glyph glyph-name="tilde" unicode="&#x2dc;" 
d="M262 742c0 -11.333 -1.83398 -23.8311 -5.50098 -37.498s-9 -26.5 -16 -38.5s-16 -22 -27 -30s-23.5 -12 -37.5 -12c-11.333 0 -22.5 1.83301 -33.5 5.5s-21.667 7.66699 -32 12l-29 12c-9 3.66699 -17.5 5.5 -25.5 5.5c-11.333 0 -19.833 -4.16699 -25.5 -12.5
s-8.5 -17.5 -8.5 -27.5h-62c0 10.667 1.83301 23 5.5 37s9.5 27.167 17.5 39.5s18.333 22.666 31 30.999s28.334 12.5 47.001 12.5c8 0 16.5 -1.83301 25.5 -5.5l27.5 -11.5c9.33301 -4.66699 18.833 -8.83398 28.5 -12.501s18.834 -5.5 27.501 -5.5
c11.333 0 19.166 4 23.499 12s6.5 16.667 6.5 26h62z" />
    <glyph glyph-name="hungarumlaut" unicode="&#x2dd;" 
d="M196 752h120l-106 -144h-74zM-4 752h120l-106 -144h-74z" />
    <glyph glyph-name="uni0394" unicode="&#x394;" horiz-adv-x="682" 
d="M334 597l-187 -504h382zM10 0l273 712h104l285 -712h-662z" />
    <glyph glyph-name="uni03A9" unicode="&#x3a9;" horiz-adv-x="755" 
d="M428 0v186.997c26.667 5.33301 50.167 14.5 70.5 27.5s37.166 29 50.499 48s23.5 40.333 30.5 64s10.5 48.834 10.5 75.501c0 31.333 -5.33301 60.666 -16 87.999s-25.5 51.166 -44.5 71.499s-41.833 36.333 -68.5 48s-56 17.5 -88 17.5s-61.5 -5.83301 -88.5 -17.5
s-50.333 -27.667 -70 -48s-34.834 -44.166 -45.501 -71.499s-16 -57 -16 -89c0 -54 13.5 -100.167 40.5 -138.5s67.5 -63.5 121.5 -75.5v-187h-269v86h186v53c-30.667 8.66699 -57.5 21.667 -80.5 39s-42.333 37.833 -58 61.5s-27.5 49.834 -35.5 78.501
s-12 58.334 -12 89.001c0 46 8.66699 88.167 26 126.5s40.833 71.333 70.5 99s64.167 49.334 103.5 65.001s81.333 23.5 126 23.5s86.834 -7.5 126.501 -22.5s74.167 -36.333 103.5 -64s52.5 -60.5 69.5 -98.5s25.5 -80 25.5 -126c0 -30.667 -4 -60.5 -12 -89.5
s-19.667 -55.667 -35 -80s-34.666 -45.333 -57.999 -63s-50.333 -30.5 -81 -38.5v-53h186v-86h-269z" />
    <glyph glyph-name="uni03BC" unicode="&#x3bc;" horiz-adv-x="481" 
d="M52 538l108 -0.000976562v-369c0 -36 5.5 -61.167 16.5 -75.5s30.5 -21.5 58.5 -21.5c22 0 41.833 8.5 59.5 25.5s26.5 43.5 26.5 79.5v361h108v-538h-102v63h-3c-13.333 -24 -30.333 -42.833 -51 -56.5s-41.667 -20.5 -63 -20.5c-12 0 -22.167 1.83301 -30.5 5.5
s-14.833 7.83398 -19.5 12.501v-180h-108v714z" />
    <glyph glyph-name="pi" unicode="&#x3c0;" horiz-adv-x="585" 
d="M563 13c-13.333 -6.66699 -26.3311 -11.668 -38.998 -15.001s-26.667 -5 -42 -5c-21.333 0 -38.5 3.33301 -51.5 10s-22.833 15.834 -29.5 27.501s-11 25.167 -13 40.5s-3 32 -3 50v271h-218v-392h-96v392h-70v90h558v-90h-78v-257
c0 -7.33301 0.166992 -14.666 0.5 -21.999s1.66602 -13.833 3.99902 -19.5s6.16602 -10.334 11.499 -14.001s12.666 -5.5 21.999 -5.5c12.667 0 27.334 3.66699 44.001 11v-72z" />
    <glyph glyph-name="endash" unicode="&#x2013;" horiz-adv-x="500" 
d="M0 337h500v-96h-500v96z" />
    <glyph glyph-name="emdash" unicode="&#x2014;" horiz-adv-x="1000" 
d="M0 337h1000v-96h-1000v96z" />
    <glyph glyph-name="quoteleft" unicode="&#x2018;" horiz-adv-x="240" 
d="M63 560c0 40 8 73.5 24 100.5s46 44.833 90 53.5v-58c-15.333 -4 -27.5 -13 -36.5 -27s-13.5 -32 -13.5 -54v-15h50v-132h-114v132z" />
    <glyph glyph-name="quoteright" unicode="&#x2019;" horiz-adv-x="240" 
d="M63 714h114v-132c0 -40 -8 -73.5 -24 -100.5s-46 -44.833 -90 -53.5v58c15.333 4 27.5 13 36.5 27s13.5 32 13.5 54v15h-50v132z" />
    <glyph glyph-name="quotesinglbase" unicode="&#x201a;" horiz-adv-x="240" 
d="M63 132h114v-132c0 -40 -8 -73.5 -24 -100.5s-46 -44.833 -90 -53.5v58c15.333 4 27.5 13 36.5 27s13.5 32 13.5 54v15h-50v132z" />
    <glyph glyph-name="quotedblleft" unicode="&#x201c;" horiz-adv-x="426" 
d="M245 560c0 40 8 73.5 24 100.5s46 44.833 90 53.5v-58c-15.333 -4 -27.5 -13 -36.5 -27s-13.5 -32 -13.5 -54v-15h50v-132h-114v132zM67 560c0 40 8 73.5 24 100.5s46 44.833 90 53.5v-58c-15.333 -4 -27.5 -13 -36.5 -27s-13.5 -32 -13.5 -54v-15h50v-132h-114v132z" />
    <glyph glyph-name="quotedblright" unicode="&#x201d;" horiz-adv-x="426" 
d="M67 714h114v-132c0 -40 -8 -73.5 -24 -100.5s-46 -44.833 -90 -53.5v58c15.333 4 27.5 13 36.5 27s13.5 32 13.5 54v15h-50v132zM245 714h114v-132c0 -40 -8 -73.5 -24 -100.5s-46 -44.833 -90 -53.5v58c15.333 4 27.5 13 36.5 27s13.5 32 13.5 54v15h-50v132z" />
    <glyph glyph-name="quotedblbase" unicode="&#x201e;" horiz-adv-x="426" 
d="M67 132h114v-132c0 -40 -8 -73.5 -24 -100.5s-46 -44.833 -90 -53.5v58c15.333 4 27.5 13 36.5 27s13.5 32 13.5 54v15h-50v132zM245 132h114v-132c0 -40 -8 -73.5 -24 -100.5s-46 -44.833 -90 -53.5v58c15.333 4 27.5 13 36.5 27s13.5 32 13.5 54v15h-50v132z" />
    <glyph glyph-name="dagger" unicode="&#x2020;" horiz-adv-x="482" 
d="M187 714h108v-202h171v-91h-171v-563h-108v563h-171v91h171v202z" />
    <glyph glyph-name="daggerdbl" unicode="&#x2021;" horiz-adv-x="482" 
d="M187 714h108v-195h172v-86h-172v-290h172v-86h-172v-199h-108v199h-172v86h172v290h-172v86h172v195z" />
    <glyph glyph-name="bullet" unicode="&#x2022;" horiz-adv-x="500" 
d="M72 357c0 24.667 4.66699 47.834 14 69.501s22 40.5 38 56.5s34.833 28.667 56.5 38s44.834 14 69.501 14s47.834 -4.66699 69.501 -14s40.5 -22 56.5 -38s28.667 -34.833 38 -56.5s14 -44.834 14 -69.501s-4.66699 -47.834 -14 -69.501s-22 -40.5 -38 -56.5
s-34.833 -28.667 -56.5 -38s-44.834 -14 -69.501 -14s-47.834 4.66699 -69.501 14s-40.5 22 -56.5 38s-28.667 34.833 -38 56.5s-14 44.834 -14 69.501z" />
    <glyph glyph-name="ellipsis" unicode="&#x2026;" horiz-adv-x="1000" 
d="M776 132h114v-132h-114v132zM443 132h114v-132h-114v132zM110 132h114v-132h-114v132z" />
    <glyph glyph-name="perthousand" unicode="&#x2030;" horiz-adv-x="1056" 
d="M575 370c20 0 38.333 -3 55 -9s31 -16.333 43 -31s21.5 -34.334 28.5 -59.001s10.5 -55.667 10.5 -93s-3.5 -68.333 -10.5 -93s-16.5 -44.334 -28.5 -59.001s-26.333 -25 -43 -31s-35 -9 -55 -9s-38.333 3 -55 9s-31 16.333 -43 31s-21.5 34.334 -28.5 59.001
s-10.5 55.667 -10.5 93s3.5 68.333 10.5 93s16.5 44.334 28.5 59.001s26.333 25 43 31s35 9 55 9zM575 308c-20.667 0 -34.334 -10 -41.001 -30s-10 -53.333 -10 -100s3.33301 -80 10 -100s20.334 -30 41.001 -30s34.334 10 41.001 30s10 53.333 10 100s-3.33301 80 -10 100
s-20.334 30 -41.001 30zM162 708c20 0 38.333 -3 55 -9s31 -16.333 43 -31s21.5 -34.334 28.5 -59.001s10.5 -55.667 10.5 -93s-3.5 -68.333 -10.5 -93s-16.5 -44.334 -28.5 -59.001s-26.333 -25 -43 -31s-35 -9 -55 -9s-38.333 3 -55 9s-31 16.333 -43 31
s-21.5 34.334 -28.5 59.001s-10.5 55.667 -10.5 93s3.5 68.333 10.5 93s16.5 44.334 28.5 59.001s26.333 25 43 31s35 9 55 9zM894 370c20 0 38.333 -3 55 -9s31 -16.333 43 -31s21.5 -34.334 28.5 -59.001s10.5 -55.667 10.5 -93s-3.5 -68.333 -10.5 -93
s-16.5 -44.334 -28.5 -59.001s-26.333 -25 -43 -31s-35 -9 -55 -9s-38.333 3 -55 9s-31 16.333 -43 31s-21.5 34.334 -28.5 59.001s-10.5 55.667 -10.5 93s3.5 68.333 10.5 93s16.5 44.334 28.5 59.001s26.333 25 43 31s35 9 55 9zM162 646
c-20.667 0 -34.334 -10 -41.001 -30s-10 -53.333 -10 -100s3.33301 -80 10 -100s20.334 -30 41.001 -30s34.334 10 41.001 30s10 53.333 10 100s-3.33301 80 -10 100s-20.334 30 -41.001 30zM563 708l-319 -722h-75l317 722h77zM894 308c-20.667 0 -34.334 -10 -41.001 -30
s-10 -53.333 -10 -100s3.33301 -80 10 -100s20.334 -30 41.001 -30s34.334 10 41.001 30s10 53.333 10 100s-3.33301 80 -10 100s-20.334 30 -41.001 30z" />
    <glyph glyph-name="guilsinglleft" unicode="&#x2039;" horiz-adv-x="240" 
d="M48 346l144 135v-110l-88 -82l88 -82v-110l-144 135v114z" />
    <glyph glyph-name="guilsinglright" unicode="&#x203a;" horiz-adv-x="240" 
d="M192 232l-144 -135v110l88 82l-88 82v110l144 -135v-114z" />
    <glyph glyph-name="fraction" unicode="&#x2044;" horiz-adv-x="167" 
d="M257 725h74l-421 -756h-74z" />
    <glyph glyph-name="Euro" unicode="&#x20ac;" horiz-adv-x="480" 
d="M446 547c-4.66699 9.33301 -11.0029 19.167 -19.0029 29.5s-19 20.166 -33 29.499s-27.333 15.333 -40 18s-26 4 -40 4c-16 0 -30.667 -2.16699 -44 -6.5s-25.666 -13.166 -36.999 -26.499c-8.66699 -9.33301 -15.667 -20.333 -21 -33s-9.66602 -25.667 -12.999 -39
s-5.66602 -26.166 -6.99902 -38.499s-2.33301 -22.833 -3 -31.5h224l-24 -68h-204c-0.666992 -22 -0.666992 -45.333 0 -70h185l-24 -68h-157c0 -7.33301 0.5 -17 1.5 -29s3.16699 -25 6.5 -39s7.83301 -27.833 13.5 -41.5s13.167 -25.834 22.5 -36.501
c11.333 -12.667 23.666 -21.667 36.999 -27s28.666 -8 45.999 -8c13.333 0 27.166 1.66699 41.499 5s28.833 8.66602 43.5 15.999c13.333 6.66699 25 14.5 35 23.5s19.333 20.167 28 33.5v-110c-14 -12 -29.333 -21.333 -46 -28c-10 -4.66699 -20.5 -8.33398 -31.5 -11.001
s-21.167 -4.66699 -30.5 -6s-17.666 -2.16602 -24.999 -2.49902s-13 -0.5 -17 -0.5c-38.667 0 -70 4.5 -94 13.5s-42.667 18.833 -56 29.5c-18.667 14.667 -33.667 32.167 -45 52.5s-20.166 40.833 -26.499 61.5s-10.666 40.334 -12.999 59.001s-3.83301 33.667 -4.5 45h-75
l24 68h47c-0.666992 24.667 -0.666992 48 0 70h-71l24 68h51c4 58.667 14.667 104.5 32 137.5s36.333 57.833 57 74.5c12.667 10 25.667 17.833 39 23.5s26.5 10 39.5 13s25.333 4.83301 37 5.5s22.167 1 31.5 1c16 0 32.667 -1.16699 50 -3.5s35.333 -7.5 54 -15.5
c25.333 -11.333 47 -28 65 -50z" />
    <glyph glyph-name="afii61289" unicode="&#x2113;" horiz-adv-x="500" 
d="M434 46c-45.333 -40 -95.001 -59.999 -149.001 -59.999c-44 0 -79 12.167 -105 36.5s-39 57.833 -39 100.5v80l-57 -55h-2l-37 54l95 85v249c0 28 3.83301 53.333 11.5 76s18.334 42 32.001 58s29.834 28.5 48.501 37.5s39 13.5 61 13.5c38.667 0 69.667 -12.333 93 -37
s35 -58.334 35 -101.001c0 -50 -14.833 -100.5 -44.5 -151.5s-74.834 -104.833 -135.501 -161.5v-131c0 -15.333 2 -28 6 -38s9.33301 -18 16 -24s14 -10.167 22 -12.5s16 -3.5 24 -3.5c13.333 0 27.5 3 42.5 9s30.167 15.667 45.5 29h2zM338.999 576.001
c0 22 -4.50098 40.333 -13.501 55s-20.167 22 -33.5 22s-25.166 -8.33301 -35.499 -25s-15.5 -41.334 -15.5 -74.001v-197c32.667 36.667 57.167 73.834 73.5 111.501s24.5 73.5 24.5 107.5z" />
    <glyph glyph-name="trademark" unicode="&#x2122;" horiz-adv-x="1000" 
d="M828 628h-2l-121 -326h-56l-121 326h-2v-326h-80v412h119l112 -292l112 292h119v-412h-80v326zM155 646h-123v68h332v-68h-123v-344h-86v344z" />
    <glyph glyph-name="Omega" unicode="&#x2126;" horiz-adv-x="755" 
d="M428 0v186.997c26.667 5.33301 50.167 14.5 70.5 27.5s37.166 29 50.499 48s23.5 40.333 30.5 64s10.5 48.834 10.5 75.501c0 31.333 -5.33301 60.666 -16 87.999s-25.5 51.166 -44.5 71.499s-41.833 36.333 -68.5 48s-56 17.5 -88 17.5s-61.5 -5.83301 -88.5 -17.5
s-50.333 -27.667 -70 -48s-34.834 -44.166 -45.501 -71.499s-16 -57 -16 -89c0 -54 13.5 -100.167 40.5 -138.5s67.5 -63.5 121.5 -75.5v-187h-269v86h186v53c-30.667 8.66699 -57.5 21.667 -80.5 39s-42.333 37.833 -58 61.5s-27.5 49.834 -35.5 78.501
s-12 58.334 -12 89.001c0 46 8.66699 88.167 26 126.5s40.833 71.333 70.5 99s64.167 49.334 103.5 65.001s81.333 23.5 126 23.5s86.834 -7.5 126.501 -22.5s74.167 -36.333 103.5 -64s52.5 -60.5 69.5 -98.5s25.5 -80 25.5 -126c0 -30.667 -4 -60.5 -12 -89.5
s-19.667 -55.667 -35 -80s-34.666 -45.333 -57.999 -63s-50.333 -30.5 -81 -38.5v-53h186v-86h-269z" />
    <glyph glyph-name="estimated" unicode="&#x212e;" horiz-adv-x="600" 
d="M157 259l-0.00292969 -181.001c39.333 -39.333 87.666 -59 144.999 -59c42 0 78.333 9.5 109 28.5s58.667 49.5 84 91.5l35 -21c-15.333 -24 -30.833 -44.5 -46.5 -61.5s-32.667 -31 -51 -42s-38.166 -19 -59.499 -24s-45 -7.5 -71 -7.5
c-39.333 0 -74.833 7.16699 -106.5 21.5s-58.834 34 -81.501 59s-40 54.167 -52 87.5s-18 69.333 -18 108s6 74.834 18 108.501s29.333 62.834 52 87.501s49.834 44.167 81.501 58.5s67.167 21.5 106.5 21.5c38.667 0 73.834 -6.83301 105.501 -20.5
s58.834 -32.667 81.501 -57s40.334 -53.333 53.001 -87s19 -70.834 19 -111.501h-404zM447.997 294.999v145c-42 40 -91 60 -147 60s-104 -20 -144 -60v-145h291z" />
    <glyph glyph-name="partialdiff" unicode="&#x2202;" horiz-adv-x="541" 
d="M395 286c-18 21.333 -37.332 38.333 -57.999 51s-46 19 -76 19c-21.333 0 -39.833 -4 -55.5 -12s-28.834 -18.667 -39.501 -32s-18.5 -28.833 -23.5 -46.5s-7.5 -36.167 -7.5 -55.5c0 -18.667 2.33301 -36.667 7 -54s12 -32.833 22 -46.5s22.5 -24.667 37.5 -33
s32.833 -12.5 53.5 -12.5c27.333 0 50 7.5 68 22.5s32.333 33.667 43 56s18.167 46.333 22.5 72s6.5 49.5 6.5 71.5zM499.001 360c0 -41.333 -3.33398 -83.835 -10.001 -127.502s-19 -83.667 -37 -120s-43.167 -66.166 -75.5 -89.499s-74.166 -35 -125.499 -35
c-32.667 0 -62.167 5.83301 -88.5 17.5s-48.833 27.834 -67.5 48.501s-33 44.667 -43 72s-15 57 -15 89c0 30.667 5 59.334 15 86.001s24.167 49.834 42.5 69.501s40.333 35 66 46s54.5 16.5 86.5 16.5c30 0 57 -5.33301 81 -16s46.667 -26 68 -46l1 33
c0.666992 24.667 -1.5 51 -6.5 79s-13.667 53.833 -26 77.5s-29 43.167 -50 58.5s-46.833 23 -77.5 23c-22.667 0 -43.5 -4.66699 -62.5 -14s-37.167 -20.666 -54.5 -33.999l-54 63c26 20 52 35.667 78 47s56 17 90 17c50.667 0 93 -10.833 127 -32.5
s61.167 -49.834 81.5 -84.501s34.833 -73.334 43.5 -116.001s13 -85.334 13 -128.001z" />
    <glyph glyph-name="Delta" unicode="&#x2206;" horiz-adv-x="682" 
d="M334 597l-187 -504h382zM10 0l273 712h104l285 -712h-662z" />
    <glyph glyph-name="product" unicode="&#x220f;" horiz-adv-x="733" 
d="M568 -214v907h-402v-907h-102v1000h606v-1000h-102z" />
    <glyph glyph-name="summation" unicode="&#x2211;" horiz-adv-x="637" 
d="M25 -214v81l309 424l-296 415v80h562v-93h-427l283 -401l-302 -414h458v-92h-587z" />
    <glyph glyph-name="minus" unicode="&#x2212;" horiz-adv-x="600" 
d="M47 296h506v-86h-506v86z" />
    <glyph glyph-name="uni2215" unicode="&#x2215;" horiz-adv-x="167" 
d="M257 725h74l-421 -756h-74z" />
    <glyph glyph-name="uni2219" unicode="&#x2219;" horiz-adv-x="240" 
d="M48 308c0 20 7 37 21 51s31 21 51 21s37 -7 51 -21s21 -31 21 -51s-7 -37 -21 -51s-31 -21 -51 -21s-37 7 -51 21s-21 31 -21 51z" />
    <glyph glyph-name="radical" unicode="&#x221a;" horiz-adv-x="526" 
d="M327 -214h-97l-155 322l-49 -23l-37 80l136 63l137 -289l173 847h103z" />
    <glyph glyph-name="infinity" unicode="&#x221e;" horiz-adv-x="796" 
d="M346 256l-29.502 28.501c-11 10.333 -22.667 19.833 -35 28.5s-25.166 16 -38.499 22s-26.666 9 -39.999 9c-24 0 -43 -8.83301 -57 -26.5s-21 -37.834 -21 -60.501c0 -24.667 7.33301 -44.667 22 -60s34.667 -23 60 -23c12.667 0 25.5 2.5 38.5 7.5s25.667 11.5 38 19.5
s23.833 16.833 34.5 26.5s20 19.167 28 28.5zM670.998 257.001c0 24.667 -7.00098 45.501 -21.001 62.501s-34 25.5 -60 25.5c-13.333 0 -26.333 -3 -39 -9s-25 -13.333 -37 -22s-23.333 -18.334 -34 -29.001l-29 -29l30 -29c10.667 -10 21.834 -19 33.501 -27
s24 -14.5 37 -19.5s26.5 -7.5 40.5 -7.5c25.333 0 44.833 8 58.5 24s20.5 36 20.5 60zM751.997 260.002c0 -24 -3.66797 -46.665 -11.001 -67.998s-17.833 -39.833 -31.5 -55.5s-30.5 -28 -50.5 -37s-42.667 -13.5 -68 -13.5c-20 0 -38.833 3.16699 -56.5 9.5
s-34.334 14.833 -50.001 25.5s-30.667 22.667 -45 36s-27.833 27 -40.5 41l-41.5 -40.5c-13.667 -13 -28.167 -24.833 -43.5 -35.5s-31.833 -19.167 -49.5 -25.5s-36.834 -9.5 -57.501 -9.5c-25.333 0 -48 4.33301 -68 13s-37 20.667 -51 36s-24.833 33.5 -32.5 54.5
s-11.5 43.5 -11.5 67.5s3.66699 46.5 11 67.5s17.833 39.167 31.5 54.5s30.334 27.5 50.001 36.5s42.167 13.5 67.5 13.5c21.333 0 41 -3.33301 59 -10s34.833 -15.5 50.5 -26.5s30.5 -23.5 44.5 -37.5l41 -43c12.667 14.667 25.834 29 39.501 43s28.334 26.5 44.001 37.5
s32.5 20 50.5 27s37.333 10.5 58 10.5c24.667 0 47 -4.33301 67 -13s37 -20.834 51 -36.501s24.667 -33.834 32 -54.501s11 -43 11 -67z" />
    <glyph glyph-name="integral" unicode="&#x222b;" horiz-adv-x="589" 
d="M461 717c0 -13.333 -4.66797 -24.666 -14.001 -33.999s-20.666 -14 -33.999 -14c-12.667 0 -22.5 3.16699 -29.5 9.5s-12.5 13.166 -16.5 20.499s-7.5 14.166 -10.5 20.499s-6.83301 9.5 -11.5 9.5c-9.33301 0 -15.333 -4 -18 -12s-4 -15.667 -4 -23
c0 -22 0.5 -43.833 1.5 -65.5s1.5 -43.5 1.5 -65.5v-565c0 -24 -1.5 -48.5 -4.5 -73.5s-9.33301 -47.667 -19 -68s-23.5 -37.166 -41.5 -50.499s-42.333 -20 -73 -20c-10 0 -20.5 1.33301 -31.5 4s-21.167 6.83398 -30.5 12.501s-17 12.834 -23 21.501s-9 18.667 -9 30
c0 13.333 4 24.333 12 33s18.667 13 32 13c12.667 0 22.334 -3.16699 29.001 -9.5s12 -13.5 16 -21.5s7.33301 -15.167 10 -21.5s6.66699 -9.5 12 -9.5c4.66699 0 8.5 1.66699 11.5 5s5 7.33301 6 12s1.66699 9.66699 2 15s0.5 9.66602 0.5 12.999c0 16 -0.333008 32 -1 48
s-1 32 -1 48v543c0 26 0.166992 54.5 0.5 85.5s4.5 59.667 12.5 86s21.667 48.333 41 66s47.666 26.5 84.999 26.5c10 0 20.833 -1.33301 32.5 -4s22.5 -6.66699 32.5 -12s18.167 -12.333 24.5 -21s9.5 -19.334 9.5 -32.001z" />
    </font>
</defs>
</svg>
